ISO-10303-21;
HEADER;
/* Generated by software containing ST-Developer
 * from STEP Tools, Inc. (www.steptools.com) 
 */
/* OPTION: using custom renumber hook */

FILE_DESCRIPTION(
/* description */ ('STEP AP242 Edition 2',
'CAx-IF Rec.Pracs.---Representation and Presentation of Product Manufa
cturing Information (PMI)---4.0---2014-10-13',
'CAx-IF Rec.Pracs.---3D Tessellated Geometry---0.4---2014-09-14','2;1',
'CAx-IF Rec.Pracs.---User Defined Attributes---1.5---2016-08-15'),
/* implementation_level */ '2;1');

FILE_NAME(
/* name */ '6aa7893363e1f6f7a4b520fb',
/* time_stamp */ '2026-09-14T05:42:11Z',
/* author */ (''),
/* organization */ (''),
/* preprocessor_version */ 'ST-DEVELOPER v20',
/* originating_system */ 'ONSHAPE BY PTC INC, 1.220',
/* authorisation */ '  ');

FILE_SCHEMA (('AP242_MANAGED_MODEL_BASED_3D_ENGINEERING_MIM_LF { 1 0 10303 442 3 1 4 }'));
ENDSEC;

DATA;
#10=CONTEXT_DEPENDENT_SHAPE_REPRESENTATION(#14,#2079);
#11=CONTEXT_DEPENDENT_SHAPE_REPRESENTATION(#15,#2081);
#12=NEXT_ASSEMBLY_USAGE_OCCURRENCE('NAUO1','top','top',#2082,#2083,'');
#13=NEXT_ASSEMBLY_USAGE_OCCURRENCE('NAUO2','bottom','bottom',#2082,#2084,
'');
#14=(
REPRESENTATION_RELATIONSHIP(' ',' ',#1277,#1276)
REPRESENTATION_RELATIONSHIP_WITH_TRANSFORMATION(#16)
SHAPE_REPRESENTATION_RELATIONSHIP()
);
#15=(
REPRESENTATION_RELATIONSHIP(' ',' ',#1278,#1276)
REPRESENTATION_RELATIONSHIP_WITH_TRANSFORMATION(#17)
SHAPE_REPRESENTATION_RELATIONSHIP()
);
#16=ITEM_DEFINED_TRANSFORMATION(' ',' ',#1279,#1310);
#17=ITEM_DEFINED_TRANSFORMATION(' ',' ',#1279,#1380);
#18=SHAPE_REPRESENTATION_RELATIONSHIP('','',#1277,#20);
#19=SHAPE_REPRESENTATION_RELATIONSHIP('','',#1278,#21);
#20=ADVANCED_BREP_SHAPE_REPRESENTATION('',(#1271),#2069);
#21=ADVANCED_BREP_SHAPE_REPRESENTATION('',(#1272),#2070);
#22=CYLINDRICAL_SURFACE('',#1308,0.0005);
#23=CYLINDRICAL_SURFACE('',#1309,0.0005);
#24=CYLINDRICAL_SURFACE('',#1314,0.00175);
#25=CYLINDRICAL_SURFACE('',#1321,0.001);
#26=CYLINDRICAL_SURFACE('',#1322,0.00175);
#27=CYLINDRICAL_SURFACE('',#1326,0.001);
#28=CYLINDRICAL_SURFACE('',#1330,0.00175);
#29=CYLINDRICAL_SURFACE('',#1334,0.001);
#30=CYLINDRICAL_SURFACE('',#1358,0.0005);
#31=CYLINDRICAL_SURFACE('',#1366,0.0005);
#32=CYLINDRICAL_SURFACE('',#1367,0.001);
#33=CYLINDRICAL_SURFACE('',#1368,0.001);
#34=CYLINDRICAL_SURFACE('',#1369,0.00175);
#35=CYLINDRICAL_SURFACE('',#1373,0.001);
#36=CIRCLE('',#1291,0.0005);
#37=CIRCLE('',#1292,0.0005);
#38=CIRCLE('',#1295,0.0005);
#39=CIRCLE('',#1296,0.0005);
#40=CIRCLE('',#1312,0.001);
#41=CIRCLE('',#1313,0.00175);
#42=CIRCLE('',#1315,0.00175);
#43=CIRCLE('',#1317,0.001);
#44=CIRCLE('',#1318,0.00175);
#45=CIRCLE('',#1320,0.001);
#46=CIRCLE('',#1323,0.00175);
#47=CIRCLE('',#1325,0.001);
#48=CIRCLE('',#1328,0.001);
#49=CIRCLE('',#1329,0.00175);
#50=CIRCLE('',#1331,0.00175);
#51=CIRCLE('',#1333,0.001);
#52=CIRCLE('',#1338,0.00175);
#53=CIRCLE('',#1339,0.001);
#54=CIRCLE('',#1340,0.001);
#55=CIRCLE('',#1347,0.001);
#56=CIRCLE('',#1348,0.001);
#57=CIRCLE('',#1354,0.0005);
#58=CIRCLE('',#1356,0.0005);
#59=CIRCLE('',#1362,0.0005);
#60=CIRCLE('',#1364,0.0005);
#61=CIRCLE('',#1370,0.00175);
#62=CIRCLE('',#1372,0.001);
#63=CIRCLE('',#1374,0.001);
#64=ORIENTED_EDGE('',*,*,#388,.F.);
#65=ORIENTED_EDGE('',*,*,#389,.T.);
#66=ORIENTED_EDGE('',*,*,#390,.T.);
#67=ORIENTED_EDGE('',*,*,#391,.F.);
#68=ORIENTED_EDGE('',*,*,#392,.T.);
#69=ORIENTED_EDGE('',*,*,#393,.T.);
#70=ORIENTED_EDGE('',*,*,#394,.F.);
#71=ORIENTED_EDGE('',*,*,#395,.F.);
#72=ORIENTED_EDGE('',*,*,#396,.F.);
#73=ORIENTED_EDGE('',*,*,#397,.T.);
#74=ORIENTED_EDGE('',*,*,#398,.T.);
#75=ORIENTED_EDGE('',*,*,#399,.T.);
#76=ORIENTED_EDGE('',*,*,#400,.F.);
#77=ORIENTED_EDGE('',*,*,#401,.F.);
#78=ORIENTED_EDGE('',*,*,#402,.T.);
#79=ORIENTED_EDGE('',*,*,#403,.F.);
#80=ORIENTED_EDGE('',*,*,#395,.T.);
#81=ORIENTED_EDGE('',*,*,#404,.T.);
#82=ORIENTED_EDGE('',*,*,#398,.F.);
#83=ORIENTED_EDGE('',*,*,#405,.F.);
#84=ORIENTED_EDGE('',*,*,#406,.F.);
#85=ORIENTED_EDGE('',*,*,#407,.T.);
#86=ORIENTED_EDGE('',*,*,#408,.T.);
#87=ORIENTED_EDGE('',*,*,#409,.F.);
#88=ORIENTED_EDGE('',*,*,#410,.F.);
#89=ORIENTED_EDGE('',*,*,#391,.T.);
#90=ORIENTED_EDGE('',*,*,#411,.T.);
#91=ORIENTED_EDGE('',*,*,#402,.F.);
#92=ORIENTED_EDGE('',*,*,#412,.F.);
#93=ORIENTED_EDGE('',*,*,#413,.T.);
#94=ORIENTED_EDGE('',*,*,#414,.F.);
#95=ORIENTED_EDGE('',*,*,#415,.F.);
#96=ORIENTED_EDGE('',*,*,#416,.F.);
#97=ORIENTED_EDGE('',*,*,#417,.T.);
#98=ORIENTED_EDGE('',*,*,#418,.T.);
#99=ORIENTED_EDGE('',*,*,#419,.F.);
#100=ORIENTED_EDGE('',*,*,#420,.F.);
#101=ORIENTED_EDGE('',*,*,#421,.T.);
#102=ORIENTED_EDGE('',*,*,#422,.T.);
#103=ORIENTED_EDGE('',*,*,#423,.F.);
#104=ORIENTED_EDGE('',*,*,#424,.F.);
#105=ORIENTED_EDGE('',*,*,#425,.F.);
#106=ORIENTED_EDGE('',*,*,#416,.T.);
#107=ORIENTED_EDGE('',*,*,#426,.T.);
#108=ORIENTED_EDGE('',*,*,#427,.T.);
#109=ORIENTED_EDGE('',*,*,#428,.F.);
#110=ORIENTED_EDGE('',*,*,#417,.F.);
#111=ORIENTED_EDGE('',*,*,#425,.T.);
#112=ORIENTED_EDGE('',*,*,#429,.T.);
#113=ORIENTED_EDGE('',*,*,#430,.F.);
#114=ORIENTED_EDGE('',*,*,#418,.F.);
#115=ORIENTED_EDGE('',*,*,#428,.T.);
#116=ORIENTED_EDGE('',*,*,#431,.F.);
#117=ORIENTED_EDGE('',*,*,#426,.F.);
#118=ORIENTED_EDGE('',*,*,#419,.T.);
#119=ORIENTED_EDGE('',*,*,#430,.T.);
#120=ORIENTED_EDGE('',*,*,#432,.F.);
#121=ORIENTED_EDGE('',*,*,#433,.F.);
#122=ORIENTED_EDGE('',*,*,#434,.T.);
#123=ORIENTED_EDGE('',*,*,#435,.T.);
#124=ORIENTED_EDGE('',*,*,#436,.F.);
#125=ORIENTED_EDGE('',*,*,#393,.F.);
#126=ORIENTED_EDGE('',*,*,#437,.T.);
#127=ORIENTED_EDGE('',*,*,#400,.T.);
#128=ORIENTED_EDGE('',*,*,#438,.T.);
#129=ORIENTED_EDGE('',*,*,#439,.F.);
#130=ORIENTED_EDGE('',*,*,#440,.T.);
#131=ORIENTED_EDGE('',*,*,#441,.T.);
#132=ORIENTED_EDGE('',*,*,#424,.T.);
#133=ORIENTED_EDGE('',*,*,#431,.T.);
#134=ORIENTED_EDGE('',*,*,#429,.F.);
#135=ORIENTED_EDGE('',*,*,#427,.F.);
#136=ORIENTED_EDGE('',*,*,#405,.T.);
#137=ORIENTED_EDGE('',*,*,#397,.F.);
#138=ORIENTED_EDGE('',*,*,#442,.F.);
#139=ORIENTED_EDGE('',*,*,#443,.F.);
#140=ORIENTED_EDGE('',*,*,#421,.F.);
#141=ORIENTED_EDGE('',*,*,#444,.T.);
#142=ORIENTED_EDGE('',*,*,#445,.T.);
#143=ORIENTED_EDGE('',*,*,#388,.T.);
#144=ORIENTED_EDGE('',*,*,#446,.F.);
#145=ORIENTED_EDGE('',*,*,#444,.F.);
#146=ORIENTED_EDGE('',*,*,#420,.T.);
#147=ORIENTED_EDGE('',*,*,#447,.T.);
#148=ORIENTED_EDGE('',*,*,#411,.F.);
#149=ORIENTED_EDGE('',*,*,#390,.F.);
#150=ORIENTED_EDGE('',*,*,#448,.F.);
#151=ORIENTED_EDGE('',*,*,#447,.F.);
#152=ORIENTED_EDGE('',*,*,#423,.T.);
#153=ORIENTED_EDGE('',*,*,#449,.T.);
#154=ORIENTED_EDGE('',*,*,#450,.T.);
#155=ORIENTED_EDGE('',*,*,#403,.T.);
#156=ORIENTED_EDGE('',*,*,#443,.T.);
#157=ORIENTED_EDGE('',*,*,#451,.T.);
#158=ORIENTED_EDGE('',*,*,#449,.F.);
#159=ORIENTED_EDGE('',*,*,#422,.F.);
#160=ORIENTED_EDGE('',*,*,#452,.T.);
#161=ORIENTED_EDGE('',*,*,#439,.T.);
#162=ORIENTED_EDGE('',*,*,#453,.F.);
#163=ORIENTED_EDGE('',*,*,#413,.F.);
#164=ORIENTED_EDGE('',*,*,#414,.T.);
#165=ORIENTED_EDGE('',*,*,#453,.T.);
#166=ORIENTED_EDGE('',*,*,#438,.F.);
#167=ORIENTED_EDGE('',*,*,#454,.F.);
#168=ORIENTED_EDGE('',*,*,#412,.T.);
#169=ORIENTED_EDGE('',*,*,#455,.T.);
#170=ORIENTED_EDGE('',*,*,#440,.F.);
#171=ORIENTED_EDGE('',*,*,#452,.F.);
#172=ORIENTED_EDGE('',*,*,#415,.T.);
#173=ORIENTED_EDGE('',*,*,#454,.T.);
#174=ORIENTED_EDGE('',*,*,#441,.F.);
#175=ORIENTED_EDGE('',*,*,#455,.F.);
#176=ORIENTED_EDGE('',*,*,#410,.T.);
#177=ORIENTED_EDGE('',*,*,#401,.T.);
#178=ORIENTED_EDGE('',*,*,#437,.F.);
#179=ORIENTED_EDGE('',*,*,#392,.F.);
#180=ORIENTED_EDGE('',*,*,#394,.T.);
#181=ORIENTED_EDGE('',*,*,#436,.T.);
#182=ORIENTED_EDGE('',*,*,#399,.F.);
#183=ORIENTED_EDGE('',*,*,#404,.F.);
#184=ORIENTED_EDGE('',*,*,#456,.T.);
#185=ORIENTED_EDGE('',*,*,#433,.T.);
#186=ORIENTED_EDGE('',*,*,#457,.F.);
#187=ORIENTED_EDGE('',*,*,#407,.F.);
#188=ORIENTED_EDGE('',*,*,#457,.T.);
#189=ORIENTED_EDGE('',*,*,#432,.T.);
#190=ORIENTED_EDGE('',*,*,#458,.F.);
#191=ORIENTED_EDGE('',*,*,#408,.F.);
#192=ORIENTED_EDGE('',*,*,#406,.T.);
#193=ORIENTED_EDGE('',*,*,#459,.T.);
#194=ORIENTED_EDGE('',*,*,#434,.F.);
#195=ORIENTED_EDGE('',*,*,#456,.F.);
#196=ORIENTED_EDGE('',*,*,#409,.T.);
#197=ORIENTED_EDGE('',*,*,#458,.T.);
#198=ORIENTED_EDGE('',*,*,#435,.F.);
#199=ORIENTED_EDGE('',*,*,#459,.F.);
#200=ORIENTED_EDGE('',*,*,#442,.T.);
#201=ORIENTED_EDGE('',*,*,#396,.T.);
#202=ORIENTED_EDGE('',*,*,#450,.F.);
#203=ORIENTED_EDGE('',*,*,#451,.F.);
#204=ORIENTED_EDGE('',*,*,#446,.T.);
#205=ORIENTED_EDGE('',*,*,#448,.T.);
#206=ORIENTED_EDGE('',*,*,#389,.F.);
#207=ORIENTED_EDGE('',*,*,#445,.F.);
#208=ORIENTED_EDGE('',*,*,#460,.T.);
#209=ORIENTED_EDGE('',*,*,#461,.F.);
#210=ORIENTED_EDGE('',*,*,#461,.T.);
#211=ORIENTED_EDGE('',*,*,#462,.F.);
#212=ORIENTED_EDGE('',*,*,#463,.F.);
#213=ORIENTED_EDGE('',*,*,#464,.T.);
#214=ORIENTED_EDGE('',*,*,#465,.T.);
#215=ORIENTED_EDGE('',*,*,#465,.F.);
#216=ORIENTED_EDGE('',*,*,#463,.T.);
#217=ORIENTED_EDGE('',*,*,#464,.F.);
#218=ORIENTED_EDGE('',*,*,#466,.T.);
#219=ORIENTED_EDGE('',*,*,#467,.F.);
#220=ORIENTED_EDGE('',*,*,#467,.T.);
#221=ORIENTED_EDGE('',*,*,#460,.F.);
#222=ORIENTED_EDGE('',*,*,#468,.T.);
#223=ORIENTED_EDGE('',*,*,#469,.F.);
#224=ORIENTED_EDGE('',*,*,#469,.T.);
#225=ORIENTED_EDGE('',*,*,#470,.F.);
#226=ORIENTED_EDGE('',*,*,#471,.F.);
#227=ORIENTED_EDGE('',*,*,#471,.T.);
#228=ORIENTED_EDGE('',*,*,#468,.F.);
#229=ORIENTED_EDGE('',*,*,#472,.F.);
#230=ORIENTED_EDGE('',*,*,#473,.T.);
#231=ORIENTED_EDGE('',*,*,#474,.T.);
#232=ORIENTED_EDGE('',*,*,#475,.F.);
#233=ORIENTED_EDGE('',*,*,#476,.F.);
#234=ORIENTED_EDGE('',*,*,#477,.T.);
#235=ORIENTED_EDGE('',*,*,#478,.T.);
#236=ORIENTED_EDGE('',*,*,#479,.F.);
#237=ORIENTED_EDGE('',*,*,#480,.F.);
#238=ORIENTED_EDGE('',*,*,#481,.T.);
#239=ORIENTED_EDGE('',*,*,#475,.T.);
#240=ORIENTED_EDGE('',*,*,#482,.F.);
#241=ORIENTED_EDGE('',*,*,#483,.T.);
#242=ORIENTED_EDGE('',*,*,#484,.T.);
#243=ORIENTED_EDGE('',*,*,#485,.F.);
#244=ORIENTED_EDGE('',*,*,#486,.F.);
#245=ORIENTED_EDGE('',*,*,#462,.T.);
#246=ORIENTED_EDGE('',*,*,#466,.F.);
#247=ORIENTED_EDGE('',*,*,#470,.T.);
#248=ORIENTED_EDGE('',*,*,#487,.F.);
#249=ORIENTED_EDGE('',*,*,#488,.F.);
#250=ORIENTED_EDGE('',*,*,#489,.T.);
#251=ORIENTED_EDGE('',*,*,#490,.T.);
#252=ORIENTED_EDGE('',*,*,#491,.F.);
#253=ORIENTED_EDGE('',*,*,#492,.T.);
#254=ORIENTED_EDGE('',*,*,#493,.T.);
#255=ORIENTED_EDGE('',*,*,#494,.T.);
#256=ORIENTED_EDGE('',*,*,#495,.F.);
#257=ORIENTED_EDGE('',*,*,#496,.F.);
#258=ORIENTED_EDGE('',*,*,#497,.T.);
#259=ORIENTED_EDGE('',*,*,#485,.T.);
#260=ORIENTED_EDGE('',*,*,#498,.F.);
#261=ORIENTED_EDGE('',*,*,#499,.F.);
#262=ORIENTED_EDGE('',*,*,#500,.T.);
#263=ORIENTED_EDGE('',*,*,#501,.T.);
#264=ORIENTED_EDGE('',*,*,#502,.F.);
#265=ORIENTED_EDGE('',*,*,#503,.F.);
#266=ORIENTED_EDGE('',*,*,#504,.F.);
#267=ORIENTED_EDGE('',*,*,#476,.T.);
#268=ORIENTED_EDGE('',*,*,#505,.T.);
#269=ORIENTED_EDGE('',*,*,#506,.T.);
#270=ORIENTED_EDGE('',*,*,#507,.F.);
#271=ORIENTED_EDGE('',*,*,#477,.F.);
#272=ORIENTED_EDGE('',*,*,#504,.T.);
#273=ORIENTED_EDGE('',*,*,#508,.T.);
#274=ORIENTED_EDGE('',*,*,#509,.F.);
#275=ORIENTED_EDGE('',*,*,#478,.F.);
#276=ORIENTED_EDGE('',*,*,#507,.T.);
#277=ORIENTED_EDGE('',*,*,#510,.F.);
#278=ORIENTED_EDGE('',*,*,#505,.F.);
#279=ORIENTED_EDGE('',*,*,#479,.T.);
#280=ORIENTED_EDGE('',*,*,#509,.T.);
#281=ORIENTED_EDGE('',*,*,#511,.T.);
#282=ORIENTED_EDGE('',*,*,#512,.T.);
#283=ORIENTED_EDGE('',*,*,#513,.F.);
#284=ORIENTED_EDGE('',*,*,#514,.T.);
#285=ORIENTED_EDGE('',*,*,#503,.T.);
#286=ORIENTED_EDGE('',*,*,#510,.T.);
#287=ORIENTED_EDGE('',*,*,#508,.F.);
#288=ORIENTED_EDGE('',*,*,#506,.F.);
#289=ORIENTED_EDGE('',*,*,#515,.T.);
#290=ORIENTED_EDGE('',*,*,#516,.T.);
#291=ORIENTED_EDGE('',*,*,#517,.F.);
#292=ORIENTED_EDGE('',*,*,#518,.F.);
#293=ORIENTED_EDGE('',*,*,#483,.F.);
#294=ORIENTED_EDGE('',*,*,#519,.F.);
#295=ORIENTED_EDGE('',*,*,#488,.T.);
#296=ORIENTED_EDGE('',*,*,#520,.T.);
#297=ORIENTED_EDGE('',*,*,#519,.T.);
#298=ORIENTED_EDGE('',*,*,#521,.F.);
#299=ORIENTED_EDGE('',*,*,#522,.T.);
#300=ORIENTED_EDGE('',*,*,#523,.T.);
#301=ORIENTED_EDGE('',*,*,#524,.F.);
#302=ORIENTED_EDGE('',*,*,#489,.F.);
#303=ORIENTED_EDGE('',*,*,#480,.T.);
#304=ORIENTED_EDGE('',*,*,#525,.F.);
#305=ORIENTED_EDGE('',*,*,#490,.F.);
#306=ORIENTED_EDGE('',*,*,#524,.T.);
#307=ORIENTED_EDGE('',*,*,#525,.T.);
#308=ORIENTED_EDGE('',*,*,#526,.F.);
#309=ORIENTED_EDGE('',*,*,#527,.F.);
#310=ORIENTED_EDGE('',*,*,#528,.T.);
#311=ORIENTED_EDGE('',*,*,#520,.F.);
#312=ORIENTED_EDGE('',*,*,#491,.T.);
#313=ORIENTED_EDGE('',*,*,#486,.T.);
#314=ORIENTED_EDGE('',*,*,#497,.F.);
#315=ORIENTED_EDGE('',*,*,#529,.T.);
#316=ORIENTED_EDGE('',*,*,#530,.F.);
#317=ORIENTED_EDGE('',*,*,#526,.T.);
#318=ORIENTED_EDGE('',*,*,#484,.F.);
#319=ORIENTED_EDGE('',*,*,#528,.F.);
#320=ORIENTED_EDGE('',*,*,#531,.T.);
#321=ORIENTED_EDGE('',*,*,#532,.T.);
#322=ORIENTED_EDGE('',*,*,#498,.T.);
#323=ORIENTED_EDGE('',*,*,#527,.T.);
#324=ORIENTED_EDGE('',*,*,#530,.T.);
#325=ORIENTED_EDGE('',*,*,#533,.T.);
#326=ORIENTED_EDGE('',*,*,#531,.F.);
#327=ORIENTED_EDGE('',*,*,#529,.F.);
#328=ORIENTED_EDGE('',*,*,#496,.T.);
#329=ORIENTED_EDGE('',*,*,#532,.F.);
#330=ORIENTED_EDGE('',*,*,#533,.F.);
#331=ORIENTED_EDGE('',*,*,#493,.F.);
#332=ORIENTED_EDGE('',*,*,#534,.T.);
#333=ORIENTED_EDGE('',*,*,#513,.T.);
#334=ORIENTED_EDGE('',*,*,#535,.T.);
#335=ORIENTED_EDGE('',*,*,#511,.F.);
#336=ORIENTED_EDGE('',*,*,#536,.T.);
#337=ORIENTED_EDGE('',*,*,#495,.T.);
#338=ORIENTED_EDGE('',*,*,#537,.T.);
#339=ORIENTED_EDGE('',*,*,#482,.T.);
#340=ORIENTED_EDGE('',*,*,#474,.F.);
#341=ORIENTED_EDGE('',*,*,#538,.F.);
#342=ORIENTED_EDGE('',*,*,#539,.F.);
#343=ORIENTED_EDGE('',*,*,#521,.T.);
#344=ORIENTED_EDGE('',*,*,#481,.F.);
#345=ORIENTED_EDGE('',*,*,#523,.F.);
#346=ORIENTED_EDGE('',*,*,#540,.T.);
#347=ORIENTED_EDGE('',*,*,#541,.T.);
#348=ORIENTED_EDGE('',*,*,#472,.T.);
#349=ORIENTED_EDGE('',*,*,#522,.F.);
#350=ORIENTED_EDGE('',*,*,#539,.T.);
#351=ORIENTED_EDGE('',*,*,#542,.F.);
#352=ORIENTED_EDGE('',*,*,#540,.F.);
#353=ORIENTED_EDGE('',*,*,#541,.F.);
#354=ORIENTED_EDGE('',*,*,#542,.T.);
#355=ORIENTED_EDGE('',*,*,#538,.T.);
#356=ORIENTED_EDGE('',*,*,#473,.F.);
#357=ORIENTED_EDGE('',*,*,#534,.F.);
#358=ORIENTED_EDGE('',*,*,#492,.F.);
#359=ORIENTED_EDGE('',*,*,#536,.F.);
#360=ORIENTED_EDGE('',*,*,#514,.F.);
#361=ORIENTED_EDGE('',*,*,#537,.F.);
#362=ORIENTED_EDGE('',*,*,#494,.F.);
#363=ORIENTED_EDGE('',*,*,#535,.F.);
#364=ORIENTED_EDGE('',*,*,#512,.F.);
#365=ORIENTED_EDGE('',*,*,#543,.F.);
#366=ORIENTED_EDGE('',*,*,#487,.T.);
#367=ORIENTED_EDGE('',*,*,#544,.F.);
#368=ORIENTED_EDGE('',*,*,#543,.T.);
#369=ORIENTED_EDGE('',*,*,#545,.F.);
#370=ORIENTED_EDGE('',*,*,#544,.T.);
#371=ORIENTED_EDGE('',*,*,#545,.T.);
#372=ORIENTED_EDGE('',*,*,#546,.T.);
#373=ORIENTED_EDGE('',*,*,#499,.T.);
#374=ORIENTED_EDGE('',*,*,#547,.F.);
#375=ORIENTED_EDGE('',*,*,#515,.F.);
#376=ORIENTED_EDGE('',*,*,#547,.T.);
#377=ORIENTED_EDGE('',*,*,#502,.T.);
#378=ORIENTED_EDGE('',*,*,#548,.F.);
#379=ORIENTED_EDGE('',*,*,#516,.F.);
#380=ORIENTED_EDGE('',*,*,#518,.T.);
#381=ORIENTED_EDGE('',*,*,#549,.T.);
#382=ORIENTED_EDGE('',*,*,#500,.F.);
#383=ORIENTED_EDGE('',*,*,#546,.F.);
#384=ORIENTED_EDGE('',*,*,#517,.T.);
#385=ORIENTED_EDGE('',*,*,#548,.T.);
#386=ORIENTED_EDGE('',*,*,#501,.F.);
#387=ORIENTED_EDGE('',*,*,#549,.F.);
#388=EDGE_CURVE('',#550,#551,#662,.T.);
#389=EDGE_CURVE('',#550,#552,#663,.T.);
#390=EDGE_CURVE('',#552,#553,#664,.T.);
#391=EDGE_CURVE('',#554,#553,#665,.T.);
#392=EDGE_CURVE('',#554,#555,#666,.T.);
#393=EDGE_CURVE('',#555,#556,#667,.T.);
#394=EDGE_CURVE('',#557,#556,#668,.T.);
#395=EDGE_CURVE('',#551,#557,#669,.T.);
#396=EDGE_CURVE('',#558,#559,#670,.T.);
#397=EDGE_CURVE('',#558,#560,#671,.T.);
#398=EDGE_CURVE('',#560,#561,#672,.T.);
#399=EDGE_CURVE('',#561,#562,#673,.T.);
#400=EDGE_CURVE('',#563,#562,#674,.T.);
#401=EDGE_CURVE('',#564,#563,#675,.T.);
#402=EDGE_CURVE('',#564,#565,#676,.T.);
#403=EDGE_CURVE('',#559,#565,#677,.T.);
#404=EDGE_CURVE('',#557,#561,#678,.T.);
#405=EDGE_CURVE('',#551,#560,#679,.T.);
#406=EDGE_CURVE('',#566,#567,#680,.T.);
#407=EDGE_CURVE('',#566,#568,#681,.T.);
#408=EDGE_CURVE('',#568,#569,#682,.T.);
#409=EDGE_CURVE('',#567,#569,#683,.T.);
#410=EDGE_CURVE('',#554,#564,#684,.T.);
#411=EDGE_CURVE('',#553,#565,#685,.T.);
#412=EDGE_CURVE('',#570,#571,#686,.T.);
#413=EDGE_CURVE('',#570,#572,#687,.T.);
#414=EDGE_CURVE('',#573,#572,#688,.T.);
#415=EDGE_CURVE('',#571,#573,#689,.T.);
#416=EDGE_CURVE('',#574,#575,#690,.T.);
#417=EDGE_CURVE('',#574,#576,#691,.T.);
#418=EDGE_CURVE('',#576,#577,#692,.T.);
#419=EDGE_CURVE('',#575,#577,#693,.T.);
#420=EDGE_CURVE('',#578,#579,#694,.T.);
#421=EDGE_CURVE('',#578,#580,#695,.T.);
#422=EDGE_CURVE('',#580,#581,#696,.T.);
#423=EDGE_CURVE('',#579,#581,#697,.T.);
#424=EDGE_CURVE('',#582,#583,#698,.T.);
#425=EDGE_CURVE('',#574,#582,#699,.T.);
#426=EDGE_CURVE('',#575,#583,#700,.T.);
#427=EDGE_CURVE('',#582,#584,#701,.T.);
#428=EDGE_CURVE('',#576,#584,#702,.T.);
#429=EDGE_CURVE('',#584,#585,#703,.T.);
#430=EDGE_CURVE('',#577,#585,#704,.T.);
#431=EDGE_CURVE('',#583,#585,#705,.T.);
#432=EDGE_CURVE('',#586,#587,#706,.T.);
#433=EDGE_CURVE('',#588,#586,#707,.T.);
#434=EDGE_CURVE('',#588,#589,#708,.T.);
#435=EDGE_CURVE('',#589,#587,#709,.T.);
#436=EDGE_CURVE('',#556,#562,#710,.T.);
#437=EDGE_CURVE('',#555,#563,#711,.T.);
#438=EDGE_CURVE('',#590,#591,#712,.T.);
#439=EDGE_CURVE('',#592,#591,#713,.T.);
#440=EDGE_CURVE('',#592,#593,#714,.T.);
#441=EDGE_CURVE('',#593,#590,#715,.T.);
#442=EDGE_CURVE('',#594,#558,#36,.T.);
#443=EDGE_CURVE('',#580,#594,#716,.T.);
#444=EDGE_CURVE('',#578,#595,#717,.T.);
#445=EDGE_CURVE('',#595,#550,#37,.F.);
#446=EDGE_CURVE('',#595,#596,#718,.T.);
#447=EDGE_CURVE('',#579,#596,#719,.T.);
#448=EDGE_CURVE('',#596,#552,#38,.T.);
#449=EDGE_CURVE('',#581,#597,#720,.T.);
#450=EDGE_CURVE('',#597,#559,#39,.T.);
#451=EDGE_CURVE('',#594,#597,#721,.T.);
#452=EDGE_CURVE('',#570,#592,#722,.T.);
#453=EDGE_CURVE('',#572,#591,#723,.T.);
#454=EDGE_CURVE('',#573,#590,#724,.T.);
#455=EDGE_CURVE('',#571,#593,#725,.T.);
#456=EDGE_CURVE('',#566,#588,#726,.T.);
#457=EDGE_CURVE('',#568,#586,#727,.T.);
#458=EDGE_CURVE('',#569,#587,#728,.T.);
#459=EDGE_CURVE('',#567,#589,#729,.T.);
#460=EDGE_CURVE('',#598,#598,#40,.T.);
#461=EDGE_CURVE('',#599,#599,#41,.T.);
#462=EDGE_CURVE('',#600,#600,#42,.T.);
#463=EDGE_CURVE('',#601,#601,#43,.T.);
#464=EDGE_CURVE('',#602,#602,#44,.T.);
#465=EDGE_CURVE('',#603,#603,#45,.T.);
#466=EDGE_CURVE('',#604,#604,#46,.T.);
#467=EDGE_CURVE('',#605,#605,#47,.T.);
#468=EDGE_CURVE('',#606,#606,#48,.T.);
#469=EDGE_CURVE('',#607,#607,#49,.T.);
#470=EDGE_CURVE('',#608,#608,#50,.T.);
#471=EDGE_CURVE('',#609,#609,#51,.T.);
#472=EDGE_CURVE('',#610,#611,#730,.T.);
#473=EDGE_CURVE('',#610,#612,#731,.T.);
#474=EDGE_CURVE('',#612,#613,#732,.T.);
#475=EDGE_CURVE('',#611,#613,#733,.T.);
#476=EDGE_CURVE('',#614,#615,#734,.T.);
#477=EDGE_CURVE('',#614,#616,#735,.T.);
#478=EDGE_CURVE('',#616,#617,#736,.T.);
#479=EDGE_CURVE('',#615,#617,#737,.T.);
#480=EDGE_CURVE('',#618,#619,#738,.T.);
#481=EDGE_CURVE('',#618,#611,#739,.T.);
#482=EDGE_CURVE('',#620,#613,#740,.T.);
#483=EDGE_CURVE('',#620,#621,#741,.T.);
#484=EDGE_CURVE('',#621,#622,#742,.T.);
#485=EDGE_CURVE('',#623,#622,#743,.T.);
#486=EDGE_CURVE('',#619,#623,#744,.T.);
#487=EDGE_CURVE('',#624,#624,#52,.T.);
#488=EDGE_CURVE('',#625,#626,#745,.T.);
#489=EDGE_CURVE('',#625,#627,#746,.T.);
#490=EDGE_CURVE('',#627,#628,#747,.T.);
#491=EDGE_CURVE('',#626,#628,#748,.T.);
#492=EDGE_CURVE('',#629,#630,#53,.F.);
#493=EDGE_CURVE('',#630,#631,#749,.T.);
#494=EDGE_CURVE('',#631,#632,#54,.F.);
#495=EDGE_CURVE('',#629,#632,#750,.T.);
#496=EDGE_CURVE('',#633,#634,#751,.T.);
#497=EDGE_CURVE('',#633,#623,#752,.T.);
#498=EDGE_CURVE('',#634,#622,#753,.T.);
#499=EDGE_CURVE('',#635,#636,#754,.T.);
#500=EDGE_CURVE('',#635,#637,#755,.T.);
#501=EDGE_CURVE('',#637,#638,#756,.T.);
#502=EDGE_CURVE('',#636,#638,#757,.T.);
#503=EDGE_CURVE('',#639,#640,#758,.T.);
#504=EDGE_CURVE('',#614,#639,#759,.T.);
#505=EDGE_CURVE('',#615,#640,#760,.T.);
#506=EDGE_CURVE('',#639,#641,#761,.T.);
#507=EDGE_CURVE('',#616,#641,#762,.T.);
#508=EDGE_CURVE('',#641,#642,#763,.T.);
#509=EDGE_CURVE('',#617,#642,#764,.T.);
#510=EDGE_CURVE('',#640,#642,#765,.T.);
#511=EDGE_CURVE('',#643,#644,#766,.T.);
#512=EDGE_CURVE('',#644,#645,#55,.T.);
#513=EDGE_CURVE('',#646,#645,#767,.T.);
#514=EDGE_CURVE('',#646,#643,#56,.T.);
#515=EDGE_CURVE('',#647,#648,#768,.T.);
#516=EDGE_CURVE('',#648,#649,#769,.T.);
#517=EDGE_CURVE('',#650,#649,#770,.T.);
#518=EDGE_CURVE('',#647,#650,#771,.T.);
#519=EDGE_CURVE('',#625,#620,#772,.T.);
#520=EDGE_CURVE('',#626,#621,#773,.T.);
#521=EDGE_CURVE('',#651,#620,#774,.T.);
#522=EDGE_CURVE('',#651,#652,#775,.T.);
#523=EDGE_CURVE('',#652,#618,#776,.T.);
#524=EDGE_CURVE('',#627,#618,#777,.T.);
#525=EDGE_CURVE('',#628,#619,#778,.T.);
#526=EDGE_CURVE('',#653,#619,#779,.T.);
#527=EDGE_CURVE('',#654,#653,#780,.T.);
#528=EDGE_CURVE('',#654,#621,#781,.T.);
#529=EDGE_CURVE('',#633,#655,#57,.F.);
#530=EDGE_CURVE('',#653,#655,#782,.T.);
#531=EDGE_CURVE('',#654,#656,#783,.T.);
#532=EDGE_CURVE('',#656,#634,#58,.T.);
#533=EDGE_CURVE('',#655,#656,#784,.T.);
#534=EDGE_CURVE('',#630,#646,#785,.T.);
#535=EDGE_CURVE('',#645,#631,#786,.F.);
#536=EDGE_CURVE('',#643,#629,#787,.F.);
#537=EDGE_CURVE('',#632,#644,#788,.T.);
#538=EDGE_CURVE('',#657,#612,#59,.T.);
#539=EDGE_CURVE('',#651,#657,#789,.T.);
#540=EDGE_CURVE('',#652,#658,#790,.T.);
#541=EDGE_CURVE('',#658,#610,#60,.T.);
#542=EDGE_CURVE('',#658,#657,#791,.T.);
#543=EDGE_CURVE('',#659,#659,#61,.T.);
#544=EDGE_CURVE('',#660,#660,#62,.T.);
#545=EDGE_CURVE('',#661,#661,#63,.T.);
#546=EDGE_CURVE('',#647,#635,#792,.T.);
#547=EDGE_CURVE('',#648,#636,#793,.T.);
#548=EDGE_CURVE('',#649,#638,#794,.T.);
#549=EDGE_CURVE('',#650,#637,#795,.T.);
#550=VERTEX_POINT('',#1722);
#551=VERTEX_POINT('',#1723);
#552=VERTEX_POINT('',#1725);
#553=VERTEX_POINT('',#1727);
#554=VERTEX_POINT('',#1729);
#555=VERTEX_POINT('',#1731);
#556=VERTEX_POINT('',#1733);
#557=VERTEX_POINT('',#1735);
#558=VERTEX_POINT('',#1739);
#559=VERTEX_POINT('',#1740);
#560=VERTEX_POINT('',#1742);
#561=VERTEX_POINT('',#1744);
#562=VERTEX_POINT('',#1746);
#563=VERTEX_POINT('',#1748);
#564=VERTEX_POINT('',#1750);
#565=VERTEX_POINT('',#1752);
#566=VERTEX_POINT('',#1758);
#567=VERTEX_POINT('',#1759);
#568=VERTEX_POINT('',#1761);
#569=VERTEX_POINT('',#1763);
#570=VERTEX_POINT('',#1769);
#571=VERTEX_POINT('',#1770);
#572=VERTEX_POINT('',#1772);
#573=VERTEX_POINT('',#1774);
#574=VERTEX_POINT('',#1778);
#575=VERTEX_POINT('',#1779);
#576=VERTEX_POINT('',#1781);
#577=VERTEX_POINT('',#1783);
#578=VERTEX_POINT('',#1786);
#579=VERTEX_POINT('',#1787);
#580=VERTEX_POINT('',#1789);
#581=VERTEX_POINT('',#1791);
#582=VERTEX_POINT('',#1795);
#583=VERTEX_POINT('',#1796);
#584=VERTEX_POINT('',#1801);
#585=VERTEX_POINT('',#1805);
#586=VERTEX_POINT('',#1811);
#587=VERTEX_POINT('',#1812);
#588=VERTEX_POINT('',#1814);
#589=VERTEX_POINT('',#1816);
#590=VERTEX_POINT('',#1821);
#591=VERTEX_POINT('',#1822);
#592=VERTEX_POINT('',#1824);
#593=VERTEX_POINT('',#1826);
#594=VERTEX_POINT('',#1830);
#595=VERTEX_POINT('',#1833);
#596=VERTEX_POINT('',#1837);
#597=VERTEX_POINT('',#1842);
#598=VERTEX_POINT('',#1869);
#599=VERTEX_POINT('',#1871);
#600=VERTEX_POINT('',#1874);
#601=VERTEX_POINT('',#1877);
#602=VERTEX_POINT('',#1879);
#603=VERTEX_POINT('',#1882);
#604=VERTEX_POINT('',#1886);
#605=VERTEX_POINT('',#1889);
#606=VERTEX_POINT('',#1893);
#607=VERTEX_POINT('',#1895);
#608=VERTEX_POINT('',#1898);
#609=VERTEX_POINT('',#1901);
#610=VERTEX_POINT('',#1905);
#611=VERTEX_POINT('',#1906);
#612=VERTEX_POINT('',#1908);
#613=VERTEX_POINT('',#1910);
#614=VERTEX_POINT('',#1914);
#615=VERTEX_POINT('',#1915);
#616=VERTEX_POINT('',#1917);
#617=VERTEX_POINT('',#1919);
#618=VERTEX_POINT('',#1922);
#619=VERTEX_POINT('',#1923);
#620=VERTEX_POINT('',#1926);
#621=VERTEX_POINT('',#1928);
#622=VERTEX_POINT('',#1930);
#623=VERTEX_POINT('',#1932);
#624=VERTEX_POINT('',#1936);
#625=VERTEX_POINT('',#1938);
#626=VERTEX_POINT('',#1939);
#627=VERTEX_POINT('',#1941);
#628=VERTEX_POINT('',#1943);
#629=VERTEX_POINT('',#1946);
#630=VERTEX_POINT('',#1947);
#631=VERTEX_POINT('',#1949);
#632=VERTEX_POINT('',#1951);
#633=VERTEX_POINT('',#1955);
#634=VERTEX_POINT('',#1956);
#635=VERTEX_POINT('',#1961);
#636=VERTEX_POINT('',#1962);
#637=VERTEX_POINT('',#1964);
#638=VERTEX_POINT('',#1966);
#639=VERTEX_POINT('',#1969);
#640=VERTEX_POINT('',#1970);
#641=VERTEX_POINT('',#1975);
#642=VERTEX_POINT('',#1979);
#643=VERTEX_POINT('',#1985);
#644=VERTEX_POINT('',#1986);
#645=VERTEX_POINT('',#1988);
#646=VERTEX_POINT('',#1990);
#647=VERTEX_POINT('',#1994);
#648=VERTEX_POINT('',#1995);
#649=VERTEX_POINT('',#1997);
#650=VERTEX_POINT('',#1999);
#651=VERTEX_POINT('',#2005);
#652=VERTEX_POINT('',#2007);
#653=VERTEX_POINT('',#2014);
#654=VERTEX_POINT('',#2016);
#655=VERTEX_POINT('',#2020);
#656=VERTEX_POINT('',#2024);
#657=VERTEX_POINT('',#2037);
#658=VERTEX_POINT('',#2041);
#659=VERTEX_POINT('',#2050);
#660=VERTEX_POINT('',#2053);
#661=VERTEX_POINT('',#2056);
#662=LINE('',#1721,#796);
#663=LINE('',#1724,#797);
#664=LINE('',#1726,#798);
#665=LINE('',#1728,#799);
#666=LINE('',#1730,#800);
#667=LINE('',#1732,#801);
#668=LINE('',#1734,#802);
#669=LINE('',#1736,#803);
#670=LINE('',#1738,#804);
#671=LINE('',#1741,#805);
#672=LINE('',#1743,#806);
#673=LINE('',#1745,#807);
#674=LINE('',#1747,#808);
#675=LINE('',#1749,#809);
#676=LINE('',#1751,#810);
#677=LINE('',#1753,#811);
#678=LINE('',#1755,#812);
#679=LINE('',#1756,#813);
#680=LINE('',#1757,#814);
#681=LINE('',#1760,#815);
#682=LINE('',#1762,#816);
#683=LINE('',#1764,#817);
#684=LINE('',#1766,#818);
#685=LINE('',#1767,#819);
#686=LINE('',#1768,#820);
#687=LINE('',#1771,#821);
#688=LINE('',#1773,#822);
#689=LINE('',#1775,#823);
#690=LINE('',#1777,#824);
#691=LINE('',#1780,#825);
#692=LINE('',#1782,#826);
#693=LINE('',#1784,#827);
#694=LINE('',#1785,#828);
#695=LINE('',#1788,#829);
#696=LINE('',#1790,#830);
#697=LINE('',#1792,#831);
#698=LINE('',#1794,#832);
#699=LINE('',#1797,#833);
#700=LINE('',#1798,#834);
#701=LINE('',#1800,#835);
#702=LINE('',#1802,#836);
#703=LINE('',#1804,#837);
#704=LINE('',#1806,#838);
#705=LINE('',#1808,#839);
#706=LINE('',#1810,#840);
#707=LINE('',#1813,#841);
#708=LINE('',#1815,#842);
#709=LINE('',#1817,#843);
#710=LINE('',#1818,#844);
#711=LINE('',#1819,#845);
#712=LINE('',#1820,#846);
#713=LINE('',#1823,#847);
#714=LINE('',#1825,#848);
#715=LINE('',#1827,#849);
#716=LINE('',#1831,#850);
#717=LINE('',#1832,#851);
#718=LINE('',#1836,#852);
#719=LINE('',#1838,#853);
#720=LINE('',#1841,#854);
#721=LINE('',#1845,#855);
#722=LINE('',#1847,#856);
#723=LINE('',#1848,#857);
#724=LINE('',#1850,#858);
#725=LINE('',#1852,#859);
#726=LINE('',#1857,#860);
#727=LINE('',#1858,#861);
#728=LINE('',#1860,#862);
#729=LINE('',#1862,#863);
#730=LINE('',#1904,#864);
#731=LINE('',#1907,#865);
#732=LINE('',#1909,#866);
#733=LINE('',#1911,#867);
#734=LINE('',#1913,#868);
#735=LINE('',#1916,#869);
#736=LINE('',#1918,#870);
#737=LINE('',#1920,#871);
#738=LINE('',#1921,#872);
#739=LINE('',#1924,#873);
#740=LINE('',#1925,#874);
#741=LINE('',#1927,#875);
#742=LINE('',#1929,#876);
#743=LINE('',#1931,#877);
#744=LINE('',#1933,#878);
#745=LINE('',#1937,#879);
#746=LINE('',#1940,#880);
#747=LINE('',#1942,#881);
#748=LINE('',#1944,#882);
#749=LINE('',#1948,#883);
#750=LINE('',#1952,#884);
#751=LINE('',#1954,#885);
#752=LINE('',#1957,#886);
#753=LINE('',#1958,#887);
#754=LINE('',#1960,#888);
#755=LINE('',#1963,#889);
#756=LINE('',#1965,#890);
#757=LINE('',#1967,#891);
#758=LINE('',#1968,#892);
#759=LINE('',#1971,#893);
#760=LINE('',#1972,#894);
#761=LINE('',#1974,#895);
#762=LINE('',#1976,#896);
#763=LINE('',#1978,#897);
#764=LINE('',#1980,#898);
#765=LINE('',#1982,#899);
#766=LINE('',#1984,#900);
#767=LINE('',#1989,#901);
#768=LINE('',#1993,#902);
#769=LINE('',#1996,#903);
#770=LINE('',#1998,#904);
#771=LINE('',#2000,#905);
#772=LINE('',#2001,#906);
#773=LINE('',#2002,#907);
#774=LINE('',#2004,#908);
#775=LINE('',#2006,#909);
#776=LINE('',#2008,#910);
#777=LINE('',#2009,#911);
#778=LINE('',#2011,#912);
#779=LINE('',#2013,#913);
#780=LINE('',#2015,#914);
#781=LINE('',#2017,#915);
#782=LINE('',#2021,#916);
#783=LINE('',#2023,#917);
#784=LINE('',#2027,#918);
#785=LINE('',#2030,#919);
#786=LINE('',#2031,#920);
#787=LINE('',#2033,#921);
#788=LINE('',#2034,#922);
#789=LINE('',#2038,#923);
#790=LINE('',#2040,#924);
#791=LINE('',#2044,#925);
#792=LINE('',#2059,#926);
#793=LINE('',#2060,#927);
#794=LINE('',#2062,#928);
#795=LINE('',#2064,#929);
#796=VECTOR('',#1385,1.);
#797=VECTOR('',#1386,1.);
#798=VECTOR('',#1387,1.);
#799=VECTOR('',#1388,1.);
#800=VECTOR('',#1389,1.);
#801=VECTOR('',#1390,1.);
#802=VECTOR('',#1391,1.);
#803=VECTOR('',#1392,1.);
#804=VECTOR('',#1395,1.);
#805=VECTOR('',#1396,1.);
#806=VECTOR('',#1397,1.);
#807=VECTOR('',#1398,1.);
#808=VECTOR('',#1399,1.);
#809=VECTOR('',#1400,1.);
#810=VECTOR('',#1401,1.);
#811=VECTOR('',#1402,1.);
#812=VECTOR('',#1405,1.);
#813=VECTOR('',#1406,1.);
#814=VECTOR('',#1407,1.);
#815=VECTOR('',#1408,1.);
#816=VECTOR('',#1409,1.);
#817=VECTOR('',#1410,1.);
#818=VECTOR('',#1413,1.);
#819=VECTOR('',#1414,1.);
#820=VECTOR('',#1415,1.);
#821=VECTOR('',#1416,1.);
#822=VECTOR('',#1417,1.);
#823=VECTOR('',#1418,1.);
#824=VECTOR('',#1421,1.);
#825=VECTOR('',#1422,1.);
#826=VECTOR('',#1423,1.);
#827=VECTOR('',#1424,1.);
#828=VECTOR('',#1425,1.);
#829=VECTOR('',#1426,1.);
#830=VECTOR('',#1427,1.);
#831=VECTOR('',#1428,1.);
#832=VECTOR('',#1431,1.);
#833=VECTOR('',#1432,1.);
#834=VECTOR('',#1433,1.);
#835=VECTOR('',#1436,1.);
#836=VECTOR('',#1437,1.);
#837=VECTOR('',#1440,1.);
#838=VECTOR('',#1441,1.);
#839=VECTOR('',#1444,1.);
#840=VECTOR('',#1447,1.);
#841=VECTOR('',#1448,1.);
#842=VECTOR('',#1449,1.);
#843=VECTOR('',#1450,1.);
#844=VECTOR('',#1451,1.);
#845=VECTOR('',#1452,1.);
#846=VECTOR('',#1453,1.);
#847=VECTOR('',#1454,1.);
#848=VECTOR('',#1455,1.);
#849=VECTOR('',#1456,1.);
#850=VECTOR('',#1461,1.);
#851=VECTOR('',#1462,1.);
#852=VECTOR('',#1467,1.);
#853=VECTOR('',#1468,1.);
#854=VECTOR('',#1473,1.);
#855=VECTOR('',#1478,1.);
#856=VECTOR('',#1481,1.);
#857=VECTOR('',#1482,1.);
#858=VECTOR('',#1485,1.);
#859=VECTOR('',#1488,1.);
#860=VECTOR('',#1497,1.);
#861=VECTOR('',#1498,1.);
#862=VECTOR('',#1501,1.);
#863=VECTOR('',#1504,1.);
#864=VECTOR('',#1563,1.);
#865=VECTOR('',#1564,1.);
#866=VECTOR('',#1565,1.);
#867=VECTOR('',#1566,1.);
#868=VECTOR('',#1569,1.);
#869=VECTOR('',#1570,1.);
#870=VECTOR('',#1571,1.);
#871=VECTOR('',#1572,1.);
#872=VECTOR('',#1573,1.);
#873=VECTOR('',#1574,1.);
#874=VECTOR('',#1575,1.);
#875=VECTOR('',#1576,1.);
#876=VECTOR('',#1577,1.);
#877=VECTOR('',#1578,1.);
#878=VECTOR('',#1579,1.);
#879=VECTOR('',#1584,1.);
#880=VECTOR('',#1585,1.);
#881=VECTOR('',#1586,1.);
#882=VECTOR('',#1587,1.);
#883=VECTOR('',#1590,1.);
#884=VECTOR('',#1593,1.);
#885=VECTOR('',#1596,1.);
#886=VECTOR('',#1597,1.);
#887=VECTOR('',#1598,1.);
#888=VECTOR('',#1601,1.);
#889=VECTOR('',#1602,1.);
#890=VECTOR('',#1603,1.);
#891=VECTOR('',#1604,1.);
#892=VECTOR('',#1605,1.);
#893=VECTOR('',#1606,1.);
#894=VECTOR('',#1607,1.);
#895=VECTOR('',#1610,1.);
#896=VECTOR('',#1611,1.);
#897=VECTOR('',#1614,1.);
#898=VECTOR('',#1615,1.);
#899=VECTOR('',#1618,1.);
#900=VECTOR('',#1621,1.);
#901=VECTOR('',#1624,1.);
#902=VECTOR('',#1629,1.);
#903=VECTOR('',#1630,1.);
#904=VECTOR('',#1631,1.);
#905=VECTOR('',#1632,1.);
#906=VECTOR('',#1633,1.);
#907=VECTOR('',#1634,1.);
#908=VECTOR('',#1637,1.);
#909=VECTOR('',#1638,1.);
#910=VECTOR('',#1639,1.);
#911=VECTOR('',#1640,1.);
#912=VECTOR('',#1643,1.);
#913=VECTOR('',#1646,1.);
#914=VECTOR('',#1647,1.);
#915=VECTOR('',#1648,1.);
#916=VECTOR('',#1653,1.);
#917=VECTOR('',#1656,1.);
#918=VECTOR('',#1661,1.);
#919=VECTOR('',#1666,1.);
#920=VECTOR('',#1667,1.);
#921=VECTOR('',#1670,1.);
#922=VECTOR('',#1671,1.);
#923=VECTOR('',#1676,1.);
#924=VECTOR('',#1679,1.);
#925=VECTOR('',#1684,1.);
#926=VECTOR('',#1707,1.);
#927=VECTOR('',#1708,1.);
#928=VECTOR('',#1711,1.);
#929=VECTOR('',#1714,1.);
#930=EDGE_LOOP('',(#64,#65,#66,#67,#68,#69,#70,#71));
#931=EDGE_LOOP('',(#72,#73,#74,#75,#76,#77,#78,#79));
#932=EDGE_LOOP('',(#80,#81,#82,#83));
#933=EDGE_LOOP('',(#84,#85,#86,#87));
#934=EDGE_LOOP('',(#88,#89,#90,#91));
#935=EDGE_LOOP('',(#92,#93,#94,#95));
#936=EDGE_LOOP('',(#96,#97,#98,#99));
#937=EDGE_LOOP('',(#100,#101,#102,#103));
#938=EDGE_LOOP('',(#104,#105,#106,#107));
#939=EDGE_LOOP('',(#108,#109,#110,#111));
#940=EDGE_LOOP('',(#112,#113,#114,#115));
#941=EDGE_LOOP('',(#116,#117,#118,#119));
#942=EDGE_LOOP('',(#120,#121,#122,#123));
#943=EDGE_LOOP('',(#124,#125,#126,#127));
#944=EDGE_LOOP('',(#128,#129,#130,#131));
#945=EDGE_LOOP('',(#132,#133,#134,#135));
#946=EDGE_LOOP('',(#136,#137,#138,#139,#140,#141,#142,#143));
#947=EDGE_LOOP('',(#144,#145,#146,#147));
#948=EDGE_LOOP('',(#148,#149,#150,#151,#152,#153,#154,#155));
#949=EDGE_LOOP('',(#156,#157,#158,#159));
#950=EDGE_LOOP('',(#160,#161,#162,#163));
#951=EDGE_LOOP('',(#164,#165,#166,#167));
#952=EDGE_LOOP('',(#168,#169,#170,#171));
#953=EDGE_LOOP('',(#172,#173,#174,#175));
#954=EDGE_LOOP('',(#176,#177,#178,#179));
#955=EDGE_LOOP('',(#180,#181,#182,#183));
#956=EDGE_LOOP('',(#184,#185,#186,#187));
#957=EDGE_LOOP('',(#188,#189,#190,#191));
#958=EDGE_LOOP('',(#192,#193,#194,#195));
#959=EDGE_LOOP('',(#196,#197,#198,#199));
#960=EDGE_LOOP('',(#200,#201,#202,#203));
#961=EDGE_LOOP('',(#204,#205,#206,#207));
#962=EDGE_LOOP('',(#208));
#963=EDGE_LOOP('',(#209));
#964=EDGE_LOOP('',(#210));
#965=EDGE_LOOP('',(#211));
#966=EDGE_LOOP('',(#212));
#967=EDGE_LOOP('',(#213));
#968=EDGE_LOOP('',(#214));
#969=EDGE_LOOP('',(#215));
#970=EDGE_LOOP('',(#216));
#971=EDGE_LOOP('',(#217));
#972=EDGE_LOOP('',(#218));
#973=EDGE_LOOP('',(#219));
#974=EDGE_LOOP('',(#220));
#975=EDGE_LOOP('',(#221));
#976=EDGE_LOOP('',(#222));
#977=EDGE_LOOP('',(#223));
#978=EDGE_LOOP('',(#224));
#979=EDGE_LOOP('',(#225));
#980=EDGE_LOOP('',(#226));
#981=EDGE_LOOP('',(#227));
#982=EDGE_LOOP('',(#228));
#983=EDGE_LOOP('',(#229,#230,#231,#232));
#984=EDGE_LOOP('',(#233,#234,#235,#236));
#985=EDGE_LOOP('',(#237,#238,#239,#240,#241,#242,#243,#244));
#986=EDGE_LOOP('',(#245));
#987=EDGE_LOOP('',(#246));
#988=EDGE_LOOP('',(#247));
#989=EDGE_LOOP('',(#248));
#990=EDGE_LOOP('',(#249,#250,#251,#252));
#991=EDGE_LOOP('',(#253,#254,#255,#256));
#992=EDGE_LOOP('',(#257,#258,#259,#260));
#993=EDGE_LOOP('',(#261,#262,#263,#264));
#994=EDGE_LOOP('',(#265,#266,#267,#268));
#995=EDGE_LOOP('',(#269,#270,#271,#272));
#996=EDGE_LOOP('',(#273,#274,#275,#276));
#997=EDGE_LOOP('',(#277,#278,#279,#280));
#998=EDGE_LOOP('',(#281,#282,#283,#284));
#999=EDGE_LOOP('',(#285,#286,#287,#288));
#1000=EDGE_LOOP('',(#289,#290,#291,#292));
#1001=EDGE_LOOP('',(#293,#294,#295,#296));
#1002=EDGE_LOOP('',(#297,#298,#299,#300,#301,#302));
#1003=EDGE_LOOP('',(#303,#304,#305,#306));
#1004=EDGE_LOOP('',(#307,#308,#309,#310,#311,#312));
#1005=EDGE_LOOP('',(#313,#314,#315,#316,#317));
#1006=EDGE_LOOP('',(#318,#319,#320,#321,#322));
#1007=EDGE_LOOP('',(#323,#324,#325,#326));
#1008=EDGE_LOOP('',(#327,#328,#329,#330));
#1009=EDGE_LOOP('',(#331,#332,#333,#334));
#1010=EDGE_LOOP('',(#335,#336,#337,#338));
#1011=EDGE_LOOP('',(#339,#340,#341,#342,#343));
#1012=EDGE_LOOP('',(#344,#345,#346,#347,#348));
#1013=EDGE_LOOP('',(#349,#350,#351,#352));
#1014=EDGE_LOOP('',(#353,#354,#355,#356));
#1015=EDGE_LOOP('',(#357,#358,#359,#360));
#1016=EDGE_LOOP('',(#361,#362,#363,#364));
#1017=EDGE_LOOP('',(#365));
#1018=EDGE_LOOP('',(#366));
#1019=EDGE_LOOP('',(#367));
#1020=EDGE_LOOP('',(#368));
#1021=EDGE_LOOP('',(#369));
#1022=EDGE_LOOP('',(#370));
#1023=EDGE_LOOP('',(#371));
#1024=EDGE_LOOP('',(#372,#373,#374,#375));
#1025=EDGE_LOOP('',(#376,#377,#378,#379));
#1026=EDGE_LOOP('',(#380,#381,#382,#383));
#1027=EDGE_LOOP('',(#384,#385,#386,#387));
#1028=FACE_BOUND('',#930,.T.);
#1029=FACE_BOUND('',#931,.T.);
#1030=FACE_BOUND('',#932,.T.);
#1031=FACE_BOUND('',#933,.T.);
#1032=FACE_BOUND('',#934,.T.);
#1033=FACE_BOUND('',#935,.T.);
#1034=FACE_BOUND('',#936,.T.);
#1035=FACE_BOUND('',#937,.T.);
#1036=FACE_BOUND('',#938,.T.);
#1037=FACE_BOUND('',#939,.T.);
#1038=FACE_BOUND('',#940,.T.);
#1039=FACE_BOUND('',#941,.T.);
#1040=FACE_BOUND('',#942,.T.);
#1041=FACE_BOUND('',#943,.T.);
#1042=FACE_BOUND('',#944,.T.);
#1043=FACE_BOUND('',#945,.T.);
#1044=FACE_BOUND('',#946,.T.);
#1045=FACE_BOUND('',#947,.T.);
#1046=FACE_BOUND('',#948,.T.);
#1047=FACE_BOUND('',#949,.T.);
#1048=FACE_BOUND('',#950,.T.);
#1049=FACE_BOUND('',#951,.T.);
#1050=FACE_BOUND('',#952,.T.);
#1051=FACE_BOUND('',#953,.T.);
#1052=FACE_BOUND('',#954,.T.);
#1053=FACE_BOUND('',#955,.T.);
#1054=FACE_BOUND('',#956,.T.);
#1055=FACE_BOUND('',#957,.T.);
#1056=FACE_BOUND('',#958,.T.);
#1057=FACE_BOUND('',#959,.T.);
#1058=FACE_BOUND('',#960,.T.);
#1059=FACE_BOUND('',#961,.T.);
#1060=FACE_BOUND('',#962,.T.);
#1061=FACE_BOUND('',#963,.T.);
#1062=FACE_BOUND('',#964,.T.);
#1063=FACE_BOUND('',#965,.T.);
#1064=FACE_BOUND('',#966,.T.);
#1065=FACE_BOUND('',#967,.T.);
#1066=FACE_BOUND('',#968,.T.);
#1067=FACE_BOUND('',#969,.T.);
#1068=FACE_BOUND('',#970,.T.);
#1069=FACE_BOUND('',#971,.T.);
#1070=FACE_BOUND('',#972,.T.);
#1071=FACE_BOUND('',#973,.T.);
#1072=FACE_BOUND('',#974,.T.);
#1073=FACE_BOUND('',#975,.T.);
#1074=FACE_BOUND('',#976,.T.);
#1075=FACE_BOUND('',#977,.T.);
#1076=FACE_BOUND('',#978,.T.);
#1077=FACE_BOUND('',#979,.T.);
#1078=FACE_BOUND('',#980,.T.);
#1079=FACE_BOUND('',#981,.T.);
#1080=FACE_BOUND('',#982,.T.);
#1081=FACE_BOUND('',#983,.T.);
#1082=FACE_BOUND('',#984,.T.);
#1083=FACE_BOUND('',#985,.T.);
#1084=FACE_BOUND('',#986,.T.);
#1085=FACE_BOUND('',#987,.T.);
#1086=FACE_BOUND('',#988,.T.);
#1087=FACE_BOUND('',#989,.T.);
#1088=FACE_BOUND('',#990,.T.);
#1089=FACE_BOUND('',#991,.T.);
#1090=FACE_BOUND('',#992,.T.);
#1091=FACE_BOUND('',#993,.T.);
#1092=FACE_BOUND('',#994,.T.);
#1093=FACE_BOUND('',#995,.T.);
#1094=FACE_BOUND('',#996,.T.);
#1095=FACE_BOUND('',#997,.T.);
#1096=FACE_BOUND('',#998,.T.);
#1097=FACE_BOUND('',#999,.T.);
#1098=FACE_BOUND('',#1000,.T.);
#1099=FACE_BOUND('',#1001,.T.);
#1100=FACE_BOUND('',#1002,.T.);
#1101=FACE_BOUND('',#1003,.T.);
#1102=FACE_BOUND('',#1004,.T.);
#1103=FACE_BOUND('',#1005,.T.);
#1104=FACE_BOUND('',#1006,.T.);
#1105=FACE_BOUND('',#1007,.T.);
#1106=FACE_BOUND('',#1008,.T.);
#1107=FACE_BOUND('',#1009,.T.);
#1108=FACE_BOUND('',#1010,.T.);
#1109=FACE_BOUND('',#1011,.T.);
#1110=FACE_BOUND('',#1012,.T.);
#1111=FACE_BOUND('',#1013,.T.);
#1112=FACE_BOUND('',#1014,.T.);
#1113=FACE_BOUND('',#1015,.T.);
#1114=FACE_BOUND('',#1016,.T.);
#1115=FACE_BOUND('',#1017,.T.);
#1116=FACE_BOUND('',#1018,.T.);
#1117=FACE_BOUND('',#1019,.T.);
#1118=FACE_BOUND('',#1020,.T.);
#1119=FACE_BOUND('',#1021,.T.);
#1120=FACE_BOUND('',#1022,.T.);
#1121=FACE_BOUND('',#1023,.T.);
#1122=FACE_BOUND('',#1024,.T.);
#1123=FACE_BOUND('',#1025,.T.);
#1124=FACE_BOUND('',#1026,.T.);
#1125=FACE_BOUND('',#1027,.T.);
#1126=PLANE('',#1280);
#1127=PLANE('',#1281);
#1128=PLANE('',#1282);
#1129=PLANE('',#1283);
#1130=PLANE('',#1284);
#1131=PLANE('',#1285);
#1132=PLANE('',#1286);
#1133=PLANE('',#1287);
#1134=PLANE('',#1288);
#1135=PLANE('',#1289);
#1136=PLANE('',#1290);
#1137=PLANE('',#1293);
#1138=PLANE('',#1294);
#1139=PLANE('',#1297);
#1140=PLANE('',#1298);
#1141=PLANE('',#1299);
#1142=PLANE('',#1300);
#1143=PLANE('',#1301);
#1144=PLANE('',#1302);
#1145=PLANE('',#1303);
#1146=PLANE('',#1304);
#1147=PLANE('',#1305);
#1148=PLANE('',#1306);
#1149=PLANE('',#1307);
#1150=PLANE('',#1311);
#1151=PLANE('',#1316);
#1152=PLANE('',#1319);
#1153=PLANE('',#1324);
#1154=PLANE('',#1327);
#1155=PLANE('',#1332);
#1156=PLANE('',#1335);
#1157=PLANE('',#1336);
#1158=PLANE('',#1337);
#1159=PLANE('',#1341);
#1160=PLANE('',#1342);
#1161=PLANE('',#1343);
#1162=PLANE('',#1344);
#1163=PLANE('',#1345);
#1164=PLANE('',#1346);
#1165=PLANE('',#1349);
#1166=PLANE('',#1350);
#1167=PLANE('',#1351);
#1168=PLANE('',#1352);
#1169=PLANE('',#1353);
#1170=PLANE('',#1355);
#1171=PLANE('',#1357);
#1172=PLANE('',#1359);
#1173=PLANE('',#1360);
#1174=PLANE('',#1361);
#1175=PLANE('',#1363);
#1176=PLANE('',#1365);
#1177=PLANE('',#1371);
#1178=PLANE('',#1375);
#1179=PLANE('',#1376);
#1180=PLANE('',#1377);
#1181=PLANE('',#1378);
#1182=PLANE('',#1379);
#1183=ADVANCED_FACE('',(#1028),#1126,.T.);
#1184=ADVANCED_FACE('',(#1029),#1127,.F.);
#1185=ADVANCED_FACE('',(#1030,#1031),#1128,.T.);
#1186=ADVANCED_FACE('',(#1032,#1033),#1129,.T.);
#1187=ADVANCED_FACE('',(#1034,#1035),#1130,.T.);
#1188=ADVANCED_FACE('',(#1036),#1131,.T.);
#1189=ADVANCED_FACE('',(#1037),#1132,.F.);
#1190=ADVANCED_FACE('',(#1038),#1133,.F.);
#1191=ADVANCED_FACE('',(#1039),#1134,.T.);
#1192=ADVANCED_FACE('',(#1040,#1041,#1042,#1043),#1135,.F.);
#1193=ADVANCED_FACE('',(#1044),#1136,.F.);
#1194=ADVANCED_FACE('',(#1045),#1137,.T.);
#1195=ADVANCED_FACE('',(#1046),#1138,.T.);
#1196=ADVANCED_FACE('',(#1047),#1139,.F.);
#1197=ADVANCED_FACE('',(#1048),#1140,.F.);
#1198=ADVANCED_FACE('',(#1049),#1141,.T.);
#1199=ADVANCED_FACE('',(#1050),#1142,.T.);
#1200=ADVANCED_FACE('',(#1051),#1143,.T.);
#1201=ADVANCED_FACE('',(#1052),#1144,.T.);
#1202=ADVANCED_FACE('',(#1053),#1145,.F.);
#1203=ADVANCED_FACE('',(#1054),#1146,.F.);
#1204=ADVANCED_FACE('',(#1055),#1147,.F.);
#1205=ADVANCED_FACE('',(#1056),#1148,.T.);
#1206=ADVANCED_FACE('',(#1057),#1149,.T.);
#1207=ADVANCED_FACE('',(#1058),#22,.F.);
#1208=ADVANCED_FACE('',(#1059),#23,.F.);
#1209=ADVANCED_FACE('',(#1060,#1061),#1150,.T.);
#1210=ADVANCED_FACE('',(#1062,#1063),#24,.T.);
#1211=ADVANCED_FACE('',(#1064,#1065),#1151,.T.);
#1212=ADVANCED_FACE('',(#1066),#1152,.T.);
#1213=ADVANCED_FACE('',(#1067,#1068),#25,.F.);
#1214=ADVANCED_FACE('',(#1069,#1070),#26,.T.);
#1215=ADVANCED_FACE('',(#1071),#1153,.T.);
#1216=ADVANCED_FACE('',(#1072,#1073),#27,.F.);
#1217=ADVANCED_FACE('',(#1074,#1075),#1154,.T.);
#1218=ADVANCED_FACE('',(#1076,#1077),#28,.T.);
#1219=ADVANCED_FACE('',(#1078),#1155,.T.);
#1220=ADVANCED_FACE('',(#1079,#1080),#29,.F.);
#1221=ADVANCED_FACE('',(#1081),#1156,.T.);
#1222=ADVANCED_FACE('',(#1082,#1083),#1157,.T.);
#1223=ADVANCED_FACE('',(#1084,#1085,#1086,#1087,#1088,#1089),#1158,.T.);
#1224=ADVANCED_FACE('',(#1090),#1159,.F.);
#1225=ADVANCED_FACE('',(#1091,#1092),#1160,.T.);
#1226=ADVANCED_FACE('',(#1093),#1161,.F.);
#1227=ADVANCED_FACE('',(#1094),#1162,.F.);
#1228=ADVANCED_FACE('',(#1095),#1163,.T.);
#1229=ADVANCED_FACE('',(#1096,#1097),#1164,.F.);
#1230=ADVANCED_FACE('',(#1098,#1099),#1165,.T.);
#1231=ADVANCED_FACE('',(#1100),#1166,.F.);
#1232=ADVANCED_FACE('',(#1101),#1167,.F.);
#1233=ADVANCED_FACE('',(#1102),#1168,.T.);
#1234=ADVANCED_FACE('',(#1103),#1169,.F.);
#1235=ADVANCED_FACE('',(#1104),#1170,.T.);
#1236=ADVANCED_FACE('',(#1105),#1171,.T.);
#1237=ADVANCED_FACE('',(#1106),#30,.T.);
#1238=ADVANCED_FACE('',(#1107),#1172,.F.);
#1239=ADVANCED_FACE('',(#1108),#1173,.T.);
#1240=ADVANCED_FACE('',(#1109),#1174,.F.);
#1241=ADVANCED_FACE('',(#1110),#1175,.T.);
#1242=ADVANCED_FACE('',(#1111),#1176,.T.);
#1243=ADVANCED_FACE('',(#1112),#31,.T.);
#1244=ADVANCED_FACE('',(#1113),#32,.F.);
#1245=ADVANCED_FACE('',(#1114),#33,.F.);
#1246=ADVANCED_FACE('',(#1115,#1116),#34,.T.);
#1247=ADVANCED_FACE('',(#1117,#1118),#1177,.T.);
#1248=ADVANCED_FACE('',(#1119,#1120),#35,.F.);
#1249=ADVANCED_FACE('',(#1121),#1178,.T.);
#1250=ADVANCED_FACE('',(#1122),#1179,.F.);
#1251=ADVANCED_FACE('',(#1123),#1180,.F.);
#1252=ADVANCED_FACE('',(#1124),#1181,.T.);
#1253=ADVANCED_FACE('',(#1125),#1182,.T.);
#1254=CLOSED_SHELL('',(#1183,#1184,#1185,#1186,#1187,#1188,#1189,#1190,
#1191,#1192,#1193,#1194,#1195,#1196,#1197,#1198,#1199,#1200,#1201,#1202,
#1203,#1204,#1205,#1206,#1207,#1208));
#1255=CLOSED_SHELL('',(#1209,#1210,#1211,#1212,#1213,#1214,#1215,#1216,
#1217,#1218,#1219,#1220,#1221,#1222,#1223,#1224,#1225,#1226,#1227,#1228,
#1229,#1230,#1231,#1232,#1233,#1234,#1235,#1236,#1237,#1238,#1239,#1240,
#1241,#1242,#1243,#1244,#1245,#1246,#1247,#1248,#1249,#1250,#1251,#1252,
#1253));
#1256=STYLED_ITEM('',(#1258),#1271);
#1257=STYLED_ITEM('',(#1259),#1272);
#1258=PRESENTATION_STYLE_ASSIGNMENT((#1260));
#1259=PRESENTATION_STYLE_ASSIGNMENT((#1261));
#1260=SURFACE_STYLE_USAGE(.BOTH.,#1262);
#1261=SURFACE_STYLE_USAGE(.BOTH.,#1263);
#1262=SURFACE_SIDE_STYLE('',(#1264));
#1263=SURFACE_SIDE_STYLE('',(#1265));
#1264=SURFACE_STYLE_FILL_AREA(#1266);
#1265=SURFACE_STYLE_FILL_AREA(#1267);
#1266=FILL_AREA_STYLE('',(#1268));
#1267=FILL_AREA_STYLE('',(#1269));
#1268=FILL_AREA_STYLE_COLOUR('',#1270);
#1269=FILL_AREA_STYLE_COLOUR('',#1270);
#1270=COLOUR_RGB('',0.615686274509804,0.811764705882353,0.929411764705882);
#1271=MANIFOLD_SOLID_BREP('top',#1254);
#1272=MANIFOLD_SOLID_BREP('bottom',#1255);
#1273=SHAPE_DEFINITION_REPRESENTATION(#2077,#1276);
#1274=SHAPE_DEFINITION_REPRESENTATION(#2078,#1277);
#1275=SHAPE_DEFINITION_REPRESENTATION(#2080,#1278);
#1276=SHAPE_REPRESENTATION('waveshare-raspberry-pi-pico',(#1279,#1310,#1380),
#2068);
#1277=SHAPE_REPRESENTATION('top',(#1279),#2069);
#1278=SHAPE_REPRESENTATION('bottom',(#1279),#2070);
#1279=AXIS2_PLACEMENT_3D('',#1719,#1381,#1382);
#1280=AXIS2_PLACEMENT_3D('',#1720,#1383,#1384);
#1281=AXIS2_PLACEMENT_3D('',#1737,#1393,#1394);
#1282=AXIS2_PLACEMENT_3D('',#1754,#1403,#1404);
#1283=AXIS2_PLACEMENT_3D('',#1765,#1411,#1412);
#1284=AXIS2_PLACEMENT_3D('',#1776,#1419,#1420);
#1285=AXIS2_PLACEMENT_3D('',#1793,#1429,#1430);
#1286=AXIS2_PLACEMENT_3D('',#1799,#1434,#1435);
#1287=AXIS2_PLACEMENT_3D('',#1803,#1438,#1439);
#1288=AXIS2_PLACEMENT_3D('',#1807,#1442,#1443);
#1289=AXIS2_PLACEMENT_3D('',#1809,#1445,#1446);
#1290=AXIS2_PLACEMENT_3D('',#1828,#1457,#1458);
#1291=AXIS2_PLACEMENT_3D('',#1829,#1459,#1460);
#1292=AXIS2_PLACEMENT_3D('',#1834,#1463,#1464);
#1293=AXIS2_PLACEMENT_3D('',#1835,#1465,#1466);
#1294=AXIS2_PLACEMENT_3D('',#1839,#1469,#1470);
#1295=AXIS2_PLACEMENT_3D('',#1840,#1471,#1472);
#1296=AXIS2_PLACEMENT_3D('',#1843,#1474,#1475);
#1297=AXIS2_PLACEMENT_3D('',#1844,#1476,#1477);
#1298=AXIS2_PLACEMENT_3D('',#1846,#1479,#1480);
#1299=AXIS2_PLACEMENT_3D('',#1849,#1483,#1484);
#1300=AXIS2_PLACEMENT_3D('',#1851,#1486,#1487);
#1301=AXIS2_PLACEMENT_3D('',#1853,#1489,#1490);
#1302=AXIS2_PLACEMENT_3D('',#1854,#1491,#1492);
#1303=AXIS2_PLACEMENT_3D('',#1855,#1493,#1494);
#1304=AXIS2_PLACEMENT_3D('',#1856,#1495,#1496);
#1305=AXIS2_PLACEMENT_3D('',#1859,#1499,#1500);
#1306=AXIS2_PLACEMENT_3D('',#1861,#1502,#1503);
#1307=AXIS2_PLACEMENT_3D('',#1863,#1505,#1506);
#1308=AXIS2_PLACEMENT_3D('',#1864,#1507,#1508);
#1309=AXIS2_PLACEMENT_3D('',#1865,#1509,#1510);
#1310=AXIS2_PLACEMENT_3D('',#1866,#1511,#1512);
#1311=AXIS2_PLACEMENT_3D('',#1867,#1513,#1514);
#1312=AXIS2_PLACEMENT_3D('',#1868,#1515,#1516);
#1313=AXIS2_PLACEMENT_3D('',#1870,#1517,#1518);
#1314=AXIS2_PLACEMENT_3D('',#1872,#1519,#1520);
#1315=AXIS2_PLACEMENT_3D('',#1873,#1521,#1522);
#1316=AXIS2_PLACEMENT_3D('',#1875,#1523,#1524);
#1317=AXIS2_PLACEMENT_3D('',#1876,#1525,#1526);
#1318=AXIS2_PLACEMENT_3D('',#1878,#1527,#1528);
#1319=AXIS2_PLACEMENT_3D('',#1880,#1529,#1530);
#1320=AXIS2_PLACEMENT_3D('',#1881,#1531,#1532);
#1321=AXIS2_PLACEMENT_3D('',#1883,#1533,#1534);
#1322=AXIS2_PLACEMENT_3D('',#1884,#1535,#1536);
#1323=AXIS2_PLACEMENT_3D('',#1885,#1537,#1538);
#1324=AXIS2_PLACEMENT_3D('',#1887,#1539,#1540);
#1325=AXIS2_PLACEMENT_3D('',#1888,#1541,#1542);
#1326=AXIS2_PLACEMENT_3D('',#1890,#1543,#1544);
#1327=AXIS2_PLACEMENT_3D('',#1891,#1545,#1546);
#1328=AXIS2_PLACEMENT_3D('',#1892,#1547,#1548);
#1329=AXIS2_PLACEMENT_3D('',#1894,#1549,#1550);
#1330=AXIS2_PLACEMENT_3D('',#1896,#1551,#1552);
#1331=AXIS2_PLACEMENT_3D('',#1897,#1553,#1554);
#1332=AXIS2_PLACEMENT_3D('',#1899,#1555,#1556);
#1333=AXIS2_PLACEMENT_3D('',#1900,#1557,#1558);
#1334=AXIS2_PLACEMENT_3D('',#1902,#1559,#1560);
#1335=AXIS2_PLACEMENT_3D('',#1903,#1561,#1562);
#1336=AXIS2_PLACEMENT_3D('',#1912,#1567,#1568);
#1337=AXIS2_PLACEMENT_3D('',#1934,#1580,#1581);
#1338=AXIS2_PLACEMENT_3D('',#1935,#1582,#1583);
#1339=AXIS2_PLACEMENT_3D('',#1945,#1588,#1589);
#1340=AXIS2_PLACEMENT_3D('',#1950,#1591,#1592);
#1341=AXIS2_PLACEMENT_3D('',#1953,#1594,#1595);
#1342=AXIS2_PLACEMENT_3D('',#1959,#1599,#1600);
#1343=AXIS2_PLACEMENT_3D('',#1973,#1608,#1609);
#1344=AXIS2_PLACEMENT_3D('',#1977,#1612,#1613);
#1345=AXIS2_PLACEMENT_3D('',#1981,#1616,#1617);
#1346=AXIS2_PLACEMENT_3D('',#1983,#1619,#1620);
#1347=AXIS2_PLACEMENT_3D('',#1987,#1622,#1623);
#1348=AXIS2_PLACEMENT_3D('',#1991,#1625,#1626);
#1349=AXIS2_PLACEMENT_3D('',#1992,#1627,#1628);
#1350=AXIS2_PLACEMENT_3D('',#2003,#1635,#1636);
#1351=AXIS2_PLACEMENT_3D('',#2010,#1641,#1642);
#1352=AXIS2_PLACEMENT_3D('',#2012,#1644,#1645);
#1353=AXIS2_PLACEMENT_3D('',#2018,#1649,#1650);
#1354=AXIS2_PLACEMENT_3D('',#2019,#1651,#1652);
#1355=AXIS2_PLACEMENT_3D('',#2022,#1654,#1655);
#1356=AXIS2_PLACEMENT_3D('',#2025,#1657,#1658);
#1357=AXIS2_PLACEMENT_3D('',#2026,#1659,#1660);
#1358=AXIS2_PLACEMENT_3D('',#2028,#1662,#1663);
#1359=AXIS2_PLACEMENT_3D('',#2029,#1664,#1665);
#1360=AXIS2_PLACEMENT_3D('',#2032,#1668,#1669);
#1361=AXIS2_PLACEMENT_3D('',#2035,#1672,#1673);
#1362=AXIS2_PLACEMENT_3D('',#2036,#1674,#1675);
#1363=AXIS2_PLACEMENT_3D('',#2039,#1677,#1678);
#1364=AXIS2_PLACEMENT_3D('',#2042,#1680,#1681);
#1365=AXIS2_PLACEMENT_3D('',#2043,#1682,#1683);
#1366=AXIS2_PLACEMENT_3D('',#2045,#1685,#1686);
#1367=AXIS2_PLACEMENT_3D('',#2046,#1687,#1688);
#1368=AXIS2_PLACEMENT_3D('',#2047,#1689,#1690);
#1369=AXIS2_PLACEMENT_3D('',#2048,#1691,#1692);
#1370=AXIS2_PLACEMENT_3D('',#2049,#1693,#1694);
#1371=AXIS2_PLACEMENT_3D('',#2051,#1695,#1696);
#1372=AXIS2_PLACEMENT_3D('',#2052,#1697,#1698);
#1373=AXIS2_PLACEMENT_3D('',#2054,#1699,#1700);
#1374=AXIS2_PLACEMENT_3D('',#2055,#1701,#1702);
#1375=AXIS2_PLACEMENT_3D('',#2057,#1703,#1704);
#1376=AXIS2_PLACEMENT_3D('',#2058,#1705,#1706);
#1377=AXIS2_PLACEMENT_3D('',#2061,#1709,#1710);
#1378=AXIS2_PLACEMENT_3D('',#2063,#1712,#1713);
#1379=AXIS2_PLACEMENT_3D('',#2065,#1715,#1716);
#1380=AXIS2_PLACEMENT_3D('',#2066,#1717,#1718);
#1381=DIRECTION('',(0.,0.,1.));
#1382=DIRECTION('',(1.,0.,0.));
#1383=DIRECTION('',(-1.,6.08674903851511E-17,0.));
#1384=DIRECTION('',(-6.08674903851511E-17,-1.,0.));
#1385=DIRECTION('',(0.,0.,-1.));
#1386=DIRECTION('',(2.23835287222814E-16,1.,0.));
#1387=DIRECTION('',(0.,0.,-1.));
#1388=DIRECTION('',(6.08674903851511E-17,1.,0.));
#1389=DIRECTION('',(0.,0.,-1.));
#1390=DIRECTION('',(0.,-1.,0.));
#1391=DIRECTION('',(0.,0.,-1.));
#1392=DIRECTION('',(6.08674903851511E-17,1.,0.));
#1393=DIRECTION('',(-1.,6.08674903851511E-17,0.));
#1394=DIRECTION('',(-6.08674903851511E-17,-1.,0.));
#1395=DIRECTION('',(-2.23835287222814E-16,1.,0.));
#1396=DIRECTION('',(0.,0.,-1.));
#1397=DIRECTION('',(6.08674903851511E-17,1.,0.));
#1398=DIRECTION('',(0.,0.,-1.));
#1399=DIRECTION('',(0.,-1.,0.));
#1400=DIRECTION('',(0.,0.,-1.));
#1401=DIRECTION('',(6.08674903851511E-17,1.,0.));
#1402=DIRECTION('',(0.,0.,-1.));
#1403=DIRECTION('',(0.,0.,1.));
#1404=DIRECTION('',(1.,0.,0.));
#1405=DIRECTION('',(-1.,0.,0.));
#1406=DIRECTION('',(-1.,-1.11917643611407E-16,0.));
#1407=DIRECTION('',(-1.,0.,0.));
#1408=DIRECTION('',(0.,-1.,0.));
#1409=DIRECTION('',(-1.,0.,0.));
#1410=DIRECTION('',(0.,-1.,0.));
#1411=DIRECTION('',(0.,0.,1.));
#1412=DIRECTION('',(1.,0.,0.));
#1413=DIRECTION('',(-1.,1.92747052886312E-16,0.));
#1414=DIRECTION('',(-1.,-2.23835287222814E-16,0.));
#1415=DIRECTION('',(0.707106781186548,0.707106781186548,0.));
#1416=DIRECTION('',(-0.707106781186548,0.707106781186548,0.));
#1417=DIRECTION('',(-0.707106781186548,-0.707106781186548,0.));
#1418=DIRECTION('',(-0.707106781186548,0.707106781186548,0.));
#1419=DIRECTION('',(0.,0.,1.));
#1420=DIRECTION('',(1.,0.,0.));
#1421=DIRECTION('',(-1.,-1.11917643611407E-16,0.));
#1422=DIRECTION('',(6.08674903851511E-17,1.,0.));
#1423=DIRECTION('',(-1.,-2.23835287222814E-16,0.));
#1424=DIRECTION('',(6.08674903851511E-17,1.,0.));
#1425=DIRECTION('',(6.08674903851511E-17,1.,0.));
#1426=DIRECTION('',(-1.,-1.11917643611407E-16,0.));
#1427=DIRECTION('',(6.08674903851511E-17,1.,0.));
#1428=DIRECTION('',(-1.,-2.23835287222814E-16,0.));
#1429=DIRECTION('',(1.11917643611407E-16,-1.,0.));
#1430=DIRECTION('',(1.,1.11917643611407E-16,0.));
#1431=DIRECTION('',(-1.,-1.11917643611407E-16,0.));
#1432=DIRECTION('',(0.,0.,-1.));
#1433=DIRECTION('',(0.,0.,-1.));
#1434=DIRECTION('',(-1.,6.08674903851511E-17,0.));
#1435=DIRECTION('',(-6.08674903851511E-17,-1.,0.));
#1436=DIRECTION('',(6.08674903851511E-17,1.,0.));
#1437=DIRECTION('',(0.,0.,-1.));
#1438=DIRECTION('',(2.23835287222814E-16,-1.,0.));
#1439=DIRECTION('',(1.,2.23835287222814E-16,0.));
#1440=DIRECTION('',(-1.,-2.23835287222814E-16,0.));
#1441=DIRECTION('',(0.,0.,-1.));
#1442=DIRECTION('',(-1.,6.08674903851511E-17,0.));
#1443=DIRECTION('',(-6.08674903851511E-17,-1.,0.));
#1444=DIRECTION('',(6.08674903851511E-17,1.,0.));
#1445=DIRECTION('',(0.,0.,1.));
#1446=DIRECTION('',(1.,0.,0.));
#1447=DIRECTION('',(-1.,0.,0.));
#1448=DIRECTION('',(0.,-1.,0.));
#1449=DIRECTION('',(-1.,0.,0.));
#1450=DIRECTION('',(0.,-1.,0.));
#1451=DIRECTION('',(-1.,0.,0.));
#1452=DIRECTION('',(-1.,1.92747052886312E-16,0.));
#1453=DIRECTION('',(-0.707106781186548,-0.707106781186548,0.));
#1454=DIRECTION('',(-0.707106781186548,0.707106781186548,0.));
#1455=DIRECTION('',(0.707106781186548,0.707106781186548,0.));
#1456=DIRECTION('',(-0.707106781186548,0.707106781186548,0.));
#1457=DIRECTION('',(1.11917643611407E-16,-1.,0.));
#1458=DIRECTION('',(1.,1.11917643611407E-16,0.));
#1459=DIRECTION('',(1.11917643611407E-16,-1.,0.));
#1460=DIRECTION('',(1.,1.11917643611407E-16,0.));
#1461=DIRECTION('',(0.,0.,-1.));
#1462=DIRECTION('',(0.,0.,-1.));
#1463=DIRECTION('',(1.11917643611407E-16,-1.,0.));
#1464=DIRECTION('',(1.,1.11917643611407E-16,0.));
#1465=DIRECTION('',(-1.,6.08674903851511E-17,0.));
#1466=DIRECTION('',(-6.08674903851511E-17,-1.,0.));
#1467=DIRECTION('',(2.23835287222814E-16,1.,0.));
#1468=DIRECTION('',(0.,0.,-1.));
#1469=DIRECTION('',(2.23835287222814E-16,-1.,0.));
#1470=DIRECTION('',(1.,2.23835287222814E-16,0.));
#1471=DIRECTION('',(2.23835287222814E-16,1.,0.));
#1472=DIRECTION('',(-1.,2.23835287222814E-16,0.));
#1473=DIRECTION('',(0.,0.,-1.));
#1474=DIRECTION('',(2.23835287222814E-16,-1.,0.));
#1475=DIRECTION('',(1.,2.23835287222814E-16,0.));
#1476=DIRECTION('',(-1.,6.08674903851511E-17,0.));
#1477=DIRECTION('',(-6.08674903851511E-17,-1.,0.));
#1478=DIRECTION('',(-2.23835287222814E-16,1.,0.));
#1479=DIRECTION('',(-0.707106781186548,-0.707106781186548,0.));
#1480=DIRECTION('',(0.707106781186548,-0.707106781186548,0.));
#1481=DIRECTION('',(0.,0.,-1.));
#1482=DIRECTION('',(0.,0.,-1.));
#1483=DIRECTION('',(0.707106781186548,-0.707106781186548,0.));
#1484=DIRECTION('',(0.707106781186548,0.707106781186548,0.));
#1485=DIRECTION('',(0.,0.,-1.));
#1486=DIRECTION('',(-0.707106781186548,0.707106781186548,0.));
#1487=DIRECTION('',(-0.707106781186548,-0.707106781186548,0.));
#1488=DIRECTION('',(0.,0.,-1.));
#1489=DIRECTION('',(-0.707106781186548,-0.707106781186548,0.));
#1490=DIRECTION('',(0.707106781186548,-0.707106781186548,0.));
#1491=DIRECTION('',(-1.92747052886312E-16,-1.,0.));
#1492=DIRECTION('',(1.,-1.92747052886312E-16,0.));
#1493=DIRECTION('',(0.,-1.,0.));
#1494=DIRECTION('',(0.,0.,-1.));
#1495=DIRECTION('',(1.,0.,0.));
#1496=DIRECTION('',(0.,0.,-1.));
#1497=DIRECTION('',(0.,0.,-1.));
#1498=DIRECTION('',(0.,0.,-1.));
#1499=DIRECTION('',(0.,-1.,0.));
#1500=DIRECTION('',(0.,0.,-1.));
#1501=DIRECTION('',(0.,0.,-1.));
#1502=DIRECTION('',(0.,-1.,0.));
#1503=DIRECTION('',(0.,0.,-1.));
#1504=DIRECTION('',(0.,0.,-1.));
#1505=DIRECTION('',(1.,0.,0.));
#1506=DIRECTION('',(0.,0.,-1.));
#1507=DIRECTION('',(-2.23835287222814E-16,1.,0.));
#1508=DIRECTION('',(-1.,-2.23835287222814E-16,0.));
#1509=DIRECTION('',(2.23835287222814E-16,1.,0.));
#1510=DIRECTION('',(-1.,2.23835287222814E-16,0.));
#1511=DIRECTION('',(0.,0.,-1.));
#1512=DIRECTION('',(-1.,0.,0.));
#1513=DIRECTION('',(0.,0.,1.));
#1514=DIRECTION('',(1.,0.,0.));
#1515=DIRECTION('',(0.,0.,-1.));
#1516=DIRECTION('',(1.,0.,0.));
#1517=DIRECTION('',(0.,0.,-1.));
#1518=DIRECTION('',(1.,0.,0.));
#1519=DIRECTION('',(0.,0.,-1.));
#1520=DIRECTION('',(-1.,0.,0.));
#1521=DIRECTION('',(0.,0.,-1.));
#1522=DIRECTION('',(1.,0.,0.));
#1523=DIRECTION('',(0.,0.,1.));
#1524=DIRECTION('',(-1.,0.,0.));
#1525=DIRECTION('',(0.,0.,1.));
#1526=DIRECTION('',(-1.,0.,0.));
#1527=DIRECTION('',(0.,0.,1.));
#1528=DIRECTION('',(-1.,0.,0.));
#1529=DIRECTION('',(0.,0.,1.));
#1530=DIRECTION('',(-1.,0.,0.));
#1531=DIRECTION('',(0.,0.,1.));
#1532=DIRECTION('',(-1.,0.,0.));
#1533=DIRECTION('',(0.,0.,1.));
#1534=DIRECTION('',(-1.,0.,0.));
#1535=DIRECTION('',(0.,0.,-1.));
#1536=DIRECTION('',(1.,0.,0.));
#1537=DIRECTION('',(0.,0.,1.));
#1538=DIRECTION('',(-1.,0.,0.));
#1539=DIRECTION('',(0.,0.,1.));
#1540=DIRECTION('',(1.,0.,0.));
#1541=DIRECTION('',(0.,0.,-1.));
#1542=DIRECTION('',(1.,0.,0.));
#1543=DIRECTION('',(0.,0.,1.));
#1544=DIRECTION('',(1.,0.,0.));
#1545=DIRECTION('',(0.,0.,1.));
#1546=DIRECTION('',(-1.,0.,0.));
#1547=DIRECTION('',(0.,0.,-1.));
#1548=DIRECTION('',(-1.,0.,0.));
#1549=DIRECTION('',(0.,0.,-1.));
#1550=DIRECTION('',(-1.,0.,0.));
#1551=DIRECTION('',(0.,0.,-1.));
#1552=DIRECTION('',(1.,0.,0.));
#1553=DIRECTION('',(0.,0.,-1.));
#1554=DIRECTION('',(-1.,0.,0.));
#1555=DIRECTION('',(0.,0.,1.));
#1556=DIRECTION('',(-1.,0.,0.));
#1557=DIRECTION('',(0.,0.,-1.));
#1558=DIRECTION('',(-1.,0.,0.));
#1559=DIRECTION('',(0.,0.,1.));
#1560=DIRECTION('',(-1.,0.,0.));
#1561=DIRECTION('',(1.,0.,0.));
#1562=DIRECTION('',(0.,0.,-1.));
#1563=DIRECTION('',(0.,0.,-1.));
#1564=DIRECTION('',(0.,-1.,0.));
#1565=DIRECTION('',(0.,0.,-1.));
#1566=DIRECTION('',(0.,-1.,0.));
#1567=DIRECTION('',(0.,0.,1.));
#1568=DIRECTION('',(1.,0.,0.));
#1569=DIRECTION('',(-1.,-1.11917643611407E-16,0.));
#1570=DIRECTION('',(6.08674903851511E-17,1.,0.));
#1571=DIRECTION('',(-1.,-2.23835287222814E-16,0.));
#1572=DIRECTION('',(6.08674903851511E-17,1.,0.));
#1573=DIRECTION('',(-1.,0.,0.));
#1574=DIRECTION('',(1.,0.,0.));
#1575=DIRECTION('',(1.,0.,0.));
#1576=DIRECTION('',(-1.,0.,0.));
#1577=DIRECTION('',(-1.,0.,0.));
#1578=DIRECTION('',(0.,-1.,0.));
#1579=DIRECTION('',(-1.,0.,0.));
#1580=DIRECTION('',(0.,0.,1.));
#1581=DIRECTION('',(1.,0.,0.));
#1582=DIRECTION('',(0.,0.,1.));
#1583=DIRECTION('',(1.,0.,0.));
#1584=DIRECTION('',(-1.,0.,0.));
#1585=DIRECTION('',(6.54612632444078E-17,1.,0.));
#1586=DIRECTION('',(-1.,0.,0.));
#1587=DIRECTION('',(6.54612632444078E-17,1.,0.));
#1588=DIRECTION('',(0.,0.,1.));
#1589=DIRECTION('',(1.,0.,0.));
#1590=DIRECTION('',(7.2280144832367E-17,-1.,0.));
#1591=DIRECTION('',(0.,0.,1.));
#1592=DIRECTION('',(1.,0.,0.));
#1593=DIRECTION('',(7.2280144832367E-17,-1.,0.));
#1594=DIRECTION('',(1.,0.,0.));
#1595=DIRECTION('',(0.,0.,-1.));
#1596=DIRECTION('',(0.,-1.,0.));
#1597=DIRECTION('',(0.,0.,-1.));
#1598=DIRECTION('',(0.,0.,-1.));
#1599=DIRECTION('',(1.11917643611407E-16,-1.,0.));
#1600=DIRECTION('',(1.,1.11917643611407E-16,0.));
#1601=DIRECTION('',(0.,0.,1.));
#1602=DIRECTION('',(-1.,-1.11917643611407E-16,-1.0842021724855E-16));
#1603=DIRECTION('',(0.,0.,1.));
#1604=DIRECTION('',(-1.,-1.11917643611407E-16,0.));
#1605=DIRECTION('',(-1.,-1.11917643611407E-16,0.));
#1606=DIRECTION('',(0.,0.,-1.));
#1607=DIRECTION('',(0.,0.,-1.));
#1608=DIRECTION('',(-1.,6.08674903851511E-17,0.));
#1609=DIRECTION('',(-6.08674903851511E-17,-1.,0.));
#1610=DIRECTION('',(6.08674903851511E-17,1.,0.));
#1611=DIRECTION('',(0.,0.,-1.));
#1612=DIRECTION('',(2.23835287222814E-16,-1.,0.));
#1613=DIRECTION('',(1.,2.23835287222814E-16,0.));
#1614=DIRECTION('',(-1.,-2.23835287222814E-16,0.));
#1615=DIRECTION('',(0.,0.,-1.));
#1616=DIRECTION('',(-1.,6.08674903851511E-17,0.));
#1617=DIRECTION('',(-6.08674903851511E-17,-1.,0.));
#1618=DIRECTION('',(6.08674903851511E-17,1.,0.));
#1619=DIRECTION('',(0.,0.,1.));
#1620=DIRECTION('',(1.,0.,0.));
#1621=DIRECTION('',(7.2280144832367E-17,-1.,0.));
#1622=DIRECTION('',(0.,0.,1.));
#1623=DIRECTION('',(1.,0.,0.));
#1624=DIRECTION('',(7.2280144832367E-17,-1.,0.));
#1625=DIRECTION('',(0.,0.,1.));
#1626=DIRECTION('',(1.,0.,0.));
#1627=DIRECTION('',(0.,1.,0.));
#1628=DIRECTION('',(0.,0.,1.));
#1629=DIRECTION('',(0.,0.,1.));
#1630=DIRECTION('',(-1.,0.,0.));
#1631=DIRECTION('',(0.,0.,1.));
#1632=DIRECTION('',(-1.,0.,-1.0842021724855E-16));
#1633=DIRECTION('',(0.,0.,1.));
#1634=DIRECTION('',(0.,0.,1.));
#1635=DIRECTION('',(1.,-6.54612632444078E-17,0.));
#1636=DIRECTION('',(6.54612632444078E-17,1.,0.));
#1637=DIRECTION('',(0.,0.,-1.));
#1638=DIRECTION('',(-6.54612632444078E-17,1.,0.));
#1639=DIRECTION('',(0.,0.,-1.));
#1640=DIRECTION('',(0.,0.,1.));
#1641=DIRECTION('',(0.,1.,0.));
#1642=DIRECTION('',(0.,0.,1.));
#1643=DIRECTION('',(0.,0.,1.));
#1644=DIRECTION('',(1.,-6.54612632444078E-17,0.));
#1645=DIRECTION('',(6.54612632444078E-17,1.,0.));
#1646=DIRECTION('',(0.,0.,-1.));
#1647=DIRECTION('',(6.54612632444078E-17,1.,0.));
#1648=DIRECTION('',(0.,0.,-1.));
#1649=DIRECTION('',(0.,-1.,0.));
#1650=DIRECTION('',(0.,0.,-1.));
#1651=DIRECTION('',(0.,-1.,0.));
#1652=DIRECTION('',(0.,0.,-1.));
#1653=DIRECTION('',(-1.,0.,0.));
#1654=DIRECTION('',(0.,-1.,0.));
#1655=DIRECTION('',(0.,0.,-1.));
#1656=DIRECTION('',(-1.,0.,0.));
#1657=DIRECTION('',(0.,-1.,0.));
#1658=DIRECTION('',(0.,0.,-1.));
#1659=DIRECTION('',(0.,0.,1.));
#1660=DIRECTION('',(1.,0.,0.));
#1661=DIRECTION('',(0.,-1.,0.));
#1662=DIRECTION('',(0.,-1.,0.));
#1663=DIRECTION('',(0.,0.,-1.));
#1664=DIRECTION('',(1.,7.2280144832367E-17,0.));
#1665=DIRECTION('',(-7.2280144832367E-17,1.,0.));
#1666=DIRECTION('',(0.,0.,-1.));
#1667=DIRECTION('',(0.,0.,-1.));
#1668=DIRECTION('',(1.,7.2280144832367E-17,0.));
#1669=DIRECTION('',(-7.2280144832367E-17,1.,0.));
#1670=DIRECTION('',(0.,0.,-1.));
#1671=DIRECTION('',(0.,0.,-1.));
#1672=DIRECTION('',(0.,1.,0.));
#1673=DIRECTION('',(0.,0.,1.));
#1674=DIRECTION('',(0.,1.,0.));
#1675=DIRECTION('',(0.,0.,-1.));
#1676=DIRECTION('',(1.,0.,0.));
#1677=DIRECTION('',(0.,1.,0.));
#1678=DIRECTION('',(0.,0.,1.));
#1679=DIRECTION('',(1.,0.,0.));
#1680=DIRECTION('',(0.,1.,0.));
#1681=DIRECTION('',(0.,0.,1.));
#1682=DIRECTION('',(0.,0.,1.));
#1683=DIRECTION('',(-1.,0.,0.));
#1684=DIRECTION('',(0.,-1.,0.));
#1685=DIRECTION('',(0.,-1.,0.));
#1686=DIRECTION('',(0.,0.,-1.));
#1687=DIRECTION('',(0.,0.,-1.));
#1688=DIRECTION('',(-1.,0.,0.));
#1689=DIRECTION('',(0.,0.,-1.));
#1690=DIRECTION('',(-1.,0.,0.));
#1691=DIRECTION('',(0.,0.,-1.));
#1692=DIRECTION('',(-1.,0.,0.));
#1693=DIRECTION('',(0.,0.,1.));
#1694=DIRECTION('',(1.,0.,0.));
#1695=DIRECTION('',(0.,0.,1.));
#1696=DIRECTION('',(1.,0.,0.));
#1697=DIRECTION('',(0.,0.,1.));
#1698=DIRECTION('',(1.,0.,0.));
#1699=DIRECTION('',(0.,0.,1.));
#1700=DIRECTION('',(1.,0.,0.));
#1701=DIRECTION('',(0.,0.,1.));
#1702=DIRECTION('',(1.,0.,0.));
#1703=DIRECTION('',(0.,0.,1.));
#1704=DIRECTION('',(1.,0.,0.));
#1705=DIRECTION('',(1.,1.11917643611407E-16,0.));
#1706=DIRECTION('',(-1.11917643611407E-16,1.,0.));
#1707=DIRECTION('',(1.11917643611407E-16,-1.,0.));
#1708=DIRECTION('',(1.11917643611407E-16,-1.,0.));
#1709=DIRECTION('',(0.,0.,1.));
#1710=DIRECTION('',(1.,0.,0.));
#1711=DIRECTION('',(1.11917643611407E-16,-1.,0.));
#1712=DIRECTION('',(-1.0842021724855E-16,-1.21341352342946E-32,1.));
#1713=DIRECTION('',(1.,0.,1.0842021724855E-16));
#1714=DIRECTION('',(1.11917643611407E-16,-1.,0.));
#1715=DIRECTION('',(1.,1.11917643611407E-16,0.));
#1716=DIRECTION('',(-1.11917643611407E-16,1.,0.));
#1717=DIRECTION('',(0.,0.,1.));
#1718=DIRECTION('',(1.,0.,0.));
#1719=CARTESIAN_POINT('',(0.,0.,0.));
#1720=CARTESIAN_POINT('',(0.0135,3.59118193272392E-18,0.013));
#1721=CARTESIAN_POINT('',(0.0135,-0.0265,0.013));
#1722=CARTESIAN_POINT('',(0.0135,-0.0265,0.011));
#1723=CARTESIAN_POINT('',(0.0135,-0.0265,0.002));
#1724=CARTESIAN_POINT('',(0.0135,-0.026502,0.011));
#1725=CARTESIAN_POINT('',(0.0135,0.0265,0.011));
#1726=CARTESIAN_POINT('',(0.0135,0.0265,0.013));
#1727=CARTESIAN_POINT('',(0.0135,0.0265,0.002));
#1728=CARTESIAN_POINT('',(0.0135,3.59118193272392E-18,0.002));
#1729=CARTESIAN_POINT('',(0.0135,0.0129,0.002));
#1730=CARTESIAN_POINT('',(0.0135,0.0129,0.013002));
#1731=CARTESIAN_POINT('',(0.0135,0.0129,0.));
#1732=CARTESIAN_POINT('',(0.0135,-0.0021,0.));
#1733=CARTESIAN_POINT('',(0.0135,-0.0171,0.));
#1734=CARTESIAN_POINT('',(0.0135,-0.0171,0.013002));
#1735=CARTESIAN_POINT('',(0.0135,-0.0171,0.002));
#1736=CARTESIAN_POINT('',(0.0135,3.59118193272392E-18,0.002));
#1737=CARTESIAN_POINT('',(-0.0135,-3.59118193272392E-18,0.013));
#1738=CARTESIAN_POINT('',(-0.0135,-0.026502,0.011));
#1739=CARTESIAN_POINT('',(-0.0135,-0.0265,0.011));
#1740=CARTESIAN_POINT('',(-0.0135,0.0265,0.011));
#1741=CARTESIAN_POINT('',(-0.0135,-0.0265,0.013));
#1742=CARTESIAN_POINT('',(-0.0135,-0.0265,0.002));
#1743=CARTESIAN_POINT('',(-0.0135,-3.59118193272392E-18,0.002));
#1744=CARTESIAN_POINT('',(-0.0135,-0.0171,0.002));
#1745=CARTESIAN_POINT('',(-0.0135,-0.0171,0.013002));
#1746=CARTESIAN_POINT('',(-0.0135,-0.0171,0.));
#1747=CARTESIAN_POINT('',(-0.0135,-0.0021,0.));
#1748=CARTESIAN_POINT('',(-0.0135,0.0129,0.));
#1749=CARTESIAN_POINT('',(-0.0135,0.0129,0.013002));
#1750=CARTESIAN_POINT('',(-0.0135,0.0129,0.002));
#1751=CARTESIAN_POINT('',(-0.0135,-3.59118193272392E-18,0.002));
#1752=CARTESIAN_POINT('',(-0.0135,0.0265,0.002));
#1753=CARTESIAN_POINT('',(-0.0135,0.0265,0.013));
#1754=CARTESIAN_POINT('',(-3.46944695195361E-18,0.,0.002));
#1755=CARTESIAN_POINT('',(-1.7347234759768E-18,-0.0171,0.002));
#1756=CARTESIAN_POINT('',(-3.69328223917643E-18,-0.0265,0.002));
#1757=CARTESIAN_POINT('',(0.,-0.0201,0.002));
#1758=CARTESIAN_POINT('',(0.0105,-0.0201,0.002));
#1759=CARTESIAN_POINT('',(-0.0105,-0.0201,0.002));
#1760=CARTESIAN_POINT('',(0.0105,-0.0223,0.002));
#1761=CARTESIAN_POINT('',(0.0105,-0.0245,0.002));
#1762=CARTESIAN_POINT('',(0.,-0.0245,0.002));
#1763=CARTESIAN_POINT('',(-0.0105,-0.0245,0.002));
#1764=CARTESIAN_POINT('',(-0.0105,-0.0223,0.002));
#1765=CARTESIAN_POINT('',(-3.46944695195361E-18,0.,0.002));
#1766=CARTESIAN_POINT('',(-1.7347234759768E-18,0.0129,0.002));
#1767=CARTESIAN_POINT('',(4.47670574445628E-19,0.0265,0.002));
#1768=CARTESIAN_POINT('',(0.00254558441227157,0.0164455844122715,0.002));
#1769=CARTESIAN_POINT('',(4.33680868994202E-19,0.0139,0.002));
#1770=CARTESIAN_POINT('',(0.00509116882454314,0.0189911688245432,0.002));
#1771=CARTESIAN_POINT('',(-0.00254558441227157,0.0164455844122715,0.002));
#1772=CARTESIAN_POINT('',(-0.00509116882454314,0.0189911688245432,0.002));
#1773=CARTESIAN_POINT('',(-0.00254558441227157,0.0215367532368147,0.002));
#1774=CARTESIAN_POINT('',(-3.03576608295941E-18,0.0240823376490863,0.002));
#1775=CARTESIAN_POINT('',(0.00254558441227157,0.0215367532368147,0.002));
#1776=CARTESIAN_POINT('',(-3.46944695195361E-18,0.,0.013));
#1777=CARTESIAN_POINT('',(-3.46944695195361E-18,-0.0285,0.013));
#1778=CARTESIAN_POINT('',(0.0155,-0.0285,0.013));
#1779=CARTESIAN_POINT('',(-0.0155,-0.0285,0.013));
#1780=CARTESIAN_POINT('',(0.0155,3.46944695195361E-18,0.013));
#1781=CARTESIAN_POINT('',(0.0155,0.0285,0.013));
#1782=CARTESIAN_POINT('',(0.,0.0285,0.013));
#1783=CARTESIAN_POINT('',(-0.0155,0.0285,0.013));
#1784=CARTESIAN_POINT('',(-0.0155,-3.46944695195361E-18,0.013));
#1785=CARTESIAN_POINT('',(0.0135,3.59118193272392E-18,0.013));
#1786=CARTESIAN_POINT('',(0.0135,-0.0265,0.013));
#1787=CARTESIAN_POINT('',(0.0135,0.0265,0.013));
#1788=CARTESIAN_POINT('',(-3.69328223917643E-18,-0.0265,0.013));
#1789=CARTESIAN_POINT('',(-0.0135,-0.0265,0.013));
#1790=CARTESIAN_POINT('',(-0.0135,-3.59118193272392E-18,0.013));
#1791=CARTESIAN_POINT('',(-0.0135,0.0265,0.013));
#1792=CARTESIAN_POINT('',(4.47670574445628E-19,0.0265,0.013));
#1793=CARTESIAN_POINT('',(-3.46944695195361E-18,-0.0285,0.013));
#1794=CARTESIAN_POINT('',(-3.46944695195361E-18,-0.0285,0.));
#1795=CARTESIAN_POINT('',(0.0155,-0.0285,0.));
#1796=CARTESIAN_POINT('',(-0.0155,-0.0285,0.));
#1797=CARTESIAN_POINT('',(0.0155,-0.0285,0.013));
#1798=CARTESIAN_POINT('',(-0.0155,-0.0285,0.013));
#1799=CARTESIAN_POINT('',(0.0155,3.46944695195361E-18,0.013));
#1800=CARTESIAN_POINT('',(0.0155,3.46944695195361E-18,0.));
#1801=CARTESIAN_POINT('',(0.0155,0.0285,0.));
#1802=CARTESIAN_POINT('',(0.0155,0.0285,0.013));
#1803=CARTESIAN_POINT('',(0.,0.0285,0.013));
#1804=CARTESIAN_POINT('',(0.,0.0285,0.));
#1805=CARTESIAN_POINT('',(-0.0155,0.0285,0.));
#1806=CARTESIAN_POINT('',(-0.0155,0.0285,0.013));
#1807=CARTESIAN_POINT('',(-0.0155,-3.46944695195361E-18,0.013));
#1808=CARTESIAN_POINT('',(-0.0155,-3.46944695195361E-18,0.));
#1809=CARTESIAN_POINT('',(-3.46944695195361E-18,0.,0.));
#1810=CARTESIAN_POINT('',(0.,-0.0245,0.));
#1811=CARTESIAN_POINT('',(0.0105,-0.0245,0.));
#1812=CARTESIAN_POINT('',(-0.0105,-0.0245,0.));
#1813=CARTESIAN_POINT('',(0.0105,-0.0223,0.));
#1814=CARTESIAN_POINT('',(0.0105,-0.0201,0.));
#1815=CARTESIAN_POINT('',(0.,-0.0201,0.));
#1816=CARTESIAN_POINT('',(-0.0105,-0.0201,0.));
#1817=CARTESIAN_POINT('',(-0.0105,-0.0223,0.));
#1818=CARTESIAN_POINT('',(-1.7347234759768E-18,-0.0171,0.));
#1819=CARTESIAN_POINT('',(-1.7347234759768E-18,0.0129,0.));
#1820=CARTESIAN_POINT('',(-0.00254558441227157,0.0215367532368147,0.));
#1821=CARTESIAN_POINT('',(-1.7347234759768E-18,0.0240823376490863,0.));
#1822=CARTESIAN_POINT('',(-0.00509116882454314,0.0189911688245432,0.));
#1823=CARTESIAN_POINT('',(-0.00254558441227157,0.0164455844122715,0.));
#1824=CARTESIAN_POINT('',(4.33680868994202E-19,0.0139,0.));
#1825=CARTESIAN_POINT('',(0.00254558441227157,0.0164455844122715,0.));
#1826=CARTESIAN_POINT('',(0.00509116882454314,0.0189911688245432,0.));
#1827=CARTESIAN_POINT('',(0.00254558441227157,0.0215367532368147,0.));
#1828=CARTESIAN_POINT('',(-3.69328223917643E-18,-0.0265,0.013));
#1829=CARTESIAN_POINT('',(-0.0135,-0.0265,0.0115));
#1830=CARTESIAN_POINT('',(-0.0135,-0.0265,0.012));
#1831=CARTESIAN_POINT('',(-0.0135,-0.0265,0.013));
#1832=CARTESIAN_POINT('',(0.0135,-0.0265,0.013));
#1833=CARTESIAN_POINT('',(0.0135,-0.0265,0.012));
#1834=CARTESIAN_POINT('',(0.0135,-0.0265,0.0115));
#1835=CARTESIAN_POINT('',(0.0135,3.59118193272392E-18,0.013));
#1836=CARTESIAN_POINT('',(0.0135,-0.026502,0.012));
#1837=CARTESIAN_POINT('',(0.0135,0.0265,0.012));
#1838=CARTESIAN_POINT('',(0.0135,0.0265,0.013));
#1839=CARTESIAN_POINT('',(4.47670574445628E-19,0.0265,0.013));
#1840=CARTESIAN_POINT('',(0.0135,0.0265,0.0115));
#1841=CARTESIAN_POINT('',(-0.0135,0.0265,0.013));
#1842=CARTESIAN_POINT('',(-0.0135,0.0265,0.012));
#1843=CARTESIAN_POINT('',(-0.0135,0.0265,0.0115));
#1844=CARTESIAN_POINT('',(-0.0135,-3.59118193272392E-18,0.013));
#1845=CARTESIAN_POINT('',(-0.0135,-0.026502,0.012));
#1846=CARTESIAN_POINT('',(-0.00254558441227157,0.0164455844122715,0.013002));
#1847=CARTESIAN_POINT('',(4.33680868994202E-19,0.0139,0.013002));
#1848=CARTESIAN_POINT('',(-0.00509116882454314,0.0189911688245432,0.013002));
#1849=CARTESIAN_POINT('',(-0.00254558441227157,0.0215367532368147,0.013002));
#1850=CARTESIAN_POINT('',(-3.03576608295941E-18,0.0240823376490863,0.013002));
#1851=CARTESIAN_POINT('',(0.00254558441227157,0.0164455844122715,0.013002));
#1852=CARTESIAN_POINT('',(0.00509116882454314,0.0189911688245432,0.013002));
#1853=CARTESIAN_POINT('',(0.00254558441227157,0.0215367532368147,0.013002));
#1854=CARTESIAN_POINT('',(-1.7347234759768E-18,0.0129,0.013002));
#1855=CARTESIAN_POINT('',(-1.7347234759768E-18,-0.0171,0.013002));
#1856=CARTESIAN_POINT('',(0.0105,-0.0223,0.013002));
#1857=CARTESIAN_POINT('',(0.0105,-0.0201,0.013002));
#1858=CARTESIAN_POINT('',(0.0105,-0.0245,0.013002));
#1859=CARTESIAN_POINT('',(0.,-0.0245,0.013002));
#1860=CARTESIAN_POINT('',(-0.0105,-0.0245,0.013002));
#1861=CARTESIAN_POINT('',(0.,-0.0201,0.013002));
#1862=CARTESIAN_POINT('',(-0.0105,-0.0201,0.013002));
#1863=CARTESIAN_POINT('',(-0.0105,-0.0223,0.013002));
#1864=CARTESIAN_POINT('',(-0.0135,-0.026502,0.0115));
#1865=CARTESIAN_POINT('',(0.0135,-0.026502,0.0115));
#1866=CARTESIAN_POINT('',(-0.000123769728816114,7.66141165513511E-5,0.0177221089089289));
#1867=CARTESIAN_POINT('',(1.7347234759768E-18,0.,0.0071));
#1868=CARTESIAN_POINT('',(0.0065,-0.024,0.0071));
#1869=CARTESIAN_POINT('',(0.0075,-0.024,0.0071));
#1870=CARTESIAN_POINT('',(0.0065,-0.024,0.0071));
#1871=CARTESIAN_POINT('',(0.00825,-0.024,0.0071));
#1872=CARTESIAN_POINT('',(0.0065,-0.024,0.0071));
#1873=CARTESIAN_POINT('',(0.0065,-0.024,0.0016));
#1874=CARTESIAN_POINT('',(0.00825,-0.024,0.0016));
#1875=CARTESIAN_POINT('',(-1.7347234759768E-18,0.,0.0071));
#1876=CARTESIAN_POINT('',(-0.0065,-0.024,0.0071));
#1877=CARTESIAN_POINT('',(-0.0075,-0.024,0.0071));
#1878=CARTESIAN_POINT('',(-0.0065,-0.024,0.0071));
#1879=CARTESIAN_POINT('',(-0.00825,-0.024,0.0071));
#1880=CARTESIAN_POINT('',(-0.0065,-0.024,0.0016));
#1881=CARTESIAN_POINT('',(-0.0065,-0.024,0.0016));
#1882=CARTESIAN_POINT('',(-0.0075,-0.024,0.0016));
#1883=CARTESIAN_POINT('',(-0.0065,-0.024,0.0016));
#1884=CARTESIAN_POINT('',(-0.0065,-0.024,0.0071));
#1885=CARTESIAN_POINT('',(-0.0065,-0.024,0.0016));
#1886=CARTESIAN_POINT('',(-0.00825,-0.024,0.0016));
#1887=CARTESIAN_POINT('',(0.0065,-0.024,0.0016));
#1888=CARTESIAN_POINT('',(0.0065,-0.024,0.0016));
#1889=CARTESIAN_POINT('',(0.0075,-0.024,0.0016));
#1890=CARTESIAN_POINT('',(0.0065,-0.024,0.0016));
#1891=CARTESIAN_POINT('',(-1.7347234759768E-18,0.,0.0071));
#1892=CARTESIAN_POINT('',(-0.0065,0.024,0.0071));
#1893=CARTESIAN_POINT('',(-0.0075,0.024,0.0071));
#1894=CARTESIAN_POINT('',(-0.0065,0.024,0.0071));
#1895=CARTESIAN_POINT('',(-0.00825,0.024,0.0071));
#1896=CARTESIAN_POINT('',(-0.0065,0.024,0.0071));
#1897=CARTESIAN_POINT('',(-0.0065,0.024,0.0016));
#1898=CARTESIAN_POINT('',(-0.00825,0.024,0.0016));
#1899=CARTESIAN_POINT('',(-0.0065,0.024,0.0016));
#1900=CARTESIAN_POINT('',(-0.0065,0.024,0.0016));
#1901=CARTESIAN_POINT('',(-0.0075,0.024,0.0016));
#1902=CARTESIAN_POINT('',(-0.0065,0.024,0.0016));
#1903=CARTESIAN_POINT('',(0.0135,-3.46944695195361E-18,0.013));
#1904=CARTESIAN_POINT('',(0.0135,0.0265,0.013));
#1905=CARTESIAN_POINT('',(0.0135,0.0265,0.012));
#1906=CARTESIAN_POINT('',(0.0135,0.0265,0.011));
#1907=CARTESIAN_POINT('',(0.0135,0.026502,0.012));
#1908=CARTESIAN_POINT('',(0.0135,-0.0265,0.012));
#1909=CARTESIAN_POINT('',(0.0135,-0.0265,0.013));
#1910=CARTESIAN_POINT('',(0.0135,-0.0265,0.011));
#1911=CARTESIAN_POINT('',(0.0135,-3.46944695195361E-18,0.011));
#1912=CARTESIAN_POINT('',(-6.93889390390723E-18,0.,0.011));
#1913=CARTESIAN_POINT('',(-9.54097911787244E-18,-0.0285,0.011));
#1914=CARTESIAN_POINT('',(0.0155,-0.0285,0.011));
#1915=CARTESIAN_POINT('',(-0.0155,-0.0285,0.011));
#1916=CARTESIAN_POINT('',(0.0155,3.46944695195361E-18,0.011));
#1917=CARTESIAN_POINT('',(0.0155,0.0285,0.011));
#1918=CARTESIAN_POINT('',(-5.20417042793042E-18,0.0285,0.011));
#1919=CARTESIAN_POINT('',(-0.0155,0.0285,0.011));
#1920=CARTESIAN_POINT('',(-0.0155,0.,0.011));
#1921=CARTESIAN_POINT('',(3.46944695195361E-18,0.0265,0.011));
#1922=CARTESIAN_POINT('',(0.0115,0.0265,0.011));
#1923=CARTESIAN_POINT('',(-0.0115,0.0265,0.011));
#1924=CARTESIAN_POINT('',(0.0125,0.0265,0.011));
#1925=CARTESIAN_POINT('',(0.0125,-0.0265,0.011));
#1926=CARTESIAN_POINT('',(0.0115,-0.0265,0.011));
#1927=CARTESIAN_POINT('',(0.,-0.0265,0.011));
#1928=CARTESIAN_POINT('',(-0.0115,-0.0265,0.011));
#1929=CARTESIAN_POINT('',(-0.0125,-0.0265,0.011));
#1930=CARTESIAN_POINT('',(-0.0135,-0.0265,0.011));
#1931=CARTESIAN_POINT('',(-0.0135,-3.46944695195361E-18,0.011));
#1932=CARTESIAN_POINT('',(-0.0135,0.0265,0.011));
#1933=CARTESIAN_POINT('',(-0.0125,0.0265,0.011));
#1934=CARTESIAN_POINT('',(-6.93889390390723E-18,3.46944695195361E-18,0.0016));
#1935=CARTESIAN_POINT('',(0.0065,0.024,0.0016));
#1936=CARTESIAN_POINT('',(0.00825,0.024,0.0016));
#1937=CARTESIAN_POINT('',(0.,-0.0265,0.0016));
#1938=CARTESIAN_POINT('',(0.0115,-0.0265,0.0016));
#1939=CARTESIAN_POINT('',(-0.0115,-0.0265,0.0016));
#1940=CARTESIAN_POINT('',(0.0115,3.46944695195361E-18,0.0016));
#1941=CARTESIAN_POINT('',(0.0115,0.0265,0.0016));
#1942=CARTESIAN_POINT('',(3.46944695195361E-18,0.0265,0.0016));
#1943=CARTESIAN_POINT('',(-0.0115,0.0265,0.0016));
#1944=CARTESIAN_POINT('',(-0.0115,0.,0.0016));
#1945=CARTESIAN_POINT('',(-1.12034224490169E-18,-0.0155,0.0016));
#1946=CARTESIAN_POINT('',(-0.001,-0.0155,0.0016));
#1947=CARTESIAN_POINT('',(0.001,-0.0155,0.0016));
#1948=CARTESIAN_POINT('',(0.001,-0.016,0.0016));
#1949=CARTESIAN_POINT('',(0.001,-0.0165,0.0016));
#1950=CARTESIAN_POINT('',(-6.14381231075119E-19,-0.0165,0.0016));
#1951=CARTESIAN_POINT('',(-0.001,-0.0165,0.0016));
#1952=CARTESIAN_POINT('',(-0.001,-0.016,0.0016));
#1953=CARTESIAN_POINT('',(-0.0135,-3.46944695195361E-18,0.013));
#1954=CARTESIAN_POINT('',(-0.0135,0.026502,0.012));
#1955=CARTESIAN_POINT('',(-0.0135,0.0265,0.012));
#1956=CARTESIAN_POINT('',(-0.0135,-0.0265,0.012));
#1957=CARTESIAN_POINT('',(-0.0135,0.0265,0.013));
#1958=CARTESIAN_POINT('',(-0.0135,-0.0265,0.013));
#1959=CARTESIAN_POINT('',(-9.54097911787244E-18,-0.0285,0.011));
#1960=CARTESIAN_POINT('',(0.004,-0.0285,0.0065));
#1961=CARTESIAN_POINT('',(0.004,-0.0285,0.005));
#1962=CARTESIAN_POINT('',(0.004,-0.0285,0.008));
#1963=CARTESIAN_POINT('',(3.46944695195361E-18,-0.0285,0.005));
#1964=CARTESIAN_POINT('',(-0.004,-0.0285,0.005));
#1965=CARTESIAN_POINT('',(-0.004,-0.0285,0.0065));
#1966=CARTESIAN_POINT('',(-0.004,-0.0285,0.008));
#1967=CARTESIAN_POINT('',(3.46944695195361E-18,-0.0285,0.008));
#1968=CARTESIAN_POINT('',(-9.54097911787244E-18,-0.0285,0.));
#1969=CARTESIAN_POINT('',(0.0155,-0.0285,0.));
#1970=CARTESIAN_POINT('',(-0.0155,-0.0285,0.));
#1971=CARTESIAN_POINT('',(0.0155,-0.0285,0.011));
#1972=CARTESIAN_POINT('',(-0.0155,-0.0285,0.011));
#1973=CARTESIAN_POINT('',(0.0155,3.46944695195361E-18,0.011));
#1974=CARTESIAN_POINT('',(0.0155,3.46944695195361E-18,0.));
#1975=CARTESIAN_POINT('',(0.0155,0.0285,0.));
#1976=CARTESIAN_POINT('',(0.0155,0.0285,0.011));
#1977=CARTESIAN_POINT('',(-5.20417042793042E-18,0.0285,0.011));
#1978=CARTESIAN_POINT('',(-5.20417042793042E-18,0.0285,0.));
#1979=CARTESIAN_POINT('',(-0.0155,0.0285,0.));
#1980=CARTESIAN_POINT('',(-0.0155,0.0285,0.011));
#1981=CARTESIAN_POINT('',(-0.0155,0.,0.011));
#1982=CARTESIAN_POINT('',(-0.0155,0.,0.));
#1983=CARTESIAN_POINT('',(-6.93889390390723E-18,0.,0.));
#1984=CARTESIAN_POINT('',(-0.001,-0.016,0.));
#1985=CARTESIAN_POINT('',(-0.001,-0.0155,0.));
#1986=CARTESIAN_POINT('',(-0.001,-0.0165,0.));
#1987=CARTESIAN_POINT('',(-6.14381231075119E-19,-0.0165,0.));
#1988=CARTESIAN_POINT('',(0.001,-0.0165,0.));
#1989=CARTESIAN_POINT('',(0.001,-0.016,0.));
#1990=CARTESIAN_POINT('',(0.001,-0.0155,0.));
#1991=CARTESIAN_POINT('',(-1.12034224490169E-18,-0.0155,0.));
#1992=CARTESIAN_POINT('',(0.,-0.0265,0.0016));
#1993=CARTESIAN_POINT('',(0.004,-0.0265,0.0065));
#1994=CARTESIAN_POINT('',(0.004,-0.0265,0.005));
#1995=CARTESIAN_POINT('',(0.004,-0.0265,0.008));
#1996=CARTESIAN_POINT('',(-2.9100825691838E-18,-0.0265,0.008));
#1997=CARTESIAN_POINT('',(-0.004,-0.0265,0.008));
#1998=CARTESIAN_POINT('',(-0.004,-0.0265,0.0065));
#1999=CARTESIAN_POINT('',(-0.004,-0.0265,0.005));
#2000=CARTESIAN_POINT('',(-2.9100825691838E-18,-0.0265,0.005));
#2001=CARTESIAN_POINT('',(0.0115,-0.0265,0.0016));
#2002=CARTESIAN_POINT('',(-0.0115,-0.0265,0.0016));
#2003=CARTESIAN_POINT('',(0.0115,3.46944695195361E-18,0.0016));
#2004=CARTESIAN_POINT('',(0.0115,-0.0265,0.013));
#2005=CARTESIAN_POINT('',(0.0115,-0.0265,0.013));
#2006=CARTESIAN_POINT('',(0.0115,0.,0.013));
#2007=CARTESIAN_POINT('',(0.0115,0.0265,0.013));
#2008=CARTESIAN_POINT('',(0.0115,0.0265,0.013));
#2009=CARTESIAN_POINT('',(0.0115,0.0265,0.0016));
#2010=CARTESIAN_POINT('',(3.46944695195361E-18,0.0265,0.0016));
#2011=CARTESIAN_POINT('',(-0.0115,0.0265,0.0016));
#2012=CARTESIAN_POINT('',(-0.0115,0.,0.0016));
#2013=CARTESIAN_POINT('',(-0.0115,0.0265,0.013));
#2014=CARTESIAN_POINT('',(-0.0115,0.0265,0.013));
#2015=CARTESIAN_POINT('',(-0.0115,0.,0.013));
#2016=CARTESIAN_POINT('',(-0.0115,-0.0265,0.013));
#2017=CARTESIAN_POINT('',(-0.0115,-0.0265,0.013));
#2018=CARTESIAN_POINT('',(-0.0125,0.0265,0.013));
#2019=CARTESIAN_POINT('',(-0.0135,0.0265,0.0125));
#2020=CARTESIAN_POINT('',(-0.0135,0.0265,0.013));
#2021=CARTESIAN_POINT('',(-0.0125,0.0265,0.013));
#2022=CARTESIAN_POINT('',(-0.0125,-0.0265,0.013));
#2023=CARTESIAN_POINT('',(-0.0125,-0.0265,0.013));
#2024=CARTESIAN_POINT('',(-0.0135,-0.0265,0.013));
#2025=CARTESIAN_POINT('',(-0.0135,-0.0265,0.0125));
#2026=CARTESIAN_POINT('',(-6.93889390390723E-18,3.46944695195361E-18,0.013));
#2027=CARTESIAN_POINT('',(-0.0135,-3.46944695195361E-18,0.013));
#2028=CARTESIAN_POINT('',(-0.0135,0.026502,0.0125));
#2029=CARTESIAN_POINT('',(0.001,-0.016,0.013002));
#2030=CARTESIAN_POINT('',(0.001,-0.0155,0.013002));
#2031=CARTESIAN_POINT('',(0.001,-0.0165,0.0016));
#2032=CARTESIAN_POINT('',(-0.001,-0.016,0.013002));
#2033=CARTESIAN_POINT('',(-0.001,-0.0155,0.0016));
#2034=CARTESIAN_POINT('',(-0.001,-0.0165,0.013002));
#2035=CARTESIAN_POINT('',(0.0125,-0.0265,0.013));
#2036=CARTESIAN_POINT('',(0.0135,-0.0265,0.0125));
#2037=CARTESIAN_POINT('',(0.0135,-0.0265,0.013));
#2038=CARTESIAN_POINT('',(0.0125,-0.0265,0.013));
#2039=CARTESIAN_POINT('',(0.0125,0.0265,0.013));
#2040=CARTESIAN_POINT('',(0.0125,0.0265,0.013));
#2041=CARTESIAN_POINT('',(0.0135,0.0265,0.013));
#2042=CARTESIAN_POINT('',(0.0135,0.0265,0.0125));
#2043=CARTESIAN_POINT('',(6.93889390390723E-18,3.46944695195361E-18,0.013));
#2044=CARTESIAN_POINT('',(0.0135,-3.46944695195361E-18,0.013));
#2045=CARTESIAN_POINT('',(0.0135,0.026502,0.0125));
#2046=CARTESIAN_POINT('',(-6.86661375907486E-19,-0.0155,0.013002));
#2047=CARTESIAN_POINT('',(-1.04806210006932E-18,-0.0165,0.013002));
#2048=CARTESIAN_POINT('',(0.0065,0.024,0.0071));
#2049=CARTESIAN_POINT('',(0.0065,0.024,0.0071));
#2050=CARTESIAN_POINT('',(0.00825,0.024,0.0071));
#2051=CARTESIAN_POINT('',(1.7347234759768E-18,0.,0.0071));
#2052=CARTESIAN_POINT('',(0.0065,0.024,0.0071));
#2053=CARTESIAN_POINT('',(0.0075,0.024,0.0071));
#2054=CARTESIAN_POINT('',(0.0065,0.024,0.0016));
#2055=CARTESIAN_POINT('',(0.0065,0.024,0.0016));
#2056=CARTESIAN_POINT('',(0.0075,0.024,0.0016));
#2057=CARTESIAN_POINT('',(0.0065,0.024,0.0016));
#2058=CARTESIAN_POINT('',(0.004,0.028502,0.0065));
#2059=CARTESIAN_POINT('',(0.004,0.028502,0.005));
#2060=CARTESIAN_POINT('',(0.004,0.028502,0.008));
#2061=CARTESIAN_POINT('',(-2.9100825691838E-18,0.028502,0.008));
#2062=CARTESIAN_POINT('',(-0.004,0.028502,0.008));
#2063=CARTESIAN_POINT('',(-2.9100825691838E-18,0.028502,0.005));
#2064=CARTESIAN_POINT('',(-0.004,0.028502,0.005));
#2065=CARTESIAN_POINT('',(-0.004,0.028502,0.0065));
#2066=CARTESIAN_POINT('',(-0.000123769728816107,7.66141165513511E-5,-0.00627789109107107));
#2067=MECHANICAL_DESIGN_GEOMETRIC_PRESENTATION_REPRESENTATION('',(#1256,
#1257),#2068);
#2068=(
GEOMETRIC_REPRESENTATION_CONTEXT(3)
GLOBAL_UNCERTAINTY_ASSIGNED_CONTEXT((#2071))
GLOBAL_UNIT_ASSIGNED_CONTEXT((#2076,#2075,#2074))
REPRESENTATION_CONTEXT('waveshare-raspberry-pi-pico',
'TOP_LEVEL_ASSEMBLY_PART')
);
#2069=(
GEOMETRIC_REPRESENTATION_CONTEXT(3)
GLOBAL_UNCERTAINTY_ASSIGNED_CONTEXT((#2072))
GLOBAL_UNIT_ASSIGNED_CONTEXT((#2076,#2075,#2074))
REPRESENTATION_CONTEXT('top','COMPONENT_PART')
);
#2070=(
GEOMETRIC_REPRESENTATION_CONTEXT(3)
GLOBAL_UNCERTAINTY_ASSIGNED_CONTEXT((#2073))
GLOBAL_UNIT_ASSIGNED_CONTEXT((#2076,#2075,#2074))
REPRESENTATION_CONTEXT('bottom','COMPONENT_PART')
);
#2071=UNCERTAINTY_MEASURE_WITH_UNIT(LENGTH_MEASURE(1.E-8),#2076,
'DISTANCE_ACCURACY_VALUE','Maximum Tolerance applied to model');
#2072=UNCERTAINTY_MEASURE_WITH_UNIT(LENGTH_MEASURE(1.E-8),#2076,
'DISTANCE_ACCURACY_VALUE','Maximum Tolerance applied to model');
#2073=UNCERTAINTY_MEASURE_WITH_UNIT(LENGTH_MEASURE(1.E-8),#2076,
'DISTANCE_ACCURACY_VALUE','Maximum Tolerance applied to model');
#2074=(
NAMED_UNIT(*)
SI_UNIT($,.STERADIAN.)
SOLID_ANGLE_UNIT()
);
#2075=(
NAMED_UNIT(*)
PLANE_ANGLE_UNIT()
SI_UNIT($,.RADIAN.)
);
#2076=(
LENGTH_UNIT()
NAMED_UNIT(*)
SI_UNIT($,.METRE.)
);
#2077=PRODUCT_DEFINITION_SHAPE('','',#2082);
#2078=PRODUCT_DEFINITION_SHAPE('','',#2083);
#2079=PRODUCT_DEFINITION_SHAPE(' ','NAUO PRDDFN',#12);
#2080=PRODUCT_DEFINITION_SHAPE('','',#2084);
#2081=PRODUCT_DEFINITION_SHAPE(' ','NAUO PRDDFN',#13);
#2082=PRODUCT_DEFINITION('','',#2088,#2085);
#2083=PRODUCT_DEFINITION('','',#2089,#2086);
#2084=PRODUCT_DEFINITION('','',#2090,#2087);
#2085=PRODUCT_DEFINITION_CONTEXT('',#2104,'design');
#2086=PRODUCT_DEFINITION_CONTEXT('',#2104,'design');
#2087=PRODUCT_DEFINITION_CONTEXT('',#2104,'design');
#2088=PRODUCT_DEFINITION_FORMATION_WITH_SPECIFIED_SOURCE('','',#2094,
 .NOT_KNOWN.);
#2089=PRODUCT_DEFINITION_FORMATION_WITH_SPECIFIED_SOURCE('','',#2095,
 .NOT_KNOWN.);
#2090=PRODUCT_DEFINITION_FORMATION_WITH_SPECIFIED_SOURCE('','',#2096,
 .NOT_KNOWN.);
#2091=PRODUCT_RELATED_PRODUCT_CATEGORY('','',(#2094));
#2092=PRODUCT_RELATED_PRODUCT_CATEGORY('','',(#2095));
#2093=PRODUCT_RELATED_PRODUCT_CATEGORY('','',(#2096));
#2094=PRODUCT('waveshare-raspberry-pi-pico',
'waveshare-raspberry-pi-pico','waveshare-raspberry-pi-pico',(#2100));
#2095=PRODUCT('top','top','top',(#2101));
#2096=PRODUCT('bottom','bottom','bottom',(#2102));
#2097=PRODUCT_CATEGORY('','');
#2098=PRODUCT_CATEGORY('','');
#2099=PRODUCT_CATEGORY('','');
#2100=PRODUCT_CONTEXT('',#2104,'mechanical');
#2101=PRODUCT_CONTEXT('',#2104,'mechanical');
#2102=PRODUCT_CONTEXT('',#2104,'mechanical');
#2103=APPLICATION_PROTOCOL_DEFINITION('international standard',
'ap242_managed_model_based_3d_engineering',2020,#2104);
#2104=APPLICATION_CONTEXT('managed model based 3d engineering');
ENDSEC;
END-ISO-10303-21;
