<svg xmlns="http://www.w3.org/2000/svg" width="1040" height="1050" viewBox="0 0 1040 1050" font-family="Helvetica, Arial, sans-serif">
<rect width="1040" height="1050" fill="#fff"/>
<text x="30" y="40" font-size="24" font-weight="bold" fill="#111">Build 1 wiring: Pico 2 W + 2.0" ST7789 + EC11 knob + McGuffin jacks</text>
<text x="30" y="64" font-size="14" fill="#555">Component side up, USB at the top. No resistors, caps or transistors needed. Powered over USB.</text>
<rect x="520" y="96" width="160" height="626" rx="6" fill="#1b7a3a" stroke="#0d3d1d" stroke-width="2"/>
<rect x="578.0" y="84" width="44" height="22" rx="3" fill="#bbb" stroke="#555"/>
<text x="600.0" y="99" font-size="10" text-anchor="middle" fill="#222">USB</text>
<text x="600.0" y="706" font-size="15" font-weight="bold" text-anchor="middle" fill="#fff">Pico 2 W</text>
<circle cx="520" cy="140" r="5" fill="#9e9e9e" stroke="#111"/>
<text x="530" y="144" font-size="11" fill="#a5d6a7">1 GP0</text>
<circle cx="520" cy="168" r="5" fill="#ffd54f" stroke="#111"/>
<text x="530" y="172" font-size="11" fill="#fff">2 GP1</text>
<circle cx="520" cy="196" r="5" fill="#ffd54f" stroke="#111"/>
<text x="530" y="200" font-size="11" fill="#fff">3 GND</text>
<circle cx="520" cy="224" r="5" fill="#ffd54f" stroke="#111"/>
<text x="530" y="228" font-size="11" fill="#fff">4 GP2</text>
<circle cx="520" cy="252" r="5" fill="#ffd54f" stroke="#111"/>
<text x="530" y="256" font-size="11" fill="#fff">5 GP3</text>
<circle cx="520" cy="280" r="5" fill="#ffd54f" stroke="#111"/>
<text x="530" y="284" font-size="11" fill="#fff">6 GP4</text>
<circle cx="520" cy="308" r="5" fill="#ffd54f" stroke="#111"/>
<text x="530" y="312" font-size="11" fill="#fff">7 GP5</text>
<circle cx="520" cy="336" r="5" fill="#ffd54f" stroke="#111"/>
<text x="530" y="340" font-size="11" fill="#fff">8 GND</text>
<circle cx="520" cy="364" r="5" fill="#ffd54f" stroke="#111"/>
<text x="530" y="368" font-size="11" fill="#fff">9 GP6</text>
<circle cx="520" cy="392" r="5" fill="#9e9e9e" stroke="#111"/>
<text x="530" y="396" font-size="11" fill="#a5d6a7">10 GP7</text>
<circle cx="520" cy="420" r="5" fill="#ffd54f" stroke="#111"/>
<text x="530" y="424" font-size="11" fill="#fff">11 GP8</text>
<circle cx="520" cy="448" r="5" fill="#ffd54f" stroke="#111"/>
<text x="530" y="452" font-size="11" fill="#fff">12 GP9</text>
<circle cx="520" cy="476" r="5" fill="#9e9e9e" stroke="#111"/>
<text x="530" y="480" font-size="11" fill="#a5d6a7">13 GND</text>
<circle cx="520" cy="504" r="5" fill="#ffd54f" stroke="#111"/>
<text x="530" y="508" font-size="11" fill="#fff">14 GP10</text>
<circle cx="520" cy="532" r="5" fill="#ffd54f" stroke="#111"/>
<text x="530" y="536" font-size="11" fill="#fff">15 GP11</text>
<circle cx="520" cy="560" r="5" fill="#ffd54f" stroke="#111"/>
<text x="530" y="564" font-size="11" fill="#fff">16 GP12</text>
<circle cx="520" cy="588" r="5" fill="#ffd54f" stroke="#111"/>
<text x="530" y="592" font-size="11" fill="#fff">17 GP13</text>
<circle cx="520" cy="616" r="5" fill="#ffd54f" stroke="#111"/>
<text x="530" y="620" font-size="11" fill="#fff">18 GND</text>
<circle cx="520" cy="644" r="5" fill="#9e9e9e" stroke="#111"/>
<text x="530" y="648" font-size="11" fill="#a5d6a7">19 GP14</text>
<circle cx="520" cy="672" r="5" fill="#9e9e9e" stroke="#111"/>
<text x="530" y="676" font-size="11" fill="#a5d6a7">20 GP15</text>
<circle cx="680" cy="140" r="5" fill="#9e9e9e" stroke="#111"/>
<text x="670" y="144" font-size="11" text-anchor="end" fill="#a5d6a7">VBUS 40</text>
<circle cx="680" cy="168" r="5" fill="#9e9e9e" stroke="#111"/>
<text x="670" y="172" font-size="11" text-anchor="end" fill="#a5d6a7">VSYS 39</text>
<circle cx="680" cy="196" r="5" fill="#9e9e9e" stroke="#111"/>
<text x="670" y="200" font-size="11" text-anchor="end" fill="#a5d6a7">GND 38</text>
<circle cx="680" cy="224" r="5" fill="#9e9e9e" stroke="#111"/>
<text x="670" y="228" font-size="11" text-anchor="end" fill="#a5d6a7">3V3_EN 37</text>
<circle cx="680" cy="252" r="5" fill="#ffd54f" stroke="#111"/>
<text x="670" y="256" font-size="11" text-anchor="end" fill="#fff">3V3 OUT 36</text>
<circle cx="680" cy="280" r="5" fill="#9e9e9e" stroke="#111"/>
<text x="670" y="284" font-size="11" text-anchor="end" fill="#a5d6a7">ADC_VREF 35</text>
<circle cx="680" cy="308" r="5" fill="#9e9e9e" stroke="#111"/>
<text x="670" y="312" font-size="11" text-anchor="end" fill="#a5d6a7">GP28 34</text>
<circle cx="680" cy="336" r="5" fill="#9e9e9e" stroke="#111"/>
<text x="670" y="340" font-size="11" text-anchor="end" fill="#a5d6a7">GND 33</text>
<circle cx="680" cy="364" r="5" fill="#ffd54f" stroke="#111"/>
<text x="670" y="368" font-size="11" text-anchor="end" fill="#fff">GP27 32</text>
<circle cx="680" cy="392" r="5" fill="#ffd54f" stroke="#111"/>
<text x="670" y="396" font-size="11" text-anchor="end" fill="#fff">GP26 31</text>
<circle cx="680" cy="420" r="5" fill="#9e9e9e" stroke="#111"/>
<text x="670" y="424" font-size="11" text-anchor="end" fill="#a5d6a7">RUN 30</text>
<circle cx="680" cy="448" r="5" fill="#ffd54f" stroke="#111"/>
<text x="670" y="452" font-size="11" text-anchor="end" fill="#fff">GP22 29</text>
<circle cx="680" cy="476" r="5" fill="#ffd54f" stroke="#111"/>
<text x="670" y="480" font-size="11" text-anchor="end" fill="#fff">GND 28</text>
<circle cx="680" cy="504" r="5" fill="#9e9e9e" stroke="#111"/>
<text x="670" y="508" font-size="11" text-anchor="end" fill="#a5d6a7">GP21 27</text>
<circle cx="680" cy="532" r="5" fill="#9e9e9e" stroke="#111"/>
<text x="670" y="536" font-size="11" text-anchor="end" fill="#a5d6a7">GP20 26</text>
<circle cx="680" cy="560" r="5" fill="#9e9e9e" stroke="#111"/>
<text x="670" y="564" font-size="11" text-anchor="end" fill="#a5d6a7">GP19 25</text>
<circle cx="680" cy="588" r="5" fill="#9e9e9e" stroke="#111"/>
<text x="670" y="592" font-size="11" text-anchor="end" fill="#a5d6a7">GP18 24</text>
<circle cx="680" cy="616" r="5" fill="#9e9e9e" stroke="#111"/>
<text x="670" y="620" font-size="11" text-anchor="end" fill="#a5d6a7">GND 23</text>
<circle cx="680" cy="644" r="5" fill="#9e9e9e" stroke="#111"/>
<text x="670" y="648" font-size="11" text-anchor="end" fill="#a5d6a7">GP17 22</text>
<circle cx="680" cy="672" r="5" fill="#9e9e9e" stroke="#111"/>
<text x="670" y="676" font-size="11" text-anchor="end" fill="#a5d6a7">GP16 21</text>
<rect x="170" y="148" width="210" height="118" rx="8" fill="#f4f6f8" stroke="#333" stroke-width="1.5"/>
<text x="180" y="170" font-size="14" font-weight="bold" fill="#111">EC11 knob</text>
<text x="180" y="186" font-size="11" fill="#555">rotary + push</text>
<polyline points="380,168 520,168" fill="none" stroke="#17a2b8" stroke-width="3" stroke-linejoin="round" stroke-linecap="round"/>
<circle cx="380" cy="168" r="4.5" fill="#17a2b8" stroke="#111" stroke-width="1"/>
<text x="372" y="172" font-size="12" text-anchor="end" fill="#111">SW</text>
<polyline points="380,196 520,196" fill="none" stroke="#222" stroke-width="3" stroke-linejoin="round" stroke-linecap="round"/>
<circle cx="380" cy="196" r="4.5" fill="#222" stroke="#111" stroke-width="1"/>
<text x="372" y="200" font-size="12" text-anchor="end" fill="#111">C + SW</text>
<polyline points="380,224 520,224" fill="none" stroke="#2a9d4a" stroke-width="3" stroke-linejoin="round" stroke-linecap="round"/>
<circle cx="380" cy="224" r="4.5" fill="#2a9d4a" stroke="#111" stroke-width="1"/>
<text x="372" y="228" font-size="12" text-anchor="end" fill="#111">A</text>
<polyline points="380,252 520,252" fill="none" stroke="#2a9d4a" stroke-width="3" stroke-linejoin="round" stroke-linecap="round"/>
<circle cx="380" cy="252" r="4.5" fill="#2a9d4a" stroke="#111" stroke-width="1"/>
<text x="372" y="256" font-size="12" text-anchor="end" fill="#111">B</text>
<text x="180" y="220" font-size="10" fill="#555">C + one SW leg</text>
<text x="180" y="232" font-size="10" fill="#555">joined at the knob</text>
<rect x="170" y="270" width="210" height="108" rx="8" fill="#f4f6f8" stroke="#333" stroke-width="1.5"/>
<text x="180" y="292" font-size="14" font-weight="bold" fill="#111">3.5 mm TRRS jack</text>
<text x="180" y="308" font-size="11" fill="#555">McGuffin I2C</text>
<polyline points="380,280 520,280" fill="none" stroke="#1f5fd6" stroke-width="3" stroke-linejoin="round" stroke-linecap="round"/>
<circle cx="380" cy="280" r="4.5" fill="#1f5fd6" stroke="#111" stroke-width="1"/>
<text x="372" y="284" font-size="12" text-anchor="end" fill="#111">Tip  SDA</text>
<polyline points="380,308 520,308" fill="none" stroke="#c99700" stroke-width="3" stroke-linejoin="round" stroke-linecap="round"/>
<circle cx="380" cy="308" r="4.5" fill="#c99700" stroke="#111" stroke-width="1"/>
<text x="372" y="312" font-size="12" text-anchor="end" fill="#111">Ring1 SCL</text>
<polyline points="380,336 520,336" fill="none" stroke="#222" stroke-width="3" stroke-linejoin="round" stroke-linecap="round"/>
<circle cx="380" cy="336" r="4.5" fill="#222" stroke="#111" stroke-width="1"/>
<text x="372" y="340" font-size="12" text-anchor="end" fill="#111">Sleeve GND</text>
<polyline points="380,364 520,364" fill="none" stroke="#d62728" stroke-width="3" stroke-linejoin="round" stroke-linecap="round"/>
<circle cx="380" cy="364" r="4.5" fill="#d62728" stroke="#111" stroke-width="1"/>
<text x="372" y="368" font-size="12" text-anchor="end" fill="#111">Ring2 VCC</text>
<rect x="130" y="400" width="250" height="232" rx="8" fill="#f4f6f8" stroke="#333" stroke-width="1.5"/>
<text x="140" y="422" font-size="14" font-weight="bold" fill="#111">ST7789 2.0" 240x320</text>
<text x="140" y="438" font-size="11" fill="#555">8-pin SPI</text>
<polyline points="380,420 520,420" fill="none" stroke="#8e44ad" stroke-width="3" stroke-linejoin="round" stroke-linecap="round"/>
<circle cx="380" cy="420" r="4.5" fill="#8e44ad" stroke="#111" stroke-width="1"/>
<text x="372" y="424" font-size="12" text-anchor="end" fill="#111">DC</text>
<polyline points="380,448 520,448" fill="none" stroke="#8e44ad" stroke-width="3" stroke-linejoin="round" stroke-linecap="round"/>
<circle cx="380" cy="448" r="4.5" fill="#8e44ad" stroke="#111" stroke-width="1"/>
<text x="372" y="452" font-size="12" text-anchor="end" fill="#111">CS</text>
<polyline points="380,504 520,504" fill="none" stroke="#e67e22" stroke-width="3" stroke-linejoin="round" stroke-linecap="round"/>
<circle cx="380" cy="504" r="4.5" fill="#e67e22" stroke="#111" stroke-width="1"/>
<text x="372" y="508" font-size="12" text-anchor="end" fill="#111">SCL (clock)</text>
<polyline points="380,532 520,532" fill="none" stroke="#e67e22" stroke-width="3" stroke-linejoin="round" stroke-linecap="round"/>
<circle cx="380" cy="532" r="4.5" fill="#e67e22" stroke="#111" stroke-width="1"/>
<text x="372" y="536" font-size="12" text-anchor="end" fill="#111">SDA (data)</text>
<polyline points="380,560 520,560" fill="none" stroke="#8e44ad" stroke-width="3" stroke-linejoin="round" stroke-linecap="round"/>
<circle cx="380" cy="560" r="4.5" fill="#8e44ad" stroke="#111" stroke-width="1"/>
<text x="372" y="564" font-size="12" text-anchor="end" fill="#111">RES</text>
<polyline points="380,588 520,588" fill="none" stroke="#8e44ad" stroke-width="3" stroke-linejoin="round" stroke-linecap="round"/>
<circle cx="380" cy="588" r="4.5" fill="#8e44ad" stroke="#111" stroke-width="1"/>
<text x="372" y="592" font-size="12" text-anchor="end" fill="#111">BLK</text>
<polyline points="380,616 520,616" fill="none" stroke="#222" stroke-width="3" stroke-linejoin="round" stroke-linecap="round"/>
<circle cx="380" cy="616" r="4.5" fill="#222" stroke="#111" stroke-width="1"/>
<text x="372" y="620" font-size="12" text-anchor="end" fill="#111">GND</text>
<polyline points="130,476 100,476 100,116 500,116 500,76 720,76 720,252 680,252" fill="none" stroke="#d62728" stroke-width="3" stroke-linejoin="round" stroke-linecap="round"/>
<circle cx="130" cy="476" r="4.5" fill="#d62728" stroke="#111" stroke-width="1"/>
<text x="138" y="480" font-size="12" fill="#111">VCC</text>
<text x="140" y="496" font-size="10" fill="#555">VCC to 3V3, not 5V</text>
<rect x="790" y="290" width="220" height="210" rx="8" fill="#f4f6f8" stroke="#333" stroke-width="1.5"/>
<text x="800" y="312" font-size="14" font-weight="bold" fill="#111">2.5 mm TRRS jack</text>
<text x="800" y="328" font-size="11" fill="#555">McGuffin detect</text>
<polyline points="680,364 790,364" fill="none" stroke="#7f8c8d" stroke-width="3" stroke-linejoin="round" stroke-linecap="round"/>
<circle cx="790" cy="364" r="4.5" fill="#7f8c8d" stroke="#111" stroke-width="1"/>
<text x="798" y="368" font-size="12" fill="#111">Ring2 ID</text>
<polyline points="680,392 790,392" fill="none" stroke="#7f8c8d" stroke-width="3" stroke-linejoin="round" stroke-linecap="round"/>
<circle cx="790" cy="392" r="4.5" fill="#7f8c8d" stroke="#111" stroke-width="1"/>
<text x="798" y="396" font-size="12" fill="#111">Ring1 RST</text>
<polyline points="680,448 790,448" fill="none" stroke="#6d4c41" stroke-width="3" stroke-linejoin="round" stroke-linecap="round"/>
<circle cx="790" cy="448" r="4.5" fill="#6d4c41" stroke="#111" stroke-width="1"/>
<text x="798" y="452" font-size="12" fill="#111">Tip DETECT</text>
<polyline points="680,476 790,476" fill="none" stroke="#222" stroke-width="3" stroke-linejoin="round" stroke-linecap="round"/>
<circle cx="790" cy="476" r="4.5" fill="#222" stroke="#111" stroke-width="1"/>
<text x="798" y="480" font-size="12" fill="#111">Sleeve GND</text>
<text x="800" y="496" font-size="10" fill="#555">ID, RST: reserved for a Trust M key</text>
<text x="790" y="560" font-size="12" fill="#333">Mount the two jacks side by side</text>
<text x="790" y="576" font-size="12" fill="#333">on the case edge. Drawn apart here</text>
<text x="790" y="592" font-size="12" fill="#333">so every wire is straight.</text>
<rect x="30" y="750" width="980" height="280" rx="10" fill="#fbf7ee" stroke="#b08d3c" stroke-width="2" stroke-dasharray="8 5"/>
<text x="50" y="778" font-size="18" font-weight="bold" fill="#5c4413">The McGuffin (the key)</text>
<text x="50" y="798" font-size="12" fill="#555">ATECC608 breakout inside a printed body; two plugs come out of one side.</text>
<rect x="60" y="820" width="150" height="140" rx="8" fill="#1d3f8f" stroke="#0b1d44" stroke-width="1.5"/>
<text x="135" y="842" font-size="14" font-weight="bold" text-anchor="middle" fill="#fff">ATECC608</text>
<text x="135" y="858" font-size="11" text-anchor="middle" fill="#cfd8ff">Adafruit STEMMA QT</text>
<rect x="310" y="844" width="90" height="32" rx="5" fill="#444"/>
<text x="355" y="864" font-size="12" text-anchor="middle" fill="#fff">3.5 mm plug</text>
<rect x="400" y="851" width="46" height="18" fill="#d9d9d9" stroke="#555"/>
<text x="423" y="846" font-size="11" text-anchor="middle" fill="#111">S</text>
<rect x="448" y="851" width="46" height="18" fill="#d9d9d9" stroke="#555"/>
<text x="471" y="846" font-size="11" text-anchor="middle" fill="#111">R2</text>
<rect x="496" y="851" width="46" height="18" fill="#d9d9d9" stroke="#555"/>
<text x="519" y="846" font-size="11" text-anchor="middle" fill="#111">R1</text>
<rect x="544" y="851" width="46" height="18" fill="#d9d9d9" stroke="#555"/>
<text x="567" y="846" font-size="11" text-anchor="middle" fill="#111">T</text>
<path d="M592 851 L610 860 L592 869 Z" fill="#c8c8c8" stroke="#555"/>
<polyline points="210,880 423,880 423,869" fill="none" stroke="#222" stroke-width="3" stroke-linejoin="round" stroke-linecap="round"/>
<text x="204" y="884" font-size="11" text-anchor="end" fill="#fff">GND</text>
<polyline points="210,900 471,900 471,869" fill="none" stroke="#d62728" stroke-width="3" stroke-linejoin="round" stroke-linecap="round"/>
<text x="204" y="904" font-size="11" text-anchor="end" fill="#fff">VIN</text>
<polyline points="210,920 519,920 519,869" fill="none" stroke="#c99700" stroke-width="3" stroke-linejoin="round" stroke-linecap="round"/>
<text x="204" y="924" font-size="11" text-anchor="end" fill="#fff">SCL</text>
<polyline points="210,940 567,940 567,869" fill="none" stroke="#1f5fd6" stroke-width="3" stroke-linejoin="round" stroke-linecap="round"/>
<text x="204" y="944" font-size="11" text-anchor="end" fill="#fff">SDA</text>
<text x="60" y="980" font-size="11" fill="#555">cut STEMMA QT cable, 4 wires to the plug</text>
<rect x="690" y="844" width="90" height="32" rx="5" fill="#444"/>
<text x="735" y="864" font-size="12" text-anchor="middle" fill="#fff">2.5 mm plug</text>
<rect x="780" y="851" width="46" height="18" fill="#d9d9d9" stroke="#555"/>
<text x="803" y="846" font-size="11" text-anchor="middle" fill="#111">S</text>
<rect x="828" y="851" width="46" height="18" fill="#d9d9d9" stroke="#555"/>
<text x="851" y="846" font-size="11" text-anchor="middle" fill="#111">R2</text>
<rect x="876" y="851" width="46" height="18" fill="#d9d9d9" stroke="#555"/>
<text x="899" y="846" font-size="11" text-anchor="middle" fill="#111">R1</text>
<rect x="924" y="851" width="46" height="18" fill="#d9d9d9" stroke="#555"/>
<text x="947" y="846" font-size="11" text-anchor="middle" fill="#111">T</text>
<path d="M972 851 L990 860 L972 869 Z" fill="#c8c8c8" stroke="#555"/>
<polyline points="947,836 947,820 803,820 803,836" fill="none" stroke="#6d4c41" stroke-width="3" stroke-linejoin="round" stroke-linecap="round"/>
<text x="875.0" y="814" font-size="11" text-anchor="middle" fill="#111">jumper: Tip to Sleeve</text>
<text x="899" y="890" font-size="10" text-anchor="middle" fill="#555">R1, R2 empty</text>
<polyline points="423,869 423,980 803,980 803,869" fill="none" stroke="#222" stroke-width="3" stroke-linejoin="round" stroke-linecap="round"/>
<text x="613.0" y="998" font-size="11" text-anchor="middle" fill="#111">link both Sleeves (GND)</text>
<text x="50" y="1016" font-size="12" fill="#333">Wire colours are the STEMMA QT colours: red VIN, black GND, blue SDA, yellow SCL. Slide heat shrink and the plug shells on before soldering.</text>
</svg>