%TF.GenerationSoftware,tscircuit,circuit-json-to-gerber,0.0.104*%
%TF.CreationDate,2026-09-25T02:39:00.098Z*%
%TF.SameCoordinates,Original*%
%TF.FileFunction,Copper,L2,Bot*%
%TF.FilePolarity,Positive*%
%FSLAX46Y46*%
%MOMM*%
G04 Gerber Fmt 4.6, Leading zero omitted, Abs format (unit mm)*
G04 Created by tscircuit (builder) date 2026-09-25T02:39:00.098Z*
G01*
%LPD*%
G75*
G04 APERTURE MACROS START*
%AMHORZPILL*
0 Horizontal pill (stadium) shape macro*
0 Parameters:*
0 $1 = Total width*
0 $2 = Total height*
0 $3 = Circle diameter (equal to height)*
0 $4 = Circle center offset
0 21 = Center Line(Exposure, Width, Height, Center X, Center Y, Rotation)*
0 1 = Circle(Exposure, Diameter, Center X, Center Y, Rotation)*
21,1,$1-$3,$2,0.0,0.0,0.0*
1,1,$3,0.0-$4,0.0*
1,1,$3,$4,0.0*%
%AMVERTPILL*
0 Vertical pill (stadium) shape macro*
0 Parameters:*
0 $1 = Total width*
0 $2 = Total height*
0 $3 = Circle diameter (equal to width)*
0 $4 = Circle center offset
0 21 = Center Line(Exposure, Width, Height, Center X, Center Y, Rotation)*
21,1,$1,$2-$3,0.0,0.0,0.0*
1,1,$3,0.0,0.0-$4*
1,1,$3,0.0,$4*%
%AMROUNDRECT*
0 Rectangle with rounded corners*
0 $1 Corner radius*
0 $2 $3 $4 $5 $6 $7 $8 $9 X,Y Position of each corner*
0 Polygon box body*
4,1,4,$2,$3,$4,$5,$6,$7,$8,$9,$2,$3,0*
0 Circles for rounded corners*
1,1,$1+$1,$2,$3*
1,1,$1+$1,$4,$5*
1,1,$1+$1,$6,$7*
1,1,$1+$1,$8,$9*
0 Rectangles between the rounded corners*
20,1,$1+$1,$2,$3,$4,$5,0*
20,1,$1+$1,$4,$5,$6,$7,0*
20,1,$1+$1,$6,$7,$8,$9,0*
20,1,$1+$1,$8,$9,$2,$3,0*%
G04 APERTURE MACROS END*
G04 aperture START LIST*
%ADD10C,0.150000*%
%ADD11R,1.499997X1.499997*%
%ADD12R,1.049998X1.049998*%
%ADD13R,1.599997X3.199994*%
%ADD14R,1.119998X2.239996*%
%ADD15C,0.100000*%
%ADD16C,0.090000*%
%ADD17C,0.063000*%
%ADD18C,0.036000*%
%ADD19C,0.120000*%
%ADD20C,0.045000*%
%ADD21C,0.070500*%
%ADD22C,0.055762*%
%ADD23R,0.600000X0.600000*%
%ADD24R,0.420000X0.420000*%
%ADD25C,1.600000*%
%ADD26C,0.046800*%
%ADD27C,0.055837*%
%ADD28C,0.054000*%
%ADD29C,0.081000*%
%ADD30C,0.300000*%
%TD*%
G04 aperture END LIST*
D11*
X-23940015Y002499741D03*
D11*
X-26440137Y002499741D03*
D11*
X-28940005Y002499741D03*
D11*
X-37239963Y000999871D03*
D11*
X-37239963Y-01000125D03*
D11*
X-33939995Y-00000127D03*
D13*
X-37070037Y009689973D03*
D13*
X-37070037Y-09689973D03*
D13*
X-34530037Y009689973D03*
D13*
X-34530037Y-09689973D03*
D13*
X-31990037Y009689973D03*
D13*
X-31990037Y-09689973D03*
D13*
X-29450037Y009689973D03*
D13*
X-29450037Y-09689973D03*
D13*
X-26910037Y009689973D03*
D13*
X-26910037Y-09689973D03*
D13*
X-24370037Y009689973D03*
D13*
X-24370037Y-09689973D03*
D13*
X-21830037Y009689973D03*
D13*
X-21830037Y-09689973D03*
D13*
X-19290037Y009689973D03*
D13*
X-19290037Y-09689973D03*
D13*
X-16750037Y009689973D03*
D13*
X-16750037Y-09689973D03*
D13*
X-14210037Y009689973D03*
D13*
X-14210037Y-09689973D03*
D13*
X-11670037Y009689973D03*
D13*
X-11670037Y-09689973D03*
D13*
X-09130037Y009689973D03*
D13*
X-09130037Y-09689973D03*
D13*
X-06590037Y009689973D03*
D13*
X-06590037Y-09689973D03*
D13*
X-04050037Y009689973D03*
D13*
X-04050037Y-09689973D03*
D13*
X-01510037Y009689973D03*
D13*
X-01510037Y-09689973D03*
D13*
X001029963Y009689973D03*
D13*
X001029963Y-09689973D03*
D13*
X003569963Y009689973D03*
D13*
X003569963Y-09689973D03*
D13*
X006109963Y009689973D03*
D13*
X006109963Y-09689973D03*
D13*
X008649963Y009689973D03*
D13*
X008649963Y-09689973D03*
D13*
X011189963Y009689973D03*
D13*
X011189963Y-09689973D03*
D23*
X028000000Y002000000D03*
D25*
X027000000Y020000000D03*
D25*
X029000000Y020000000D03*
D10*
X033200000Y-14400000D02*
X033078928Y-14400000D01*
D10*
X033078928Y-14400000D02*
X033039613Y-14360685D01*
D10*
X033039613Y-14360685D02*
X027766021Y-14360685D01*
D10*
X027766021Y-14360685D02*
X023643728Y-18482978D01*
D10*
X023643728Y-18482978D02*
X023643728Y-19363393D01*
D10*
X027000000Y020000000D02*
X027000000Y-09614933D01*
D10*
X027000000Y-09614933D02*
X030630842Y-13245775D01*
D10*
X030630842Y-13245775D02*
X030630842Y-13258158D01*
D10*
X030630842Y-13258158D02*
X030627000Y-13262000D01*
D10*
X021618000Y-19401000D02*
X021497243Y-19521757D01*
D10*
X021497243Y-19521757D02*
X021497243Y-19542971D01*
D10*
X021497243Y-19542971D02*
X020620214Y-20420000D01*
D10*
X020620214Y-20420000D02*
X-21637000Y-20420000D01*
D10*
X-26800000Y012400000D02*
X-26680484Y012519516D01*
D10*
X-26680484Y012519516D02*
X-26677112Y012519516D01*
D10*
X-26677112Y012519516D02*
X-25850279Y013346349D01*
D10*
X-25850279Y013346349D02*
X-24971626Y013346349D01*
D10*
X-24971626Y013346349D02*
X-21830037Y010204760D01*
D10*
X-21830037Y010204760D02*
X-21830037Y009689973D01*
D10*
X-31510000Y016346000D02*
X-31434969Y016270969D01*
D10*
X-31434969Y016270969D02*
X-31434969Y016239740D01*
D10*
X-31434969Y016239740D02*
X-29815000Y014619771D01*
D10*
X-29815000Y014619771D02*
X-29815000Y013033000D01*
D10*
X-24872000Y012673000D02*
X-24872000Y010192000D01*
D10*
X-24872000Y010192000D02*
X-24370037Y009689973D01*
D10*
X032600000Y-20000000D02*
X032522717Y-19922717D01*
D10*
X032522717Y-19922717D02*
X032522717Y-19870686D01*
D10*
X032522717Y-19870686D02*
X027829032Y-15177000D01*
D10*
X027829032Y-15177000D02*
X027468000Y-15177000D01*
D10*
X012527000Y-17242000D02*
X012497888Y-17271112D01*
D10*
X012497888Y-17271112D02*
X012293575Y-17271112D01*
D10*
X012293575Y-17271112D02*
X010578688Y-18986000D01*
D10*
X010578688Y-18986000D02*
X-03745000Y-18986000D01*
D10*
X-37070037Y-09689973D02*
X-36444993Y-10315007D01*
D10*
X-36444993Y-10315007D02*
X-36444993Y-10429191D01*
D10*
X-36444993Y-10429191D02*
X-31123184Y-15751000D01*
D10*
X-31123184Y-15751000D02*
X-15154029Y-15751000D01*
D10*
X-15154029Y-15751000D02*
X-11702029Y-19203000D01*
D10*
X-11702029Y-19203000D02*
X-06085000Y-19203000D01*
D10*
X003250001Y-21212198D02*
X003711817Y-21673817D01*
D10*
X003711817Y-21673817D02*
X003710867Y-21540318D01*
D10*
X003710867Y-21540318D02*
X014735236Y-21630189D01*
D10*
X014735236Y-21630189D02*
X015125049Y-21291247D01*
D10*
X-34530037Y-09689973D02*
X-34530037Y-09811304D01*
D10*
X-34530037Y-09811304D02*
X-31610697Y-12730644D01*
D10*
X-31610697Y-12730644D02*
X-16458661Y-12730644D01*
D10*
X-16458661Y-12730644D02*
X-13914869Y-15274435D01*
D10*
X-13914869Y-15274435D02*
X-13788565Y-15274435D01*
D10*
X-13788565Y-15274435D02*
X-13738000Y-15325000D01*
D10*
X-26845000Y013496000D02*
X-27557877Y013496000D01*
D10*
X-27557877Y013496000D02*
X-28467264Y014405387D01*
D10*
X-28467264Y014405387D02*
X-28467264Y014482264D01*
D10*
X-28467264Y014482264D02*
X-28555000Y014570000D01*
D10*
X-26400000Y018200000D02*
X-26400000Y016879759D01*
D10*
X-26400000Y016879759D02*
X-26879956Y016399803D01*
D10*
X-26879956Y016399803D02*
X-26879956Y016355044D01*
D10*
X-26879956Y016355044D02*
X-26997000Y016238000D01*
D10*
X-08125000Y-01865000D02*
X-08125000Y-02304778D01*
D10*
X-08125000Y-02304778D02*
X-08343390Y-02523168D01*
D10*
X-08343390Y-02523168D02*
X-08343390Y-02585390D01*
D10*
X-08343390Y-02585390D02*
X-08422000Y-02664000D01*
D10*
X-26910037Y-09689973D02*
X-25521000Y-11079000D01*
D10*
X-25521000Y-11079000D02*
X-25521000Y-11524000D01*
D10*
X-26910037Y-09689973D02*
X-27439700Y-09160300D01*
D10*
X-27439700Y-09160300D02*
X-27439700Y006944300D01*
D10*
X-27439700Y006944300D02*
X-26700000Y007684000D01*
D10*
X-31990037Y009689973D02*
X-31990037Y010209963D01*
D10*
X-31990037Y010209963D02*
X-29883099Y012316901D01*
D10*
X-29883099Y012316901D02*
X-29800000Y012400000D01*
D10*
X-01502000Y-00752000D02*
X-01502000Y-01462796D01*
D10*
X-01502000Y-01462796D02*
X-01528818Y-01489614D01*
D10*
X-01528818Y-01489614D02*
X-01528818Y-01543818D01*
D10*
X-01528818Y-01543818D02*
X-01542000Y-01557000D01*
D10*
X-06308000Y-04593000D02*
X-08077233Y-04593000D01*
D10*
X-08077233Y-04593000D02*
X-08237272Y-04753040D01*
D10*
X-08237272Y-04753040D02*
X-08245040Y-04753040D01*
D10*
X-08245040Y-04753040D02*
X-08265000Y-04773000D01*
D10*
X-31990037Y009689973D02*
X-31990037Y005385248D01*
D10*
X-31990037Y005385248D02*
X-32128048Y005247237D01*
D10*
X-32128048Y005247237D02*
X-32128048Y005156048D01*
D10*
X-32128048Y005156048D02*
X-32117000Y005145000D01*
D10*
X-31070000Y005171000D02*
X-30974962Y005171000D01*
D10*
X-30974962Y005171000D02*
X-29982969Y004179007D01*
D10*
X-29982969Y004179007D02*
X-29982969Y003969969D01*
D10*
X-29982969Y003969969D02*
X-29964000Y003951000D01*
D10*
X-31990037Y-09689973D02*
X-33077918Y-08602092D01*
D10*
X-33077918Y-08602092D02*
X-33077918Y-01141082D01*
D10*
X-33077918Y-01141082D02*
X-33092000Y-01127000D01*
D10*
X-31990037Y-09689973D02*
X-31990037Y-10087785D01*
D10*
X-31990037Y-10087785D02*
X-30680408Y-11397414D01*
D10*
X-30680408Y-11397414D02*
X-30628586Y-11397414D01*
D10*
X-30628586Y-11397414D02*
X-30520000Y-11506000D01*
D10*
X-14713000Y-16761000D02*
X-14716363Y-16764363D01*
D10*
X-14716363Y-16764363D02*
X-14736365Y-16764363D01*
D10*
X-14736365Y-16764363D02*
X-17127001Y-19155000D01*
D10*
X-17127001Y-19155000D02*
X-18994000Y-19155000D01*
D10*
X-06395000Y-18687000D02*
X-06386909Y-18678909D01*
D10*
X-06386909Y-18678909D02*
X-06386909Y-18668886D01*
D10*
X-06386909Y-18668886D02*
X-02740023Y-15022000D01*
D10*
X-02740023Y-15022000D02*
X016248000Y-15022000D01*
D10*
X-22121000Y-18786000D02*
X-21295155Y-19611845D01*
D10*
X-21295155Y-19611845D02*
X009516214Y-19611845D01*
D10*
X009516214Y-19611845D02*
X017550155Y-19611845D01*
D10*
X017550155Y-19611845D02*
X018060532Y-19101468D01*
D10*
X018060532Y-19101468D02*
X018075000Y-19087000D01*
D10*
X019045000Y-06844000D02*
X018947653Y-06941347D01*
D10*
X018947653Y-06941347D02*
X018947653Y-07034686D01*
D10*
X018947653Y-07034686D02*
X012723820Y-13258518D01*
D10*
X012723820Y-13258518D02*
X012105565Y-13258518D01*
D10*
X012105565Y-13258518D02*
X008649963Y-09802916D01*
D10*
X008649963Y-09802916D02*
X008649963Y-09689973D01*
D10*
X013954000Y008428000D02*
X013937278Y008444722D01*
D10*
X013937278Y008444722D02*
X013923973Y008444722D01*
D10*
X013923973Y008444722D02*
X012678722Y009689973D01*
D10*
X012678722Y009689973D02*
X011189963Y009689973D01*
D10*
X-32738000Y002209000D02*
X-32659158Y002287842D01*
D10*
X-32659158Y002287842D02*
X-32659158Y002350265D01*
D10*
X-32659158Y002350265D02*
X-31633060Y003376363D01*
D10*
X-31633060Y003376363D02*
X-31633060Y005174335D01*
D10*
X-31633060Y005174335D02*
X-30977148Y005830246D01*
D10*
X-30977148Y005830246D02*
X-29655218Y005830246D01*
D10*
X-29655218Y005830246D02*
X-26910037Y008575427D01*
D10*
X-26910037Y008575427D02*
X-26910037Y009689973D01*
D10*
X-06806000Y-01232000D02*
X-06795677Y-01242323D01*
D10*
X-06795677Y-01242323D02*
X-06795677Y-01321840D01*
D10*
X-06795677Y-01321840D02*
X-06770000Y-01347516D01*
D10*
X-06770000Y-01347516D02*
X-06770000Y-02309000D01*
D10*
X-01991000Y-07711000D02*
X-01955696Y-07746304D01*
D10*
X-01955696Y-07746304D02*
X-01955696Y-07874659D01*
D10*
X-01955696Y-07874659D02*
X-01510037Y-08320318D01*
D10*
X-01510037Y-08320318D02*
X-01510037Y-09689973D01*
D10*
X-17829000Y-04872000D02*
X-17754788Y-04946212D01*
D10*
X-17754788Y-04946212D02*
X-17754788Y-04962127D01*
D10*
X-17754788Y-04962127D02*
X-16609244Y-06107672D01*
D10*
X-16609244Y-06107672D02*
X007770227Y-06107672D01*
D10*
X007770227Y-06107672D02*
X011189963Y-09527408D01*
D10*
X011189963Y-09527408D02*
X011189963Y-09689973D01*
D10*
X000846000Y-11602000D02*
X000860898Y-11587102D01*
D10*
X000860898Y-11587102D02*
X001003355Y-11587102D01*
D10*
X001003355Y-11587102D02*
X001099397Y-11491060D01*
D10*
X001099397Y-11491060D02*
X001963034Y-11491060D01*
D10*
X001963034Y-11491060D02*
X003569963Y-09884131D01*
D10*
X003569963Y-09884131D02*
X003569963Y-09689973D01*
D10*
X-29625000Y006346000D02*
X-29527641Y006443359D01*
D10*
X-29527641Y006443359D02*
X-29527641Y006472163D01*
D10*
X-29527641Y006472163D02*
X-29450037Y006549767D01*
D10*
X-29450037Y006549767D02*
X-29450037Y009689973D01*
D10*
X007349000Y-13974000D02*
X007349000Y-12979053D01*
D10*
X007349000Y-12979053D02*
X007351897Y-12976156D01*
D10*
X007351897Y-12976156D02*
X007351897Y-12926103D01*
D10*
X007351897Y-12926103D02*
X007353000Y-12925000D01*
D10*
X003910000Y007871000D02*
X003910000Y009350000D01*
D10*
X003910000Y009350000D02*
X003569963Y009689973D01*
D10*
X006954000Y-12778000D02*
X006954000Y-13507572D01*
D10*
X006954000Y-13507572D02*
X006940902Y-13520670D01*
D10*
X006940902Y-13520670D02*
X006940902Y-13626098D01*
D10*
X006940902Y-13626098D02*
X006939000Y-13628000D01*
D10*
X-03703000Y-01479000D02*
X-03703000Y-01947608D01*
D10*
X-03703000Y-01947608D02*
X-03901270Y-02145879D01*
D10*
X-03901270Y-02145879D02*
X-03901270Y-02176270D01*
D10*
X-03901270Y-02176270D02*
X-03964000Y-02239000D01*
D10*
X-02236000Y000796000D02*
X001030000Y004062000D01*
D10*
X001030000Y004062000D02*
X001029963Y009689973D01*
D10*
X-02141000Y002489000D02*
X-02141000Y009059000D01*
D10*
X-02141000Y009059000D02*
X-01510037Y009689973D01*
D10*
X-02353000Y001751000D02*
X-03452427Y002850427D01*
D10*
X-03452427Y002850427D02*
X-03452427Y009043817D01*
D10*
X-03452427Y009043817D02*
X-03452427Y009092427D01*
D10*
X-03452427Y009092427D02*
X-04050037Y009689973D01*
D10*
X-06155000Y001991000D02*
X-11670000Y007506000D01*
D10*
X-11670000Y007506000D02*
X-11670037Y009689973D01*
D10*
X-03819000Y003209000D02*
X-03828785Y003218785D01*
D10*
X-03828785Y003218785D02*
X-03828785Y003284629D01*
D10*
X-03828785Y003284629D02*
X-09130037Y008585881D01*
D10*
X-09130037Y008585881D02*
X-09130037Y009689973D01*
D30*
X033200000Y-14400000D03*
D30*
X023643728Y-19363393D03*
D30*
X030627000Y-13262000D03*
D30*
X021618000Y-19401000D03*
D30*
X-21637000Y-20420000D03*
D30*
X-26800000Y012400000D03*
D30*
X-31510000Y016346000D03*
D30*
X-29815000Y013033000D03*
D30*
X-24872000Y012673000D03*
D30*
X032600000Y-20000000D03*
D30*
X027468000Y-15177000D03*
D30*
X012527000Y-17242000D03*
D30*
X-03745000Y-18986000D03*
D30*
X-06085000Y-19203000D03*
D30*
X003250001Y-21212198D03*
D30*
X015125049Y-21291247D03*
D30*
X-13738000Y-15325000D03*
D30*
X-26845000Y013496000D03*
D30*
X-28555000Y014570000D03*
D30*
X-26400000Y018200000D03*
D30*
X-26997000Y016238000D03*
D30*
X-08125000Y-01865000D03*
D30*
X-08422000Y-02664000D03*
D30*
X-25521000Y-11524000D03*
D30*
X-26700000Y007684000D03*
D30*
X-29800000Y012400000D03*
D30*
X-01502000Y-00752000D03*
D30*
X-01542000Y-01557000D03*
D30*
X-06308000Y-04593000D03*
D30*
X-08265000Y-04773000D03*
D30*
X-32117000Y005145000D03*
D30*
X-31070000Y005171000D03*
D30*
X-29964000Y003951000D03*
D30*
X-33092000Y-01127000D03*
D30*
X-30520000Y-11506000D03*
D30*
X-14713000Y-16761000D03*
D30*
X-18994000Y-19155000D03*
D30*
X-06395000Y-18687000D03*
D30*
X016248000Y-15022000D03*
D30*
X-22121000Y-18786000D03*
D30*
X018075000Y-19087000D03*
D30*
X019045000Y-06844000D03*
D30*
X013954000Y008428000D03*
D30*
X-32738000Y002209000D03*
D30*
X-06806000Y-01232000D03*
D30*
X-06770000Y-02309000D03*
D30*
X-01991000Y-07711000D03*
D30*
X-17829000Y-04872000D03*
D30*
X000846000Y-11602000D03*
D30*
X-29625000Y006346000D03*
D30*
X007349000Y-13974000D03*
D30*
X007353000Y-12925000D03*
D30*
X003910000Y007871000D03*
D30*
X006954000Y-12778000D03*
D30*
X006939000Y-13628000D03*
D30*
X-03703000Y-01479000D03*
D30*
X-03964000Y-02239000D03*
D30*
X-02236000Y000796000D03*
D30*
X-02141000Y002489000D03*
D30*
X-02353000Y001751000D03*
D30*
X-06155000Y001991000D03*
D30*
X-03819000Y003209000D03*
M02*