%TF.GenerationSoftware,tscircuit,circuit-json-to-gerber,0.0.104*%
%TF.CreationDate,2026-09-25T02:39:00.099Z*%
%TF.SameCoordinates,Original*%
%TF.FileFunction,Other,Fab,Bot*%
%TF.FilePolarity,Positive*%
%FSLAX46Y46*%
%MOMM*%
G04 Gerber Fmt 4.6, Leading zero omitted, Abs format (unit mm)*
G04 Created by tscircuit (builder) date 2026-09-25T02:39:00.099Z*
G01*
%LPD*%
G75*
G04 APERTURE MACROS START*
%AMHORZPILL*
0 Horizontal pill (stadium) shape macro*
0 Parameters:*
0 $1 = Total width*
0 $2 = Total height*
0 $3 = Circle diameter (equal to height)*
0 $4 = Circle center offset
0 21 = Center Line(Exposure, Width, Height, Center X, Center Y, Rotation)*
0 1 = Circle(Exposure, Diameter, Center X, Center Y, Rotation)*
21,1,$1-$3,$2,0.0,0.0,0.0*
1,1,$3,0.0-$4,0.0*
1,1,$3,$4,0.0*%
%AMVERTPILL*
0 Vertical pill (stadium) shape macro*
0 Parameters:*
0 $1 = Total width*
0 $2 = Total height*
0 $3 = Circle diameter (equal to width)*
0 $4 = Circle center offset
0 21 = Center Line(Exposure, Width, Height, Center X, Center Y, Rotation)*
21,1,$1,$2-$3,0.0,0.0,0.0*
1,1,$3,0.0,0.0-$4*
1,1,$3,0.0,$4*%
%AMROUNDRECT*
0 Rectangle with rounded corners*
0 $1 Corner radius*
0 $2 $3 $4 $5 $6 $7 $8 $9 X,Y Position of each corner*
0 Polygon box body*
4,1,4,$2,$3,$4,$5,$6,$7,$8,$9,$2,$3,0*
0 Circles for rounded corners*
1,1,$1+$1,$2,$3*
1,1,$1+$1,$4,$5*
1,1,$1+$1,$6,$7*
1,1,$1+$1,$8,$9*
0 Rectangles between the rounded corners*
20,1,$1+$1,$2,$3,$4,$5,0*
20,1,$1+$1,$4,$5,$6,$7,0*
20,1,$1+$1,$6,$7,$8,$9,0*
20,1,$1+$1,$8,$9,$2,$3,0*%
G04 APERTURE MACROS END*
G04 aperture START LIST*
%ADD10C,0.150000*%
%ADD11C,0.254000*%
%TD*%
G04 aperture END LIST*
D11*
X-39739958Y-04127068D02*
X-39339959Y-04127068D01*
X-39250156Y-04089871D01*
X-39212959Y-04000068D01*
X-39212959Y003999916D01*
X-39250156Y004089718D01*
X-39339959Y004126916D01*
X-39739958Y004126916D01*
X-39612958Y003999916D01*
X-39739958Y003872916D01*
X-39466959Y003872916D01*
X-39466959Y-03873068D01*
X-39739958Y-03873068D01*
X-39612958Y-04000068D01*
X-39739958Y-04127068D01*
D11*
X-39612958Y-04000068D02*
X-39612958Y003999916D01*
X-39739958Y003872916D01*
X-39866958Y003999916D01*
X-39866958Y-04000068D01*
X-39739958Y-03873068D01*
X-39612958Y-04000068D01*
D11*
X-39339959Y-03929863D02*
X-38439961Y-03929863D01*
X-38566961Y-03802863D01*
X-38439961Y-03675863D01*
X-39339959Y-03675863D01*
X-39212959Y-03802863D01*
X-39339959Y-03929863D01*
D11*
X-38312783Y-10499700D02*
X-38312783Y010373335D01*
X-38100998Y010373335D01*
X-38227998Y010500335D01*
X-38100998Y010627335D01*
X-38439783Y010627335D01*
X-38529585Y010590137D01*
X-38566783Y010500335D01*
X-38566783Y-10499700D01*
X-38439783Y-10372700D01*
X-38312783Y-10499700D01*
D11*
X-38439961Y003961003D02*
X-38480137Y003954477D01*
X-38516186Y003935578D01*
X-39339959Y003935578D01*
X-39429761Y003898380D01*
X-39466959Y003808578D01*
X-39429761Y003718775D01*
X-39339959Y003681578D01*
X-38465335Y003681578D01*
X-38416743Y003691242D01*
X-38375546Y003718763D01*
X-38350146Y003744163D01*
X-38322608Y003785369D01*
X-38312935Y003833978D01*
X-38350138Y003923800D01*
X-38439961Y003961003D01*
D11*
X-38101150Y-10373055D02*
X-38439961Y-10373055D01*
X-38312961Y-10500055D01*
X-38439961Y-10627055D01*
X-38101150Y-10627055D01*
X-38228150Y-10500055D01*
X-38101150Y-10373055D01*
M02*