%TF.GenerationSoftware,tscircuit,circuit-json-to-gerber,0.0.104*%
%TF.CreationDate,2026-09-25T02:39:00.098Z*%
%TF.SameCoordinates,Original*%
%TF.FileFunction,Legend,Bot*%
%TF.FilePolarity,Positive*%
%FSLAX46Y46*%
%MOMM*%
G04 Gerber Fmt 4.6, Leading zero omitted, Abs format (unit mm)*
G04 Created by tscircuit (builder) date 2026-09-25T02:39:00.098Z*
G01*
%LPD*%
G75*
G04 APERTURE MACROS START*
%AMHORZPILL*
0 Horizontal pill (stadium) shape macro*
0 Parameters:*
0 $1 = Total width*
0 $2 = Total height*
0 $3 = Circle diameter (equal to height)*
0 $4 = Circle center offset
0 21 = Center Line(Exposure, Width, Height, Center X, Center Y, Rotation)*
0 1 = Circle(Exposure, Diameter, Center X, Center Y, Rotation)*
21,1,$1-$3,$2,0.0,0.0,0.0*
1,1,$3,0.0-$4,0.0*
1,1,$3,$4,0.0*%
%AMVERTPILL*
0 Vertical pill (stadium) shape macro*
0 Parameters:*
0 $1 = Total width*
0 $2 = Total height*
0 $3 = Circle diameter (equal to width)*
0 $4 = Circle center offset
0 21 = Center Line(Exposure, Width, Height, Center X, Center Y, Rotation)*
21,1,$1,$2-$3,0.0,0.0,0.0*
1,1,$3,0.0,0.0-$4*
1,1,$3,0.0,$4*%
%AMROUNDRECT*
0 Rectangle with rounded corners*
0 $1 Corner radius*
0 $2 $3 $4 $5 $6 $7 $8 $9 X,Y Position of each corner*
0 Polygon box body*
4,1,4,$2,$3,$4,$5,$6,$7,$8,$9,$2,$3,0*
0 Circles for rounded corners*
1,1,$1+$1,$2,$3*
1,1,$1+$1,$4,$5*
1,1,$1+$1,$6,$7*
1,1,$1+$1,$8,$9*
0 Rectangles between the rounded corners*
20,1,$1+$1,$2,$3,$4,$5,0*
20,1,$1+$1,$4,$5,$6,$7,0*
20,1,$1+$1,$6,$7,$8,$9,0*
20,1,$1+$1,$8,$9,$2,$3,0*%
G04 APERTURE MACROS END*
G04 aperture START LIST*
%ADD10C,0.150000*%
%ADD11R,1.499997X1.499997*%
%ADD12R,1.049998X1.049998*%
%ADD13R,1.599997X3.199994*%
%ADD14R,1.119998X2.239996*%
%ADD15C,0.100000*%
%ADD16C,0.090000*%
%ADD17C,0.063000*%
%ADD18C,0.036000*%
%ADD19C,0.120000*%
%ADD20C,0.045000*%
%ADD21C,0.070500*%
%ADD22C,0.055762*%
%ADD23R,0.600000X0.600000*%
%ADD24R,0.420000X0.420000*%
%ADD25C,1.600000*%
%ADD26C,0.046800*%
%ADD27C,0.055837*%
%ADD28C,0.054000*%
%ADD29C,0.081000*%
%ADD30C,0.300000*%
%TD*%
G04 aperture END LIST*
D15*
X004601101Y010499877D02*
X005078901Y010499877D01*
D15*
X012559988Y-03571138D02*
X012559988Y003571062D01*
D15*
X012221101Y010499877D02*
X012559988Y010499877D01*
X012559988Y003571062D01*
D15*
X012559988Y-03571138D02*
X012559988Y-10500081D01*
X012221101Y-10500081D01*
D15*
X-38101048Y-10499954D02*
X-38439808Y-10499954D01*
D15*
X-38439935Y-10500081D02*
X-38439935Y010499877D01*
X-38101099Y010499877D01*
D15*
X-39739831Y-03999636D02*
X-39339603Y-03999636D01*
X-39339603Y004000246D01*
X-39739831Y004000246D01*
D15*
X-39339603Y003808933D02*
X-38465234Y003808933D01*
X-38439808Y003834359D01*
D15*
X-39339603Y-03802507D02*
X-38439808Y-03802507D01*
D15*
X-39739831Y-03999636D02*
X-39739831Y004000246D01*
D15*
X-35561099Y-10500081D02*
X-36038899Y-10500081D01*
D15*
X-33021099Y-10500081D02*
X-33498899Y-10500081D01*
D15*
X-30481099Y-10500081D02*
X-30958899Y-10500081D01*
D15*
X-27941099Y-10500081D02*
X-28418899Y-10500081D01*
D15*
X-25401099Y-10500081D02*
X-25878899Y-10500081D01*
D15*
X-22861099Y-10500081D02*
X-23338899Y-10500081D01*
D15*
X-20321099Y-10500081D02*
X-20798899Y-10500081D01*
D15*
X-17781099Y-10500081D02*
X-18258899Y-10500081D01*
D15*
X-15241099Y-10500081D02*
X-15718899Y-10500081D01*
D15*
X-12701099Y-10500081D02*
X-13178899Y-10500081D01*
D15*
X-10161099Y-10500081D02*
X-10638899Y-10500081D01*
D15*
X-07621099Y-10500081D02*
X-08098899Y-10500081D01*
D15*
X-05081099Y-10500081D02*
X-05558899Y-10500081D01*
D15*
X-02541099Y-10500081D02*
X-03018899Y-10500081D01*
D15*
X-00001099Y-10500081D02*
X-00478899Y-10500081D01*
D15*
X002538901Y-10500081D02*
X002061101Y-10500081D01*
D15*
X005078901Y-10500081D02*
X004601101Y-10500081D01*
D15*
X007618901Y-10500081D02*
X007141101Y-10500081D01*
D15*
X010158901Y-10500081D02*
X009681101Y-10500081D01*
D15*
X009681101Y010499877D02*
X010158901Y010499877D01*
D15*
X007141101Y010499877D02*
X007618901Y010499877D01*
D15*
X002061101Y010499877D02*
X002538901Y010499877D01*
D15*
X-00478899Y010499877D02*
X-00001099Y010499877D01*
D15*
X-03018899Y010499877D02*
X-02541099Y010499877D01*
D15*
X-05558899Y010499877D02*
X-05081099Y010499877D01*
D15*
X-08098899Y010499877D02*
X-07621099Y010499877D01*
D15*
X-10638899Y010499877D02*
X-10161099Y010499877D01*
D15*
X-13178899Y010499877D02*
X-12701099Y010499877D01*
D15*
X-15718899Y010499877D02*
X-15241099Y010499877D01*
D15*
X-18258899Y010499877D02*
X-17781099Y010499877D01*
D15*
X-20798899Y010499877D02*
X-20321099Y010499877D01*
D15*
X-23338899Y010499877D02*
X-22861099Y010499877D01*
D15*
X-25878899Y010499877D02*
X-25401099Y010499877D01*
D15*
X-28418899Y010499877D02*
X-27941099Y010499877D01*
D15*
X-30958899Y010499877D02*
X-30481099Y010499877D01*
D15*
X-33498899Y010499877D02*
X-33021099Y010499877D01*
D15*
X-36038899Y010499877D02*
X-35561099Y010499877D01*
D15*
X-35489903Y005499989D02*
X-35496748Y005604423D01*
X-35517166Y005707070D01*
X-35550807Y005806174D01*
X-35597096Y005900039D01*
X-35655241Y005987059D01*
X-35724247Y006065745D01*
X-35802933Y006134751D01*
X-35889953Y006192896D01*
X-35983818Y006239185D01*
X-36082922Y006272826D01*
X-36185569Y006293244D01*
X-36290003Y006300089D01*
X-36394437Y006293244D01*
X-36497084Y006272826D01*
X-36596188Y006239185D01*
X-36690053Y006192896D01*
X-36777073Y006134751D01*
X-36855759Y006065745D01*
X-36924765Y005987059D01*
X-36982910Y005900039D01*
X-37029199Y005806174D01*
X-37062840Y005707070D01*
X-37083258Y005604423D01*
X-37090103Y005499989D01*
X-37083258Y005395555D01*
X-37062840Y005292908D01*
X-37029199Y005193804D01*
X-36982910Y005099939D01*
X-36924765Y005012919D01*
X-36855759Y004934233D01*
X-36777073Y004865227D01*
X-36690053Y004807082D01*
X-36596188Y004760793D01*
X-36497084Y004727152D01*
X-36394437Y004706734D01*
X-36290003Y004699889D01*
X-36185569Y004706734D01*
X-36082922Y004727152D01*
X-35983818Y004760793D01*
X-35889953Y004807082D01*
X-35802933Y004865227D01*
X-35724247Y004934233D01*
X-35655241Y005012919D01*
X-35597096Y005099939D01*
X-35550807Y005193804D01*
X-35517166Y005292908D01*
X-35496748Y005395555D01*
X-35489903Y005499989D01*
D15*
X-34889955Y005499989D02*
X-34901933Y005682732D01*
X-34937660Y005862348D01*
X-34996527Y006035764D01*
X-35077526Y006200013D01*
X-35179270Y006352284D01*
X-35300020Y006489972D01*
X-35437708Y006610722D01*
X-35589979Y006712466D01*
X-35754228Y006793465D01*
X-35927644Y006852332D01*
X-36107260Y006888059D01*
X-36290003Y006900037D01*
X-36472746Y006888059D01*
X-36652362Y006852332D01*
X-36825778Y006793465D01*
X-36990027Y006712466D01*
X-37142298Y006610722D01*
X-37279986Y006489972D01*
X-37400736Y006352284D01*
X-37502480Y006200013D01*
X-37583479Y006035764D01*
X-37642345Y005862348D01*
X-37678073Y005682732D01*
X-37690051Y005499989D01*
X-37678073Y005317246D01*
X-37642345Y005137630D01*
X-37583479Y004964214D01*
X-37502480Y004799965D01*
X-37400736Y004647694D01*
X-37279986Y004510006D01*
X-37142298Y004389256D01*
X-36990027Y004287512D01*
X-36825778Y004206513D01*
X-36652362Y004147646D01*
X-36472746Y004111919D01*
X-36290003Y004099941D01*
X-36107260Y004111919D01*
X-35927644Y004147646D01*
X-35754228Y004206513D01*
X-35589979Y004287512D01*
X-35437708Y004389256D01*
X-35300020Y004510006D01*
X-35179270Y004647694D01*
X-35077526Y004799965D01*
X-34996527Y004964214D01*
X-34937660Y005137630D01*
X-34901933Y005317246D01*
X-34889955Y005499989D01*
D15*
X-35489903Y-05499989D02*
X-35496748Y-05395555D01*
X-35517166Y-05292908D01*
X-35550807Y-05193804D01*
X-35597096Y-05099939D01*
X-35655241Y-05012919D01*
X-35724247Y-04934233D01*
X-35802933Y-04865227D01*
X-35889953Y-04807082D01*
X-35983818Y-04760793D01*
X-36082922Y-04727152D01*
X-36185569Y-04706734D01*
X-36290003Y-04699889D01*
X-36394437Y-04706734D01*
X-36497084Y-04727152D01*
X-36596188Y-04760793D01*
X-36690053Y-04807082D01*
X-36777073Y-04865227D01*
X-36855759Y-04934233D01*
X-36924765Y-05012919D01*
X-36982910Y-05099939D01*
X-37029199Y-05193804D01*
X-37062840Y-05292908D01*
X-37083258Y-05395555D01*
X-37090103Y-05499989D01*
X-37083258Y-05604423D01*
X-37062840Y-05707070D01*
X-37029199Y-05806174D01*
X-36982910Y-05900039D01*
X-36924765Y-05987059D01*
X-36855759Y-06065745D01*
X-36777073Y-06134751D01*
X-36690053Y-06192896D01*
X-36596188Y-06239185D01*
X-36497084Y-06272826D01*
X-36394437Y-06293244D01*
X-36290003Y-06300089D01*
X-36185569Y-06293244D01*
X-36082922Y-06272826D01*
X-35983818Y-06239185D01*
X-35889953Y-06192896D01*
X-35802933Y-06134751D01*
X-35724247Y-06065745D01*
X-35655241Y-05987059D01*
X-35597096Y-05900039D01*
X-35550807Y-05806174D01*
X-35517166Y-05707070D01*
X-35496748Y-05604423D01*
X-35489903Y-05499989D01*
D15*
X-34889955Y-05499989D02*
X-34901933Y-05317246D01*
X-34937660Y-05137630D01*
X-34996527Y-04964214D01*
X-35077526Y-04799965D01*
X-35179270Y-04647694D01*
X-35300020Y-04510006D01*
X-35437708Y-04389256D01*
X-35589979Y-04287512D01*
X-35754228Y-04206513D01*
X-35927644Y-04147646D01*
X-36107260Y-04111919D01*
X-36290003Y-04099941D01*
X-36472746Y-04111919D01*
X-36652362Y-04147646D01*
X-36825778Y-04206513D01*
X-36990027Y-04287512D01*
X-37142298Y-04389256D01*
X-37279986Y-04510006D01*
X-37400736Y-04647694D01*
X-37502480Y-04799965D01*
X-37583479Y-04964214D01*
X-37642345Y-05137630D01*
X-37678073Y-05317246D01*
X-37690051Y-05499989D01*
X-37678073Y-05682732D01*
X-37642345Y-05862348D01*
X-37583479Y-06035764D01*
X-37502480Y-06200013D01*
X-37400736Y-06352284D01*
X-37279986Y-06489972D01*
X-37142298Y-06610722D01*
X-36990027Y-06712466D01*
X-36825778Y-06793465D01*
X-36652362Y-06852332D01*
X-36472746Y-06888059D01*
X-36290003Y-06900037D01*
X-36107260Y-06888059D01*
X-35927644Y-06852332D01*
X-35754228Y-06793465D01*
X-35589979Y-06712466D01*
X-35437708Y-06610722D01*
X-35300020Y-06489972D01*
X-35179270Y-06352284D01*
X-35077526Y-06200013D01*
X-34996527Y-06035764D01*
X-34937660Y-05862348D01*
X-34901933Y-05682732D01*
X-34889955Y-05499989D01*
D15*
X011809977Y005499989D02*
X011797999Y005682732D01*
X011762272Y005862348D01*
X011703405Y006035764D01*
X011622406Y006200013D01*
X011520662Y006352284D01*
X011399912Y006489972D01*
X011262224Y006610722D01*
X011109953Y006712466D01*
X010945704Y006793465D01*
X010772288Y006852332D01*
X010592672Y006888059D01*
X010409929Y006900037D01*
X010227186Y006888059D01*
X010047570Y006852332D01*
X009874154Y006793465D01*
X009709905Y006712466D01*
X009557634Y006610722D01*
X009419946Y006489972D01*
X009299196Y006352284D01*
X009197452Y006200013D01*
X009116453Y006035764D01*
X009057587Y005862348D01*
X009021859Y005682732D01*
X009009881Y005499989D01*
X009021859Y005317246D01*
X009057587Y005137630D01*
X009116453Y004964214D01*
X009197452Y004799965D01*
X009299196Y004647694D01*
X009419946Y004510006D01*
X009557634Y004389256D01*
X009709905Y004287512D01*
X009874154Y004206513D01*
X010047570Y004147646D01*
X010227186Y004111919D01*
X010409929Y004099941D01*
X010592672Y004111919D01*
X010772288Y004147646D01*
X010945704Y004206513D01*
X011109953Y004287512D01*
X011262224Y004389256D01*
X011399912Y004510006D01*
X011520662Y004647694D01*
X011622406Y004799965D01*
X011703405Y004964214D01*
X011762272Y005137630D01*
X011797999Y005317246D01*
X011809977Y005499989D01*
D15*
X011210029Y005499989D02*
X011203184Y005604423D01*
X011182766Y005707070D01*
X011149125Y005806174D01*
X011102836Y005900039D01*
X011044691Y005987059D01*
X010975685Y006065745D01*
X010896999Y006134751D01*
X010809979Y006192896D01*
X010716114Y006239185D01*
X010617010Y006272826D01*
X010514363Y006293244D01*
X010409929Y006300089D01*
X010305495Y006293244D01*
X010202848Y006272826D01*
X010103744Y006239185D01*
X010009879Y006192896D01*
X009922859Y006134751D01*
X009844173Y006065745D01*
X009775167Y005987059D01*
X009717022Y005900039D01*
X009670733Y005806174D01*
X009637092Y005707070D01*
X009616674Y005604423D01*
X009609829Y005499989D01*
X009616674Y005395555D01*
X009637092Y005292908D01*
X009670733Y005193804D01*
X009717022Y005099939D01*
X009775167Y005012919D01*
X009844173Y004934233D01*
X009922859Y004865227D01*
X010009879Y004807082D01*
X010103744Y004760793D01*
X010202848Y004727152D01*
X010305495Y004706734D01*
X010409929Y004699889D01*
X010514363Y004706734D01*
X010617010Y004727152D01*
X010716114Y004760793D01*
X010809979Y004807082D01*
X010896999Y004865227D01*
X010975685Y004934233D01*
X011044691Y005012919D01*
X011102836Y005099939D01*
X011149125Y005193804D01*
X011182766Y005292908D01*
X011203184Y005395555D01*
X011210029Y005499989D01*
D15*
X011809977Y-05499989D02*
X011797999Y-05317246D01*
X011762272Y-05137630D01*
X011703405Y-04964214D01*
X011622406Y-04799965D01*
X011520662Y-04647694D01*
X011399912Y-04510006D01*
X011262224Y-04389256D01*
X011109953Y-04287512D01*
X010945704Y-04206513D01*
X010772288Y-04147646D01*
X010592672Y-04111919D01*
X010409929Y-04099941D01*
X010227186Y-04111919D01*
X010047570Y-04147646D01*
X009874154Y-04206513D01*
X009709905Y-04287512D01*
X009557634Y-04389256D01*
X009419946Y-04510006D01*
X009299196Y-04647694D01*
X009197452Y-04799965D01*
X009116453Y-04964214D01*
X009057587Y-05137630D01*
X009021859Y-05317246D01*
X009009881Y-05499989D01*
X009021859Y-05682732D01*
X009057587Y-05862348D01*
X009116453Y-06035764D01*
X009197452Y-06200013D01*
X009299196Y-06352284D01*
X009419946Y-06489972D01*
X009557634Y-06610722D01*
X009709905Y-06712466D01*
X009874154Y-06793465D01*
X010047570Y-06852332D01*
X010227186Y-06888059D01*
X010409929Y-06900037D01*
X010592672Y-06888059D01*
X010772288Y-06852332D01*
X010945704Y-06793465D01*
X011109953Y-06712466D01*
X011262224Y-06610722D01*
X011399912Y-06489972D01*
X011520662Y-06352284D01*
X011622406Y-06200013D01*
X011703405Y-06035764D01*
X011762272Y-05862348D01*
X011797999Y-05682732D01*
X011809977Y-05499989D01*
D15*
X011210029Y-05499989D02*
X011203184Y-05395555D01*
X011182766Y-05292908D01*
X011149125Y-05193804D01*
X011102836Y-05099939D01*
X011044691Y-05012919D01*
X010975685Y-04934233D01*
X010896999Y-04865227D01*
X010809979Y-04807082D01*
X010716114Y-04760793D01*
X010617010Y-04727152D01*
X010514363Y-04706734D01*
X010409929Y-04699889D01*
X010305495Y-04706734D01*
X010202848Y-04727152D01*
X010103744Y-04760793D01*
X010009879Y-04807082D01*
X009922859Y-04865227D01*
X009844173Y-04934233D01*
X009775167Y-05012919D01*
X009717022Y-05099939D01*
X009670733Y-05193804D01*
X009637092Y-05292908D01*
X009616674Y-05395555D01*
X009609829Y-05499989D01*
X009616674Y-05604423D01*
X009637092Y-05707070D01*
X009670733Y-05806174D01*
X009717022Y-05900039D01*
X009775167Y-05987059D01*
X009844173Y-06065745D01*
X009922859Y-06134751D01*
X010009879Y-06192896D01*
X010103744Y-06239185D01*
X010202848Y-06272826D01*
X010305495Y-06293244D01*
X010409929Y-06300089D01*
X010514363Y-06293244D01*
X010617010Y-06272826D01*
X010716114Y-06239185D01*
X010809979Y-06192896D01*
X010896999Y-06134751D01*
X010975685Y-06065745D01*
X011044691Y-05987059D01*
X011102836Y-05900039D01*
X011149125Y-05806174D01*
X011182766Y-05707070D01*
X011203184Y-05604423D01*
X011210029Y-05499989D01*
D15*
X-36839913Y012499975D02*
X-36842051Y012532598D01*
X-36848429Y012564663D01*
X-36858938Y012595621D01*
X-36873398Y012624943D01*
X-36891561Y012652126D01*
X-36913118Y012676706D01*
X-36937698Y012698263D01*
X-36964881Y012716426D01*
X-36994203Y012730886D01*
X-37025161Y012741395D01*
X-37057226Y012747773D01*
X-37089849Y012749911D01*
X-37122472Y012747773D01*
X-37154537Y012741395D01*
X-37185495Y012730886D01*
X-37214817Y012716426D01*
X-37242000Y012698263D01*
X-37266580Y012676706D01*
X-37288137Y012652126D01*
X-37306300Y012624943D01*
X-37320760Y012595621D01*
X-37331269Y012564663D01*
X-37337647Y012532598D01*
X-37339785Y012499975D01*
X-37337647Y012467352D01*
X-37331269Y012435287D01*
X-37320760Y012404329D01*
X-37306300Y012375007D01*
X-37288137Y012347824D01*
X-37266580Y012323244D01*
X-37242000Y012301687D01*
X-37214817Y012283524D01*
X-37185495Y012269064D01*
X-37154537Y012258555D01*
X-37122472Y012252177D01*
X-37089849Y012250039D01*
X-37057226Y012252177D01*
X-37025161Y012258555D01*
X-36994203Y012269064D01*
X-36964881Y012283524D01*
X-36937698Y012301687D01*
X-36913118Y012323244D01*
X-36891561Y012347824D01*
X-36873398Y012375007D01*
X-36858938Y012404329D01*
X-36848429Y012435287D01*
X-36842051Y012467352D01*
X-36839913Y012499975D01*
D16*
X-14297446Y-12439046D02*
X-14296705Y-12174531D01*
X-14296705Y-12174531D02*
X-14291601Y-12102574D01*
X-14291601Y-12102574D02*
X-14278544Y-12049274D01*
X-14278544Y-12049274D02*
X-14253511Y-12008733D01*
X-14253511Y-12008733D02*
X-14220761Y-11981927D01*
X-14220761Y-11981927D02*
X-14171836Y-11962567D01*
X-14171836Y-11962567D02*
X-14110102Y-11955246D01*
X-14110102Y-11955246D02*
X-14066774Y-11962575D01*
X-14066774Y-11962575D02*
X-14031237Y-11981883D01*
X-14031237Y-11981883D02*
X-14009970Y-12004503D01*
X-14009970Y-12004503D02*
X-14000839Y-12019373D01*
X-14000839Y-12019373D02*
X-13986872Y-12057284D01*
X-13986872Y-12057284D02*
X-13980351Y-12107505D01*
X-13980351Y-12107505D02*
X-13976839Y-12438331D01*
X-13501511Y-12342828D02*
X-13388671Y-12439046D01*
X-13388671Y-12439046D02*
X-13388671Y-11964467D01*
D26*
X027691741Y018621861D02*
X027691741Y018361855D01*
X027691741Y018584871D02*
X027664411Y018609651D01*
X027664411Y018609651D02*
X027637490Y018621861D01*
X027637490Y018621861D02*
X027596700Y018621861D01*
X027596700Y018621861D02*
X027569370Y018609651D01*
X027569370Y018609651D02*
X027542042Y018584871D01*
X027542042Y018584871D02*
X027528580Y018547522D01*
X027528580Y018547522D02*
X027528580Y018522742D01*
X027528580Y018522742D02*
X027542042Y018485753D01*
X027542042Y018485753D02*
X027569370Y018460973D01*
X027569370Y018460973D02*
X027596700Y018448405D01*
X027596700Y018448405D02*
X027637490Y018448405D01*
X027637490Y018448405D02*
X027664411Y018460973D01*
X027664411Y018460973D02*
X027691741Y018485753D01*
X027264854Y018694555D02*
X027235734Y018694555D01*
X027250311Y018608704D02*
X027250311Y018437359D01*
X026966497Y018621861D02*
X026966497Y018432270D01*
X026966497Y018567692D02*
X026925039Y018608515D01*
X026925039Y018608515D02*
X026897273Y018621861D01*
X026897273Y018621861D02*
X026855815Y018621861D01*
X026855815Y018621861D02*
X026828239Y018608515D01*
X026828239Y018608515D02*
X026814356Y018567692D01*
X026814356Y018567692D02*
X026814356Y018432270D01*
X026559898Y018633324D02*
X026501221Y018683357D01*
X026501221Y018683357D02*
X026501221Y018436576D01*
D26*
X029691741Y018621861D02*
X029691741Y018361855D01*
X029691741Y018584871D02*
X029664411Y018609651D01*
X029664411Y018609651D02*
X029637490Y018621861D01*
X029637490Y018621861D02*
X029596700Y018621861D01*
X029596700Y018621861D02*
X029569370Y018609651D01*
X029569370Y018609651D02*
X029542042Y018584871D01*
X029542042Y018584871D02*
X029528580Y018547522D01*
X029528580Y018547522D02*
X029528580Y018522742D01*
X029528580Y018522742D02*
X029542042Y018485753D01*
X029542042Y018485753D02*
X029569370Y018460973D01*
X029569370Y018460973D02*
X029596700Y018448405D01*
X029596700Y018448405D02*
X029637490Y018448405D01*
X029637490Y018448405D02*
X029664411Y018460973D01*
X029664411Y018460973D02*
X029691741Y018485753D01*
X029264854Y018694555D02*
X029235734Y018694555D01*
X029250311Y018608704D02*
X029250311Y018437359D01*
X028966497Y018621861D02*
X028966497Y018432270D01*
X028966497Y018567692D02*
X028925039Y018608515D01*
X028925039Y018608515D02*
X028897273Y018621861D01*
X028897273Y018621861D02*
X028855815Y018621861D01*
X028855815Y018621861D02*
X028828239Y018608515D01*
X028828239Y018608515D02*
X028814356Y018567692D01*
X028814356Y018567692D02*
X028814356Y018432270D01*
X028599944Y018639268D02*
X028594407Y018657405D01*
X028594407Y018657405D02*
X028578045Y018674320D01*
X028578045Y018674320D02*
X028551231Y018685791D01*
X028551231Y018685791D02*
X028534020Y018688156D01*
X028534020Y018688156D02*
X028504245Y018685977D01*
X028504245Y018685977D02*
X028481908Y018676183D01*
X028481908Y018676183D02*
X028469694Y018661164D01*
X028469694Y018661164D02*
X028465307Y018643712D01*
X028465307Y018643712D02*
X028465598Y018632103D01*
X028465598Y018632103D02*
X028470841Y018612670D01*
X028470841Y018612670D02*
X028493597Y018574888D01*
X028493597Y018574888D02*
X028550904Y018503017D01*
X028550904Y018503017D02*
X028611162Y018436912D01*
X028611162Y018436912D02*
X028449957Y018436912D01*
D17*
X028236085Y018112212D02*
X028235608Y017861725D01*
X028235608Y017861725D02*
X028240187Y017830378D01*
X028240187Y017830378D02*
X028248877Y017813413D01*
X028248877Y017813413D02*
X028261063Y017799923D01*
X028261063Y017799923D02*
X028275650Y017789590D01*
X028275650Y017789590D02*
X028307671Y017777142D01*
X028307671Y017777142D02*
X028336207Y017773552D01*
X028336207Y017773552D02*
X028374886Y017777717D01*
X028374886Y017777717D02*
X028403400Y017789147D01*
X028403400Y017789147D02*
X028417271Y017800220D01*
X028417271Y017800220D02*
X028427387Y017813647D01*
X028427387Y017813647D02*
X028434054Y017829079D01*
X028434054Y017829079D02*
X028437576Y017846166D01*
X028437576Y017846166D02*
X028438259Y017864558D01*
X027945900Y018052861D02*
X027938446Y018077276D01*
X027938446Y018077276D02*
X027916420Y018100047D01*
X027916420Y018100047D02*
X027880324Y018115488D01*
X027880324Y018115488D02*
X027857156Y018118672D01*
X027857156Y018118672D02*
X027817074Y018115738D01*
X027817074Y018115738D02*
X027787005Y018102555D01*
X027787005Y018102555D02*
X027770563Y018082337D01*
X027770563Y018082337D02*
X027764657Y018058843D01*
X027764657Y018058843D02*
X027765049Y018043215D01*
X027765049Y018043215D02*
X027772107Y018017056D01*
X027772107Y018017056D02*
X027802740Y017966196D01*
X027802740Y017966196D02*
X027879884Y017869445D01*
X027879884Y017869445D02*
X027961001Y017780458D01*
X027961001Y017780458D02*
X027743994Y017780458D01*
M02*