M48
; DRILL file {tscircuit} date 2026-09-25T02:39:00.123Z
; FORMAT={-:-/ absolute / metric / decimal}
; #@! TF.CreationDate,2026-09-25T02:39:00.123Z
; #@! TF.GenerationSoftware,tscircuit
; #@! TF.FileFunction,Plated,1,2,PTH
FMAT,2
METRIC
; #@! TA.AperFunction,Plated,PTH,ComponentDrill
T10C0.900000
; #@! TA.AperFunction,Plated,PTH,ComponentDrill
T11C0.200000
%
G90
G05
T10
X27.0000Y20.0000
X29.0000Y20.0000
T11
X33.2000Y-14.4000
X23.6437Y-19.3634
X30.6270Y-13.2620
X21.6180Y-19.4010
X-21.6370Y-20.4200
X-26.8000Y12.4000
X-31.5100Y16.3460
X-29.8150Y13.0330
X-24.8720Y12.6730
X32.6000Y-20.0000
X27.4680Y-15.1770
X12.5270Y-17.2420
X-3.7450Y-18.9860
X-6.0850Y-19.2030
X3.2500Y-21.2122
X15.1250Y-21.2912
X-13.7380Y-15.3250
X-26.8450Y13.4960
X-28.5550Y14.5700
X-26.4000Y18.2000
X-26.9970Y16.2380
X-8.1250Y-1.8650
X-8.4220Y-2.6640
X-25.5210Y-11.5240
X-26.7000Y7.6840
X-29.8000Y12.4000
X-1.5020Y-0.7520
X-1.5420Y-1.5570
X-6.3080Y-4.5930
X-8.2650Y-4.7730
X-32.1170Y5.1450
X-31.0700Y5.1710
X-29.9640Y3.9510
X-33.0920Y-1.1270
X-30.5200Y-11.5060
X-14.7130Y-16.7610
X-18.9940Y-19.1550
X-6.3950Y-18.6870
X16.2480Y-15.0220
X-22.1210Y-18.7860
X18.0750Y-19.0870
X19.0450Y-6.8440
X13.9540Y8.4280
X-32.7380Y2.2090
X-6.8060Y-1.2320
X-6.7700Y-2.3090
X-1.9910Y-7.7110
X-17.8290Y-4.8720
X0.8460Y-11.6020
X-29.6250Y6.3460
X7.3490Y-13.9740
X7.3530Y-12.9250
X3.9100Y7.8710
X6.9540Y-12.7780
X6.9390Y-13.6280
X-3.7030Y-1.4790
X-3.9640Y-2.2390
X-2.2360Y0.7960
X-2.1410Y2.4890
X-2.3530Y1.7510
X-6.1550Y1.9910
X-3.8190Y3.2090
M30