%TF.GenerationSoftware,tscircuit,circuit-json-to-gerber,0.0.104*%
%TF.CreationDate,2026-09-25T02:39:00.098Z*%
%TF.SameCoordinates,Original*%
%TF.FileFunction,Copper,L1,Top*%
%TF.FilePolarity,Positive*%
%FSLAX46Y46*%
%MOMM*%
G04 Gerber Fmt 4.6, Leading zero omitted, Abs format (unit mm)*
G04 Created by tscircuit (builder) date 2026-09-25T02:39:00.098Z*
G01*
%LPD*%
G75*
G04 APERTURE MACROS START*
%AMHORZPILL*
0 Horizontal pill (stadium) shape macro*
0 Parameters:*
0 $1 = Total width*
0 $2 = Total height*
0 $3 = Circle diameter (equal to height)*
0 $4 = Circle center offset
0 21 = Center Line(Exposure, Width, Height, Center X, Center Y, Rotation)*
0 1 = Circle(Exposure, Diameter, Center X, Center Y, Rotation)*
21,1,$1-$3,$2,0.0,0.0,0.0*
1,1,$3,0.0-$4,0.0*
1,1,$3,$4,0.0*%
%AMVERTPILL*
0 Vertical pill (stadium) shape macro*
0 Parameters:*
0 $1 = Total width*
0 $2 = Total height*
0 $3 = Circle diameter (equal to width)*
0 $4 = Circle center offset
0 21 = Center Line(Exposure, Width, Height, Center X, Center Y, Rotation)*
21,1,$1,$2-$3,0.0,0.0,0.0*
1,1,$3,0.0,0.0-$4*
1,1,$3,0.0,$4*%
%AMROUNDRECT*
0 Rectangle with rounded corners*
0 $1 Corner radius*
0 $2 $3 $4 $5 $6 $7 $8 $9 X,Y Position of each corner*
0 Polygon box body*
4,1,4,$2,$3,$4,$5,$6,$7,$8,$9,$2,$3,0*
0 Circles for rounded corners*
1,1,$1+$1,$2,$3*
1,1,$1+$1,$4,$5*
1,1,$1+$1,$6,$7*
1,1,$1+$1,$8,$9*
0 Rectangles between the rounded corners*
20,1,$1+$1,$2,$3,$4,$5,0*
20,1,$1+$1,$4,$5,$6,$7,0*
20,1,$1+$1,$6,$7,$8,$9,0*
20,1,$1+$1,$8,$9,$2,$3,0*%
G04 APERTURE MACROS END*
G04 aperture START LIST*
%ADD10C,0.150000*%
%ADD11C,0.100000*%
%ADD12C,0.090000*%
%ADD13R,0.600000X0.600000*%
%ADD14R,0.420000X0.420000*%
%ADD15R,0.800000X0.250000*%
%ADD16R,0.560000X0.175000*%
%ADD17R,0.800000X0.600000*%
%ADD18R,0.560000X0.420000*%
%ADD19C,0.063000*%
%ADD20R,0.800000X0.950000*%
%ADD21R,0.560000X0.665000*%
%ADD22C,0.036000*%
%ADD23R,1.125000X1.750000*%
%ADD24R,0.787500X1.225000*%
%ADD25C,0.120000*%
%ADD26ROUNDRECT,0.081250X-0.418750X0.243750X0.418750X0.243750X0.418750X-0.243750X-0.418750X-0.243750*%
%ADD27R,0.700000X0.455000*%
%ADD28C,0.045000*%
%ADD29R,1.400048X0.999998*%
%ADD30R,0.980034X0.699999*%
%ADD31R,1.999996X1.799996*%
%ADD32R,1.399997X1.259997*%
%ADD33R,1.500000X2.300000*%
%ADD34R,1.050000X1.610000*%
%ADD35C,0.070500*%
%ADD36C,0.590000*%
%ADD37C,0.055762*%
%ADD38C,1.600000*%
%ADD39C,0.046800*%
%ADD40ROUNDRECT,0.075000X-0.525000X0.225000X0.525000X0.225000X0.525000X-0.225000X-0.525000X-0.225000*%
%ADD41R,0.840000X0.420000*%
%ADD42R,2.400000X3.300000*%
%ADD43R,1.680000X2.310000*%
%ADD44C,0.055837*%
%ADD45R,0.950000X0.800000*%
%ADD46R,0.665000X0.560000*%
%ADD47R,1.520000X1.680000*%
%ADD48R,1.064000X1.176000*%
%ADD49C,0.054000*%
%ADD50R,0.600000X1.524000*%
%ADD51R,0.420000X1.066800*%
%ADD52R,1.200000X0.700000*%
%ADD53R,0.840000X0.490000*%
%ADD54C,0.081000*%
%ADD55C,0.300000*%
%ADD56C,0.001000*%
%TD*%
G04 aperture END LIST*
D13*
X002000000Y000000000D03*
D15*
X-03000000Y003150000D03*
D15*
X-03000000Y002650000D03*
D15*
X-03000000Y002150000D03*
D15*
X-03000000Y001650000D03*
D15*
X-03000000Y001150000D03*
D15*
X-03000000Y000650000D03*
D15*
X-03000000Y000150000D03*
D15*
X-03000000Y-00350000D03*
D15*
X-03000000Y-00850000D03*
D15*
X-03000000Y-01350000D03*
D15*
X-03000000Y-01850000D03*
D15*
X-03000000Y-02350000D03*
D17*
X-05540000Y-03350000D03*
D17*
X-05540000Y004150000D03*
D20*
X-10825000Y-06000000D03*
D20*
X-09175000Y-06000000D03*
D23*
X002537500Y-20500000D03*
D23*
X005462500Y-20500000D03*
D26*
%LR180*%
X011000000Y-21250000D03*
%LR0*%
D26*
%LR180*%
X011000000Y-19350000D03*
%LR0*%
D26*
%LR180*%
X009000000Y-20300000D03*
%LR0*%
D20*
X008175000Y-16500000D03*
D20*
X009825000Y-16500000D03*
D56*
G36*
X-37405354Y-01676075D02*
X-36415371Y-00686092D01*
X-35708266Y-01393197D01*
X-36698249Y-02383180D01*
X-37405354Y-01676075D01*
G37*
D56*
G36*
X-36394178Y-02687252D02*
X-35404194Y-01697268D01*
X-34697089Y-02404374D01*
X-35687072Y-03394357D01*
X-36394178Y-02687252D01*
G37*
D56*
G36*
X-35383180Y-03698249D02*
X-34393197Y-02708266D01*
X-33686092Y-03415371D01*
X-34676075Y-04405354D01*
X-35383180Y-03698249D01*
G37*
D56*
G36*
X-30291734Y001393197D02*
X-29301751Y002383180D01*
X-28594646Y001676075D01*
X-29584629Y000686092D01*
X-30291734Y001393197D01*
G37*
D56*
G36*
X-31303091Y002403835D02*
X-30313107Y003393818D01*
X-29606002Y002686713D01*
X-30595985Y001696730D01*
X-31303091Y002403835D01*
G37*
D56*
G36*
X-32314088Y003415551D02*
X-31324105Y004405534D01*
X-30616999Y003698429D01*
X-31606983Y002708445D01*
X-32314088Y003415551D01*
G37*
D56*
G36*
X-37207394Y002792824D02*
X-35793183Y004207034D01*
X-34520393Y002934245D01*
X-35934604Y001520034D01*
X-37207394Y002792824D01*
G37*
D56*
G36*
X-31479966Y-02934604D02*
X-30065755Y-01520393D01*
X-28792966Y-02793183D01*
X-30207176Y-04207394D01*
X-31479966Y-02934604D01*
G37*
D33*
X031750000Y003450100D03*
D33*
X036250000Y003450100D03*
D33*
X036250000Y012549900D03*
D33*
X031750000Y012549900D03*
D33*
X031750000Y-10549900D03*
D33*
X036250000Y-10549900D03*
D33*
X036250000Y-01450100D03*
D33*
X031750000Y-01450100D03*
D36*
X-34905000Y011795000D03*
X-34905000Y011795000D02*
X-34905000Y013005000D01*
X-34905000Y013005000D03*
D36*
X-33635000Y011795000D03*
X-33635000Y011795000D02*
X-33635000Y013005000D01*
X-33635000Y013005000D03*
D36*
X-32365000Y011795000D03*
X-32365000Y011795000D02*
X-32365000Y013005000D01*
X-32365000Y013005000D03*
D36*
X-31095000Y011795000D03*
X-31095000Y011795000D02*
X-31095000Y013005000D01*
X-31095000Y013005000D03*
D36*
X-31095000Y016995000D03*
X-31095000Y016995000D02*
X-31095000Y018205000D01*
X-31095000Y018205000D03*
D36*
X-32365000Y016995000D03*
X-32365000Y016995000D02*
X-32365000Y018205000D01*
X-32365000Y018205000D03*
D36*
X-33635000Y016995000D03*
X-33635000Y016995000D02*
X-33635000Y018205000D01*
X-33635000Y018205000D03*
D36*
X-34905000Y016995000D03*
X-34905000Y016995000D02*
X-34905000Y018205000D01*
X-34905000Y018205000D03*
D20*
X-27825000Y019000000D03*
D20*
X-26175000Y019000000D03*
D20*
X-27825000Y011000000D03*
D20*
X-26175000Y011000000D03*
D20*
X-27825000Y015000000D03*
D20*
X-26175000Y015000000D03*
D38*
X027000000Y020000000D03*
D38*
X029000000Y020000000D03*
D20*
X023175000Y-16000000D03*
D20*
X024825000Y-16000000D03*
D40*
%LR90*%
X028095000Y-20410000D03*
%LR0*%
D40*
%LR90*%
X029365000Y-20410000D03*
%LR0*%
D40*
%LR90*%
X030635000Y-20410000D03*
%LR0*%
D40*
%LR90*%
X031905000Y-20410000D03*
%LR0*%
D40*
%LR90*%
X031905000Y-14590000D03*
%LR0*%
D40*
%LR90*%
X030635000Y-14590000D03*
%LR0*%
D40*
%LR90*%
X029365000Y-14590000D03*
%LR0*%
D40*
%LR90*%
X028095000Y-14590000D03*
%LR0*%
D56*
G36*
X028350000Y-18700000D02*
X028350000Y-16300000D01*
X031650000Y-16300000D01*
X031650000Y-18700000D01*
X028350000Y-18700000D01*
G37*
D45*
X035500000Y-18325000D03*
D45*
X035500000Y-16675000D03*
D20*
X023175000Y-20500000D03*
D20*
X024825000Y-20500000D03*
D47*
X016035050Y-20500000D03*
D47*
X019964950Y-20500000D03*
D50*
X-32250000Y-18000000D03*
D50*
X-29250000Y-18000000D03*
D50*
X-27750000Y-18000000D03*
D52*
X-33599950Y-19100100D03*
D52*
X-26400050Y-19100100D03*
D52*
X-33599950Y-21400100D03*
D52*
X-26400050Y-21400100D03*
D20*
X-19175000Y-20000000D03*
D20*
X-20825000Y-20000000D03*
D20*
X-16825000Y-20000000D03*
D20*
X-15175000Y-20000000D03*
D20*
X-07175000Y-20000000D03*
D20*
X-08825000Y-20000000D03*
D20*
X-04825000Y-20000000D03*
D20*
X-03175000Y-20000000D03*
D10*
X031905000Y-14590000D02*
X032095000Y-14400000D01*
D10*
X032095000Y-14400000D02*
X033200000Y-14400000D01*
D10*
X023643728Y-19363393D02*
X023586337Y-19420784D01*
D10*
X023586337Y-19420784D02*
X023175000Y-19832120D01*
D10*
X023175000Y-19832120D02*
X023175000Y-20500000D01*
D10*
X030627000Y-13262000D02*
X030627000Y-13312000D01*
D10*
X030627000Y-13312000D02*
X031905000Y-14590000D01*
D10*
X023175000Y-20500000D02*
X022076000Y-19401000D01*
D10*
X022076000Y-19401000D02*
X021618000Y-19401000D01*
D10*
X-21637000Y-20420000D02*
X-21678841Y-20461841D01*
D10*
X-21678841Y-20461841D02*
X-21769894Y-20461841D01*
D10*
X-21769894Y-20461841D02*
X-26788159Y-20461841D01*
D10*
X-26788159Y-20461841D02*
X-29250000Y-18000000D01*
D10*
X-27825000Y011000000D02*
X-26800000Y012025000D01*
D10*
X-26800000Y012025000D02*
X-26800000Y012400000D01*
D10*
X-32365000Y017600000D02*
X-32365000Y017201000D01*
D10*
X-32365000Y017201000D02*
X-31510000Y016346000D01*
D10*
X-29815000Y013033000D02*
X-29740363Y012958363D01*
D10*
X-29740363Y012958363D02*
X-29735948Y012958363D01*
D10*
X-29735948Y012958363D02*
X-27825000Y011047415D01*
D10*
X-27825000Y011047415D02*
X-27825000Y011000000D01*
D10*
X-31095000Y017600000D02*
X-29695000Y019000000D01*
D10*
X-29695000Y019000000D02*
X-27825000Y019000000D01*
D10*
X-27825000Y019000000D02*
X-24873696Y016048696D01*
D10*
X-24873696Y016048696D02*
X-24873696Y012748846D01*
D10*
X-24873696Y012748846D02*
X-24873696Y012674696D01*
D10*
X-24873696Y012674696D02*
X-24872000Y012673000D01*
D10*
X028095000Y-14590000D02*
X024585000Y-14590000D01*
D10*
X024585000Y-14590000D02*
X023175000Y-16000000D01*
D10*
X031905000Y-20410000D02*
X032315000Y-20000000D01*
D10*
X032315000Y-20000000D02*
X032600000Y-20000000D01*
D10*
X027468000Y-15177000D02*
X027483068Y-15161932D01*
D10*
X027483068Y-15161932D02*
X027665331Y-15161932D01*
D10*
X027665331Y-15161932D02*
X028095000Y-14732263D01*
D10*
X028095000Y-14732263D02*
X028095000Y-14590000D01*
D10*
X023175000Y-16000000D02*
X021933000Y-17242000D01*
D10*
X021933000Y-17242000D02*
X012527000Y-17242000D01*
D10*
X-03745000Y-18986000D02*
X-03782172Y-19023172D01*
D10*
X-03782172Y-19023172D02*
X-04759000Y-20000000D01*
D10*
X-04759000Y-20000000D02*
X-04825000Y-20000000D01*
D10*
X-06085000Y-19203000D02*
X-06002829Y-19285171D01*
D10*
X-06002829Y-19285171D02*
X-06002829Y-19294953D01*
D10*
X-06002829Y-19294953D02*
X-05297783Y-20000000D01*
D10*
X-05297783Y-20000000D02*
X-04825000Y-20000000D01*
D10*
X002537500Y-20500000D02*
X003250001Y-21212198D01*
D10*
X015125049Y-21291247D02*
X016035050Y-20500000D01*
D10*
X-13738000Y-15325000D02*
X-02637000Y-15325000D01*
D10*
X-02637000Y-15325000D02*
X002537500Y-20500000D01*
D10*
X-03000000Y-00350000D02*
X-03000000Y-00850000D01*
D10*
X-26175000Y011000000D02*
X-26175000Y012826000D01*
D10*
X-26175000Y012826000D02*
X-26815023Y013466023D01*
D10*
X-26815023Y013466023D02*
X-26845000Y013496000D01*
D10*
X-28555000Y014570000D02*
X-28255000Y014570000D01*
D10*
X-28255000Y014570000D02*
X-27825000Y015000000D01*
D10*
X-26175000Y019000000D02*
X-26175000Y018496178D01*
D10*
X-26175000Y018496178D02*
X-26349016Y018322162D01*
D10*
X-26349016Y018322162D02*
X-26349016Y018250984D01*
D10*
X-26349016Y018250984D02*
X-26400000Y018200000D01*
D10*
X-26997000Y016238000D02*
X-26997000Y015828000D01*
D10*
X-26997000Y015828000D02*
X-27825000Y015000000D01*
D10*
X-34905000Y017600000D02*
X-34298378Y016993378D01*
D10*
X-34298378Y016993378D02*
X-34298378Y016814821D01*
D10*
X-34298378Y016814821D02*
X-32483557Y015000000D01*
D10*
X-32483557Y015000000D02*
X-27825000Y015000000D01*
D10*
X-03000000Y-00850000D02*
X-05898945Y-00850000D01*
D10*
X-05898945Y-00850000D02*
X-06677445Y-01628500D01*
D10*
X-06677445Y-01628500D02*
X-07861434Y-01628500D01*
D10*
X-07861434Y-01628500D02*
X-08084314Y-01851380D01*
D10*
X-08084314Y-01851380D02*
X-08111380Y-01851380D01*
D10*
X-08111380Y-01851380D02*
X-08125000Y-01865000D01*
D10*
X-08422000Y-02664000D02*
X-08422000Y-03597000D01*
D10*
X-08422000Y-03597000D02*
X-10825000Y-06000000D01*
D10*
X-25521000Y-11524000D02*
X-25501397Y-11543603D01*
D10*
X-25501397Y-11543603D02*
X-25441468Y-11543603D01*
D10*
X-25441468Y-11543603D02*
X-16985071Y-20000000D01*
D10*
X-16985071Y-20000000D02*
X-16825000Y-20000000D01*
D10*
X-10825000Y-06000000D02*
X-16825000Y-12000000D01*
D10*
X-16825000Y-12000000D02*
X-16825000Y-20000000D01*
D10*
X-26700000Y007684000D02*
X-26700000Y007747716D01*
D10*
X-26700000Y007747716D02*
X-26175000Y008272716D01*
D10*
X-26175000Y008272716D02*
X-26175000Y011000000D01*
D10*
X030635000Y-20410000D02*
X029895093Y-21212648D01*
D10*
X029895093Y-21212648D02*
X029786391Y-21212648D01*
D10*
X029786391Y-21212648D02*
X029821016Y-21211725D01*
D10*
X029821016Y-21211725D02*
X029521016Y-21219725D01*
D10*
X029521016Y-21219725D02*
X029321016Y-21219725D01*
D10*
X029321016Y-21219725D02*
X029023016Y-21211725D01*
D10*
X029023016Y-21211725D02*
X028800899Y-21141538D01*
D10*
X028800899Y-21141538D02*
X028190069Y-20410000D01*
D10*
X028190069Y-20410000D02*
X028095000Y-20410000D01*
D10*
X-29800000Y012400000D02*
X-31095000Y012400000D01*
D10*
X030635000Y-20410000D02*
X029944377Y-21100623D01*
D10*
X029944377Y-21100623D02*
X029944377Y-21100724D01*
D10*
X029944377Y-21100724D02*
X029945526Y-21201183D01*
D10*
X029945526Y-21201183D02*
X029645526Y-21222183D01*
D10*
X029645526Y-21222183D02*
X029445526Y-21223183D01*
D10*
X029445526Y-21223183D02*
X029245526Y-21223183D01*
D10*
X029245526Y-21223183D02*
X028951526Y-21210183D01*
D10*
X028951526Y-21210183D02*
X028740270Y-21097428D01*
D10*
X028740270Y-21097428D02*
X028744744Y-18755256D01*
D10*
X028744744Y-18755256D02*
X030000000Y-17500000D01*
D10*
X011000000Y-19350000D02*
X011000000Y-17675000D01*
D10*
X011000000Y-17675000D02*
X009825000Y-16500000D01*
D10*
X028095000Y-20410000D02*
X028005000Y-20500000D01*
D10*
X028005000Y-20500000D02*
X024825000Y-20500000D01*
D10*
X024825000Y-16000000D02*
X024825000Y-20500000D01*
D10*
X-03000000Y003150000D02*
X-02233487Y003150000D01*
D10*
X-02233487Y003150000D02*
X-01538243Y002454756D01*
D10*
X-01538243Y002454756D02*
X-01538243Y-00488398D01*
D10*
X-01538243Y-00488398D02*
X-01498279Y-00528362D01*
D10*
X-01498279Y-00528362D02*
X-01498279Y-00748279D01*
D10*
X-01498279Y-00748279D02*
X-01502000Y-00752000D01*
D10*
X-01542000Y-01557000D02*
X-02335000Y-02350000D01*
D10*
X-02335000Y-02350000D02*
X-03000000Y-02350000D01*
D10*
X030000000Y-17500000D02*
X034675000Y-17500000D01*
D10*
X034675000Y-17500000D02*
X035500000Y-16675000D01*
D10*
X-31095000Y012400000D02*
X-29295000Y014200000D01*
D10*
X-29295000Y014200000D02*
X-27093312Y014200000D01*
D10*
X-27093312Y014200000D02*
X-26975000Y014200000D01*
D10*
X-26975000Y014200000D02*
X-26175000Y015000000D01*
D10*
X036250000Y-10549900D02*
X035500000Y-11300000D01*
D10*
X035500000Y-11300000D02*
X035500000Y-16675000D01*
D10*
X-03000000Y-02350000D02*
X-03284724Y-02350000D01*
D10*
X-03284724Y-02350000D02*
X-03570356Y-02064369D01*
D10*
X-03570356Y-02064369D02*
X-03723583Y-01911141D01*
D10*
X-03723583Y-01911141D02*
X-04159424Y-01911141D01*
D10*
X-04159424Y-01911141D02*
X-04834778Y-02586495D01*
D10*
X-04834778Y-02586495D02*
X-04834778Y-03630052D01*
D10*
X-04834778Y-03630052D02*
X-05791726Y-04587000D01*
D10*
X-05791726Y-04587000D02*
X-06186973Y-04587000D01*
D10*
X-06186973Y-04587000D02*
X-06302000Y-04587000D01*
D10*
X-06302000Y-04587000D02*
X-06308000Y-04593000D01*
D10*
X-08265000Y-04773000D02*
X-08265000Y-05090000D01*
D10*
X-08265000Y-05090000D02*
X-09175000Y-06000000D01*
D10*
X-32117000Y005145000D02*
X-31138156Y005145000D01*
D10*
X-31138156Y005145000D02*
X-31124075Y005159081D01*
D10*
X-31124075Y005159081D02*
X-31081919Y005159081D01*
D10*
X-31081919Y005159081D02*
X-31070000Y005171000D01*
D10*
X-29964000Y003951000D02*
X-29964000Y003036000D01*
D10*
X-29964000Y003036000D02*
X-30454546Y002545274D01*
D10*
X-33092000Y-01127000D02*
X-33092000Y-00306005D01*
D10*
X-33092000Y-00306005D02*
X-30476626Y002309369D01*
D10*
X-30476626Y002309369D02*
X-30476626Y002523374D01*
D10*
X-30476626Y002523374D02*
X-30454546Y002545274D01*
D10*
X011000000Y-19350000D02*
X011928426Y-18421574D01*
D10*
X011928426Y-18421574D02*
X023203906Y-18421574D01*
D10*
X023203906Y-18421574D02*
X024825000Y-20042669D01*
D10*
X024825000Y-20042669D02*
X024825000Y-20500000D01*
D10*
X036250000Y003450100D02*
X035289209Y002489209D01*
D10*
X035289209Y002489209D02*
X035289209Y002348293D01*
D10*
X035289209Y002348293D02*
X035289209Y-09589109D01*
D10*
X035289209Y-09589109D02*
X036250000Y-10549900D01*
D10*
X-30520000Y-11506000D02*
X-27669000Y-11506000D01*
D10*
X-27669000Y-11506000D02*
X-19175000Y-20000000D01*
D10*
X-09175000Y-06000000D02*
X-14713000Y-11538000D01*
D10*
X-14713000Y-11538000D02*
X-14713000Y-16761000D01*
D10*
X-18994000Y-19155000D02*
X-19010546Y-19171546D01*
D10*
X-19010546Y-19171546D02*
X-19010546Y-19347884D01*
D10*
X-19010546Y-19347884D02*
X-19175000Y-19512338D01*
D10*
X-19175000Y-19512338D02*
X-19175000Y-20000000D01*
D10*
X036250000Y003450100D02*
X029000000Y010700000D01*
D10*
X029000000Y010700000D02*
X029000000Y020000000D01*
D10*
X-03000000Y-02350000D02*
X005878261Y-11228261D01*
D10*
X005878261Y-11228261D02*
X005878261Y-12168375D01*
D10*
X005878261Y-12168375D02*
X006969118Y-13259232D01*
D10*
X006969118Y-13259232D02*
X006941101Y-13259232D01*
D10*
X006941101Y-13259232D02*
X007183787Y-13344123D01*
D10*
X007183787Y-13344123D02*
X009825000Y-15985336D01*
D10*
X009825000Y-15985336D02*
X009825000Y-16500000D01*
D10*
X-08825000Y-20000000D02*
X-07512000Y-18687000D01*
D10*
X-07512000Y-18687000D02*
X-06395000Y-18687000D01*
D10*
X016248000Y-15022000D02*
X016271226Y-14998774D01*
D10*
X016271226Y-14998774D02*
X016305484Y-14998774D01*
D10*
X016305484Y-14998774D02*
X017541215Y-13763043D01*
D10*
X017541215Y-13763043D02*
X017543327Y-13763043D01*
D10*
X017543327Y-13763043D02*
X028538043Y-13763043D01*
D10*
X028538043Y-13763043D02*
X029365000Y-14590000D01*
D10*
X-03175000Y-20000000D02*
X-03838489Y-20663489D01*
D10*
X-03838489Y-20663489D02*
X-06399898Y-20663489D01*
D10*
X-06399898Y-20663489D02*
X-06511511Y-20663489D01*
D10*
X-06511511Y-20663489D02*
X-07175000Y-20000000D01*
D10*
X-15175000Y-20000000D02*
X-15856095Y-20681095D01*
D10*
X-15856095Y-20681095D02*
X-20107430Y-20681095D01*
D10*
X-20107430Y-20681095D02*
X-20143905Y-20681095D01*
D10*
X-20143905Y-20681095D02*
X-20825000Y-20000000D01*
D10*
X-27750000Y-18000000D02*
X-22984576Y-18000000D01*
D10*
X-22984576Y-18000000D02*
X-22288441Y-18696135D01*
D10*
X-22288441Y-18696135D02*
X-22210865Y-18696135D01*
D10*
X-22210865Y-18696135D02*
X-22121000Y-18786000D01*
D10*
X018075000Y-19087000D02*
X018552000Y-19087000D01*
D10*
X018552000Y-19087000D02*
X019964950Y-20500000D01*
D10*
X029365000Y-20410000D02*
X030215841Y-19559159D01*
D10*
X030215841Y-19559159D02*
X030262091Y-19559159D01*
D10*
X030262091Y-19559159D02*
X034265841Y-19559159D01*
D10*
X034265841Y-19559159D02*
X035500000Y-18325000D01*
D10*
X031750000Y-10549900D02*
X028044000Y-06844000D01*
D10*
X028044000Y-06844000D02*
X019045000Y-06844000D01*
D10*
X031750000Y003450100D02*
X026772000Y008428000D01*
D10*
X026772000Y008428000D02*
X013954000Y008428000D01*
D10*
X-35545633Y-02545813D02*
X-33806837Y-00807016D01*
D10*
X-33806837Y-00807016D02*
X-33806837Y-00596406D01*
D10*
X-33806837Y-00596406D02*
X-32738000Y000472431D01*
D10*
X-32738000Y000472431D02*
X-32738000Y002209000D01*
D10*
X-31465544Y003556990D02*
X-30674906Y004347627D01*
D10*
X-30674906Y004347627D02*
X-30545463Y004347627D01*
D10*
X-30545463Y004347627D02*
X-12385627Y004347627D01*
D10*
X-12385627Y004347627D02*
X-06806000Y-01232000D01*
D10*
X-06770000Y-02309000D02*
X-06719837Y-02359163D01*
D10*
X-06719837Y-02359163D02*
X-06719837Y-02390664D01*
D10*
X-06719837Y-02390664D02*
X-06696978Y-02413522D01*
D10*
X-06696978Y-02413522D02*
X-06696978Y-04880296D01*
D10*
X-06696978Y-04880296D02*
X-03866274Y-07711000D01*
D10*
X-03866274Y-07711000D02*
X-01991000Y-07711000D01*
D10*
X-34534636Y-03556810D02*
X-33219446Y-04872000D01*
D10*
X-33219446Y-04872000D02*
X-17829000Y-04872000D01*
D10*
X-29443190Y001534636D02*
X-25641932Y-02266622D01*
D10*
X-25641932Y-02266622D02*
X-08251064Y-02266622D01*
D10*
X-08251064Y-02266622D02*
X-07888352Y-02629335D01*
D10*
X-07888352Y-02629335D02*
X-07888352Y-04078761D01*
D10*
X-07888352Y-04078761D02*
X-00365113Y-11602000D01*
D10*
X-00365113Y-11602000D02*
X000846000Y-11602000D01*
D10*
X-36556810Y-01534636D02*
X-36419851Y-01397677D01*
D10*
X-36419851Y-01397677D02*
X-35865378Y-01397677D01*
D10*
X-35865378Y-01397677D02*
X-33498112Y000969589D01*
D10*
X-33498112Y000969589D02*
X-33498112Y004231591D01*
D10*
X-33498112Y004231591D02*
X-31383703Y006346000D01*
D10*
X-31383703Y006346000D02*
X-29625000Y006346000D01*
D10*
X008175000Y-16500000D02*
X009765683Y-18090683D01*
D10*
X009765683Y-18090683D02*
X009765683Y-20015683D01*
D10*
X009765683Y-20015683D02*
X011000000Y-21250000D01*
D10*
X008175000Y-16500000D02*
X008175000Y-14814906D01*
D10*
X008175000Y-14814906D02*
X007422193Y-14062099D01*
D10*
X007422193Y-14062099D02*
X007422193Y-14047193D01*
D10*
X007422193Y-14047193D02*
X007349000Y-13974000D01*
D10*
X007353000Y-12925000D02*
X007353000Y004433542D01*
D10*
X007353000Y004433542D02*
X004072443Y007714099D01*
D10*
X004072443Y007714099D02*
X004066901Y007714099D01*
D10*
X004066901Y007714099D02*
X003910000Y007871000D01*
D10*
X-03000000Y-01850000D02*
X-02426418Y-01850000D01*
D10*
X-02426418Y-01850000D02*
X-01771623Y-01195206D01*
D10*
X-01771623Y-01195206D02*
X-01428976Y-01195206D01*
D10*
X-01428976Y-01195206D02*
X006921788Y-09545969D01*
D10*
X006921788Y-09545969D02*
X006921788Y-12545512D01*
D10*
X006921788Y-12545512D02*
X006921788Y-12745788D01*
D10*
X006921788Y-12745788D02*
X006954000Y-12778000D01*
D10*
X006939000Y-13628000D02*
X006939000Y-18239000D01*
D10*
X006939000Y-18239000D02*
X009000000Y-20300000D01*
D10*
X-03000000Y-01350000D02*
X-03574000Y-01350000D01*
D10*
X-03574000Y-01350000D02*
X-03698179Y-01474179D01*
D10*
X-03698179Y-01474179D02*
X-03703000Y-01479000D01*
D10*
X-03964000Y-02239000D02*
X005463000Y-11666000D01*
D10*
X005463000Y-11666000D02*
X005462500Y-20500000D01*
D10*
X-03000000Y000650000D02*
X-02407999Y000650000D01*
D10*
X-02407999Y000650000D02*
X-02296347Y000761652D01*
D10*
X-02296347Y000761652D02*
X-02270348Y000761652D01*
D10*
X-02270348Y000761652D02*
X-02236000Y000796000D01*
D10*
X-03000000Y001150000D02*
X-02420605Y001150000D01*
D10*
X-02420605Y001150000D02*
X-01957066Y001613540D01*
D10*
X-01957066Y001613540D02*
X-01957066Y002175220D01*
D10*
X-01957066Y002175220D02*
X-02089877Y002308031D01*
D10*
X-02089877Y002308031D02*
X-02089877Y002437877D01*
D10*
X-02089877Y002437877D02*
X-02141000Y002489000D01*
D10*
X-03000000Y001650000D02*
X-02500057Y001650000D01*
D10*
X-02500057Y001650000D02*
X-02454000Y001650000D01*
D10*
X-02454000Y001650000D02*
X-02353000Y001751000D01*
D10*
X-03000000Y002150000D02*
X-05928468Y002150000D01*
D10*
X-05928468Y002150000D02*
X-06140019Y001938449D01*
D10*
X-06140019Y001938449D02*
X-06140019Y001976019D01*
D10*
X-06140019Y001976019D02*
X-06155000Y001991000D01*
D10*
X-03000000Y002650000D02*
X-03085730Y002735730D01*
D10*
X-03085730Y002735730D02*
X-03382002Y002735730D01*
D10*
X-03382002Y002735730D02*
X-03819000Y003172728D01*
D10*
X-03819000Y003172728D02*
X-03819000Y003209000D01*
D55*
X033200000Y-14400000D03*
D55*
X023643728Y-19363393D03*
D55*
X030627000Y-13262000D03*
D55*
X021618000Y-19401000D03*
D55*
X-21637000Y-20420000D03*
D55*
X-26800000Y012400000D03*
D55*
X-31510000Y016346000D03*
D55*
X-29815000Y013033000D03*
D55*
X-24872000Y012673000D03*
D55*
X032600000Y-20000000D03*
D55*
X027468000Y-15177000D03*
D55*
X012527000Y-17242000D03*
D55*
X-03745000Y-18986000D03*
D55*
X-06085000Y-19203000D03*
D55*
X003250001Y-21212198D03*
D55*
X015125049Y-21291247D03*
D55*
X-13738000Y-15325000D03*
D55*
X-26845000Y013496000D03*
D55*
X-28555000Y014570000D03*
D55*
X-26400000Y018200000D03*
D55*
X-26997000Y016238000D03*
D55*
X-08125000Y-01865000D03*
D55*
X-08422000Y-02664000D03*
D55*
X-25521000Y-11524000D03*
D55*
X-26700000Y007684000D03*
D55*
X-29800000Y012400000D03*
D55*
X-01502000Y-00752000D03*
D55*
X-01542000Y-01557000D03*
D55*
X-06308000Y-04593000D03*
D55*
X-08265000Y-04773000D03*
D55*
X-32117000Y005145000D03*
D55*
X-31070000Y005171000D03*
D55*
X-29964000Y003951000D03*
D55*
X-33092000Y-01127000D03*
D55*
X-30520000Y-11506000D03*
D55*
X-14713000Y-16761000D03*
D55*
X-18994000Y-19155000D03*
D55*
X-06395000Y-18687000D03*
D55*
X016248000Y-15022000D03*
D55*
X-22121000Y-18786000D03*
D55*
X018075000Y-19087000D03*
D55*
X019045000Y-06844000D03*
D55*
X013954000Y008428000D03*
D55*
X-32738000Y002209000D03*
D55*
X-06806000Y-01232000D03*
D55*
X-06770000Y-02309000D03*
D55*
X-01991000Y-07711000D03*
D55*
X-17829000Y-04872000D03*
D55*
X000846000Y-11602000D03*
D55*
X-29625000Y006346000D03*
D55*
X007349000Y-13974000D03*
D55*
X007353000Y-12925000D03*
D55*
X003910000Y007871000D03*
D55*
X006954000Y-12778000D03*
D55*
X006939000Y-13628000D03*
D55*
X-03703000Y-01479000D03*
D55*
X-03964000Y-02239000D03*
D55*
X-02236000Y000796000D03*
D55*
X-02141000Y002489000D03*
D55*
X-02353000Y001751000D03*
D55*
X-06155000Y001991000D03*
D55*
X-03819000Y003209000D03*
M02*