%TF.GenerationSoftware,tscircuit,circuit-json-to-gerber,0.0.104*%
%TF.CreationDate,2026-09-25T02:39:00.098Z*%
%TF.SameCoordinates,Original*%
%TF.FileFunction,Soldermask,Top*%
%TF.FilePolarity,Negative*%
%FSLAX46Y46*%
%MOMM*%
G04 Gerber Fmt 4.6, Leading zero omitted, Abs format (unit mm)*
G04 Created by tscircuit (builder) date 2026-09-25T02:39:00.098Z*
G01*
%LPD*%
G75*
G04 APERTURE MACROS START*
%AMHORZPILL*
0 Horizontal pill (stadium) shape macro*
0 Parameters:*
0 $1 = Total width*
0 $2 = Total height*
0 $3 = Circle diameter (equal to height)*
0 $4 = Circle center offset
0 21 = Center Line(Exposure, Width, Height, Center X, Center Y, Rotation)*
0 1 = Circle(Exposure, Diameter, Center X, Center Y, Rotation)*
21,1,$1-$3,$2,0.0,0.0,0.0*
1,1,$3,0.0-$4,0.0*
1,1,$3,$4,0.0*%
%AMVERTPILL*
0 Vertical pill (stadium) shape macro*
0 Parameters:*
0 $1 = Total width*
0 $2 = Total height*
0 $3 = Circle diameter (equal to width)*
0 $4 = Circle center offset
0 21 = Center Line(Exposure, Width, Height, Center X, Center Y, Rotation)*
21,1,$1,$2-$3,0.0,0.0,0.0*
1,1,$3,0.0,0.0-$4*
1,1,$3,0.0,$4*%
%AMROUNDRECT*
0 Rectangle with rounded corners*
0 $1 Corner radius*
0 $2 $3 $4 $5 $6 $7 $8 $9 X,Y Position of each corner*
0 Polygon box body*
4,1,4,$2,$3,$4,$5,$6,$7,$8,$9,$2,$3,0*
0 Circles for rounded corners*
1,1,$1+$1,$2,$3*
1,1,$1+$1,$4,$5*
1,1,$1+$1,$6,$7*
1,1,$1+$1,$8,$9*
0 Rectangles between the rounded corners*
20,1,$1+$1,$2,$3,$4,$5,0*
20,1,$1+$1,$4,$5,$6,$7,0*
20,1,$1+$1,$6,$7,$8,$9,0*
20,1,$1+$1,$8,$9,$2,$3,0*%
G04 APERTURE MACROS END*
G04 aperture START LIST*
%ADD10C,0.150000*%
%ADD11C,0.100000*%
%ADD12C,0.090000*%
%ADD13R,0.600000X0.600000*%
%ADD14R,0.420000X0.420000*%
%ADD15R,0.800000X0.250000*%
%ADD16R,0.560000X0.175000*%
%ADD17R,0.800000X0.600000*%
%ADD18R,0.560000X0.420000*%
%ADD19C,0.063000*%
%ADD20R,0.800000X0.950000*%
%ADD21R,0.560000X0.665000*%
%ADD22C,0.036000*%
%ADD23R,1.125000X1.750000*%
%ADD24R,0.787500X1.225000*%
%ADD25C,0.120000*%
%ADD26ROUNDRECT,0.081250X-0.418750X0.243750X0.418750X0.243750X0.418750X-0.243750X-0.418750X-0.243750*%
%ADD27R,0.700000X0.455000*%
%ADD28C,0.045000*%
%ADD29C,1.199896*%
%ADD30C,0.900024*%
%ADD31R,1.400048X0.999998*%
%ADD32R,0.980034X0.699999*%
%ADD33R,1.999996X1.799996*%
%ADD34R,1.399997X1.259997*%
%ADD35R,1.500000X2.300000*%
%ADD36R,1.050000X1.610000*%
%ADD37C,0.070500*%
%ADD38C,0.590000*%
%ADD39C,0.055762*%
%ADD40C,1.600000*%
%ADD41C,0.046800*%
%ADD42ROUNDRECT,0.075000X-0.525000X0.225000X0.525000X0.225000X0.525000X-0.225000X-0.525000X-0.225000*%
%ADD43R,0.840000X0.420000*%
%ADD44R,2.400000X3.300000*%
%ADD45R,1.680000X2.310000*%
%ADD46C,0.055837*%
%ADD47R,0.950000X0.800000*%
%ADD48R,0.665000X0.560000*%
%ADD49R,1.520000X1.680000*%
%ADD50R,1.064000X1.176000*%
%ADD51C,0.054000*%
%ADD52R,0.600000X1.524000*%
%ADD53R,0.420000X1.066800*%
%ADD54R,1.200000X0.700000*%
%ADD55R,0.840000X0.490000*%
%ADD56C,0.900000*%
%ADD57C,2.700000*%
%ADD58C,0.081000*%
%ADD59C,0.300000*%
%ADD60C,0.001000*%
%TD*%
G04 aperture END LIST*
D13*
X002000000Y000000000D03*
D15*
X-03000000Y003150000D03*
D15*
X-03000000Y002650000D03*
D15*
X-03000000Y002150000D03*
D15*
X-03000000Y001650000D03*
D15*
X-03000000Y001150000D03*
D15*
X-03000000Y000650000D03*
D15*
X-03000000Y000150000D03*
D15*
X-03000000Y-00350000D03*
D15*
X-03000000Y-00850000D03*
D15*
X-03000000Y-01350000D03*
D15*
X-03000000Y-01850000D03*
D15*
X-03000000Y-02350000D03*
D17*
X-05540000Y-03350000D03*
D17*
X-05540000Y004150000D03*
D20*
X-10825000Y-06000000D03*
D20*
X-09175000Y-06000000D03*
D23*
X002537500Y-20500000D03*
D23*
X005462500Y-20500000D03*
D26*
%LR180*%
X011000000Y-21250000D03*
%LR0*%
D26*
%LR180*%
X011000000Y-19350000D03*
%LR0*%
D26*
%LR180*%
X009000000Y-20300000D03*
%LR0*%
D20*
X008175000Y-16500000D03*
D20*
X009825000Y-16500000D03*
D29*
X-31656823Y-01343536D03*
D30*
X-34343716Y001343357D03*
D60*
G36*
X-37405354Y-01676075D02*
X-36415371Y-00686092D01*
X-35708266Y-01393197D01*
X-36698249Y-02383180D01*
X-37405354Y-01676075D01*
G37*
D60*
G36*
X-36394178Y-02687252D02*
X-35404194Y-01697268D01*
X-34697089Y-02404374D01*
X-35687072Y-03394357D01*
X-36394178Y-02687252D01*
G37*
D60*
G36*
X-35383180Y-03698249D02*
X-34393197Y-02708266D01*
X-33686092Y-03415371D01*
X-34676075Y-04405354D01*
X-35383180Y-03698249D01*
G37*
D60*
G36*
X-30291734Y001393197D02*
X-29301751Y002383180D01*
X-28594646Y001676075D01*
X-29584629Y000686092D01*
X-30291734Y001393197D01*
G37*
D60*
G36*
X-31303091Y002403835D02*
X-30313107Y003393818D01*
X-29606002Y002686713D01*
X-30595985Y001696730D01*
X-31303091Y002403835D01*
G37*
D60*
G36*
X-32314088Y003415551D02*
X-31324105Y004405534D01*
X-30616999Y003698429D01*
X-31606983Y002708445D01*
X-32314088Y003415551D01*
G37*
D60*
G36*
X-37207394Y002792824D02*
X-35793183Y004207034D01*
X-34520393Y002934245D01*
X-35934604Y001520034D01*
X-37207394Y002792824D01*
G37*
D60*
G36*
X-31479966Y-02934604D02*
X-30065755Y-01520393D01*
X-28792966Y-02793183D01*
X-30207176Y-04207394D01*
X-31479966Y-02934604D01*
G37*
D35*
X031750000Y003450100D03*
D35*
X036250000Y003450100D03*
D35*
X036250000Y012549900D03*
D35*
X031750000Y012549900D03*
D35*
X031750000Y-10549900D03*
D35*
X036250000Y-10549900D03*
D35*
X036250000Y-01450100D03*
D35*
X031750000Y-01450100D03*
D38*
X-34905000Y011795000D03*
X-34905000Y011795000D02*
X-34905000Y013005000D01*
X-34905000Y013005000D03*
D38*
X-33635000Y011795000D03*
X-33635000Y011795000D02*
X-33635000Y013005000D01*
X-33635000Y013005000D03*
D38*
X-32365000Y011795000D03*
X-32365000Y011795000D02*
X-32365000Y013005000D01*
X-32365000Y013005000D03*
D38*
X-31095000Y011795000D03*
X-31095000Y011795000D02*
X-31095000Y013005000D01*
X-31095000Y013005000D03*
D38*
X-31095000Y016995000D03*
X-31095000Y016995000D02*
X-31095000Y018205000D01*
X-31095000Y018205000D03*
D38*
X-32365000Y016995000D03*
X-32365000Y016995000D02*
X-32365000Y018205000D01*
X-32365000Y018205000D03*
D38*
X-33635000Y016995000D03*
X-33635000Y016995000D02*
X-33635000Y018205000D01*
X-33635000Y018205000D03*
D38*
X-34905000Y016995000D03*
X-34905000Y016995000D02*
X-34905000Y018205000D01*
X-34905000Y018205000D03*
D20*
X-27825000Y019000000D03*
D20*
X-26175000Y019000000D03*
D20*
X-27825000Y011000000D03*
D20*
X-26175000Y011000000D03*
D20*
X-27825000Y015000000D03*
D20*
X-26175000Y015000000D03*
D40*
X027000000Y020000000D03*
D40*
X029000000Y020000000D03*
D20*
X023175000Y-16000000D03*
D20*
X024825000Y-16000000D03*
D42*
%LR90*%
X028095000Y-20410000D03*
%LR0*%
D42*
%LR90*%
X029365000Y-20410000D03*
%LR0*%
D42*
%LR90*%
X030635000Y-20410000D03*
%LR0*%
D42*
%LR90*%
X031905000Y-20410000D03*
%LR0*%
D42*
%LR90*%
X031905000Y-14590000D03*
%LR0*%
D42*
%LR90*%
X030635000Y-14590000D03*
%LR0*%
D42*
%LR90*%
X029365000Y-14590000D03*
%LR0*%
D42*
%LR90*%
X028095000Y-14590000D03*
%LR0*%
D60*
G36*
X028350000Y-18700000D02*
X028350000Y-16300000D01*
X031650000Y-16300000D01*
X031650000Y-18700000D01*
X028350000Y-18700000D01*
G37*
D47*
X035500000Y-18325000D03*
D47*
X035500000Y-16675000D03*
D20*
X023175000Y-20500000D03*
D20*
X024825000Y-20500000D03*
D49*
X016035050Y-20500000D03*
D49*
X019964950Y-20500000D03*
D52*
X-32250000Y-18000000D03*
D52*
X-29250000Y-18000000D03*
D52*
X-27750000Y-18000000D03*
D54*
X-33599950Y-19100100D03*
D54*
X-26400050Y-19100100D03*
D54*
X-33599950Y-21400100D03*
D54*
X-26400050Y-21400100D03*
D56*
X-31500000Y-20250200D03*
D56*
X-28500000Y-20250200D03*
D20*
X-19175000Y-20000000D03*
D20*
X-20825000Y-20000000D03*
D20*
X-16825000Y-20000000D03*
D20*
X-15175000Y-20000000D03*
D20*
X-07175000Y-20000000D03*
D20*
X-08825000Y-20000000D03*
D20*
X-04825000Y-20000000D03*
D20*
X-03175000Y-20000000D03*
D57*
X-38500000Y019500000D03*
D57*
X038500000Y019500000D03*
D57*
X038500000Y-19500000D03*
D57*
X-38500000Y-19500000D03*
M02*