%TF.GenerationSoftware,tscircuit,circuit-json-to-gerber,0.0.104*%
%TF.CreationDate,2026-09-25T02:39:00.098Z*%
%TF.SameCoordinates,Original*%
%TF.FileFunction,Paste,Top*%
%TF.FilePolarity,Positive*%
%FSLAX46Y46*%
%MOMM*%
G04 Gerber Fmt 4.6, Leading zero omitted, Abs format (unit mm)*
G04 Created by tscircuit (builder) date 2026-09-25T02:39:00.098Z*
G01*
%LPD*%
G75*
G04 APERTURE MACROS START*
%AMHORZPILL*
0 Horizontal pill (stadium) shape macro*
0 Parameters:*
0 $1 = Total width*
0 $2 = Total height*
0 $3 = Circle diameter (equal to height)*
0 $4 = Circle center offset
0 21 = Center Line(Exposure, Width, Height, Center X, Center Y, Rotation)*
0 1 = Circle(Exposure, Diameter, Center X, Center Y, Rotation)*
21,1,$1-$3,$2,0.0,0.0,0.0*
1,1,$3,0.0-$4,0.0*
1,1,$3,$4,0.0*%
%AMVERTPILL*
0 Vertical pill (stadium) shape macro*
0 Parameters:*
0 $1 = Total width*
0 $2 = Total height*
0 $3 = Circle diameter (equal to width)*
0 $4 = Circle center offset
0 21 = Center Line(Exposure, Width, Height, Center X, Center Y, Rotation)*
21,1,$1,$2-$3,0.0,0.0,0.0*
1,1,$3,0.0,0.0-$4*
1,1,$3,0.0,$4*%
%AMROUNDRECT*
0 Rectangle with rounded corners*
0 $1 Corner radius*
0 $2 $3 $4 $5 $6 $7 $8 $9 X,Y Position of each corner*
0 Polygon box body*
4,1,4,$2,$3,$4,$5,$6,$7,$8,$9,$2,$3,0*
0 Circles for rounded corners*
1,1,$1+$1,$2,$3*
1,1,$1+$1,$4,$5*
1,1,$1+$1,$6,$7*
1,1,$1+$1,$8,$9*
0 Rectangles between the rounded corners*
20,1,$1+$1,$2,$3,$4,$5,0*
20,1,$1+$1,$4,$5,$6,$7,0*
20,1,$1+$1,$6,$7,$8,$9,0*
20,1,$1+$1,$8,$9,$2,$3,0*%
G04 APERTURE MACROS END*
G04 aperture START LIST*
%ADD10C,0.150000*%
%ADD11C,0.100000*%
%ADD12C,0.090000*%
%ADD13R,0.600000X0.600000*%
%ADD14R,0.420000X0.420000*%
%ADD15R,0.800000X0.250000*%
%ADD16R,0.560000X0.175000*%
%ADD17R,0.800000X0.600000*%
%ADD18R,0.560000X0.420000*%
%ADD19C,0.063000*%
%ADD20R,0.800000X0.950000*%
%ADD21R,0.560000X0.665000*%
%ADD22C,0.036000*%
%ADD23R,1.125000X1.750000*%
%ADD24R,0.787500X1.225000*%
%ADD25C,0.120000*%
%ADD26ROUNDRECT,0.081250X-0.418750X0.243750X0.418750X0.243750X0.418750X-0.243750X-0.418750X-0.243750*%
%ADD27R,0.700000X0.455000*%
%ADD28C,0.045000*%
%ADD29R,1.400048X0.999998*%
%ADD30R,0.980034X0.699999*%
%ADD31R,1.999996X1.799996*%
%ADD32R,1.399997X1.259997*%
%ADD33R,1.500000X2.300000*%
%ADD34R,1.050000X1.610000*%
%ADD35C,0.070500*%
%ADD36C,0.590000*%
%ADD37C,0.055762*%
%ADD38C,1.600000*%
%ADD39C,0.046800*%
%ADD40ROUNDRECT,0.075000X-0.525000X0.225000X0.525000X0.225000X0.525000X-0.225000X-0.525000X-0.225000*%
%ADD41R,0.840000X0.420000*%
%ADD42R,2.400000X3.300000*%
%ADD43R,1.680000X2.310000*%
%ADD44C,0.055837*%
%ADD45R,0.950000X0.800000*%
%ADD46R,0.665000X0.560000*%
%ADD47R,1.520000X1.680000*%
%ADD48R,1.064000X1.176000*%
%ADD49C,0.054000*%
%ADD50R,0.600000X1.524000*%
%ADD51R,0.420000X1.066800*%
%ADD52R,1.200000X0.700000*%
%ADD53R,0.840000X0.490000*%
%ADD54C,0.081000*%
%ADD55C,0.300000*%
%TD*%
G04 aperture END LIST*
D14*
X002000000Y000000000D03*
D16*
X-03000000Y003150000D03*
D16*
X-03000000Y002650000D03*
D16*
X-03000000Y002150000D03*
D16*
X-03000000Y001650000D03*
D16*
X-03000000Y001150000D03*
D16*
X-03000000Y000650000D03*
D16*
X-03000000Y000150000D03*
D16*
X-03000000Y-00350000D03*
D16*
X-03000000Y-00850000D03*
D16*
X-03000000Y-01350000D03*
D16*
X-03000000Y-01850000D03*
D16*
X-03000000Y-02350000D03*
D18*
X-05540000Y-03350000D03*
D18*
X-05540000Y004150000D03*
D21*
X-10825000Y-06000000D03*
D21*
X-09175000Y-06000000D03*
D24*
X002537500Y-20500000D03*
D24*
X005462500Y-20500000D03*
D27*
%LR180*%
X011000000Y-21250000D03*
%LR0*%
D27*
%LR180*%
X011000000Y-19350000D03*
%LR0*%
D27*
%LR180*%
X009000000Y-20300000D03*
%LR0*%
D21*
X008175000Y-16500000D03*
D21*
X009825000Y-16500000D03*
D30*
%LR45*%
X-36556810Y-01534636D03*
%LR0*%
D30*
%LR45*%
X-35545633Y-02545813D03*
%LR0*%
D30*
%LR45*%
X-34534636Y-03556810D03*
%LR0*%
D30*
%LR45*%
X-29443190Y001534636D03*
%LR0*%
D30*
%LR45*%
X-30454546Y002545274D03*
%LR0*%
D30*
%LR45*%
X-31465544Y003556990D03*
%LR0*%
D32*
%LR45*%
X-35863893Y002863534D03*
%LR0*%
D32*
%LR45*%
X-30136466Y-02863893D03*
%LR0*%
D34*
X031750000Y003450100D03*
D34*
X036250000Y003450100D03*
D34*
X036250000Y012549900D03*
D34*
X031750000Y012549900D03*
D34*
X031750000Y-10549900D03*
D34*
X036250000Y-10549900D03*
D34*
X036250000Y-01450100D03*
D34*
X031750000Y-01450100D03*
D21*
X-27825000Y019000000D03*
D21*
X-26175000Y019000000D03*
D21*
X-27825000Y011000000D03*
D21*
X-26175000Y011000000D03*
D21*
X-27825000Y015000000D03*
D21*
X-26175000Y015000000D03*
D38*
X027000000Y020000000D03*
D38*
X029000000Y020000000D03*
D21*
X023175000Y-16000000D03*
D21*
X024825000Y-16000000D03*
D41*
%LR90*%
X028095000Y-20410000D03*
%LR0*%
D41*
%LR90*%
X029365000Y-20410000D03*
%LR0*%
D41*
%LR90*%
X030635000Y-20410000D03*
%LR0*%
D41*
%LR90*%
X031905000Y-20410000D03*
%LR0*%
D41*
%LR90*%
X031905000Y-14590000D03*
%LR0*%
D41*
%LR90*%
X030635000Y-14590000D03*
%LR0*%
D41*
%LR90*%
X029365000Y-14590000D03*
%LR0*%
D41*
%LR90*%
X028095000Y-14590000D03*
%LR0*%
D43*
%LR90*%
X030000000Y-17500000D03*
%LR0*%
D46*
X035500000Y-18325000D03*
D46*
X035500000Y-16675000D03*
D21*
X023175000Y-20500000D03*
D21*
X024825000Y-20500000D03*
D48*
X016035050Y-20500000D03*
D48*
X019964950Y-20500000D03*
D51*
X-32250000Y-18000000D03*
D51*
X-29250000Y-18000000D03*
D51*
X-27750000Y-18000000D03*
D53*
X-33599950Y-19100100D03*
D53*
X-26400050Y-19100100D03*
D53*
X-33599950Y-21400100D03*
D53*
X-26400050Y-21400100D03*
D21*
X-19175000Y-20000000D03*
D21*
X-20825000Y-20000000D03*
D21*
X-16825000Y-20000000D03*
D21*
X-15175000Y-20000000D03*
D21*
X-07175000Y-20000000D03*
D21*
X-08825000Y-20000000D03*
D21*
X-04825000Y-20000000D03*
D21*
X-03175000Y-20000000D03*
M02*