%TF.GenerationSoftware,tscircuit,circuit-json-to-gerber,0.0.104*%
%TF.CreationDate,2026-09-25T02:39:00.098Z*%
%TF.SameCoordinates,Original*%
%TF.FileFunction,Legend,Top*%
%TF.FilePolarity,Positive*%
%FSLAX46Y46*%
%MOMM*%
G04 Gerber Fmt 4.6, Leading zero omitted, Abs format (unit mm)*
G04 Created by tscircuit (builder) date 2026-09-25T02:39:00.098Z*
G01*
%LPD*%
G75*
G04 APERTURE MACROS START*
%AMHORZPILL*
0 Horizontal pill (stadium) shape macro*
0 Parameters:*
0 $1 = Total width*
0 $2 = Total height*
0 $3 = Circle diameter (equal to height)*
0 $4 = Circle center offset
0 21 = Center Line(Exposure, Width, Height, Center X, Center Y, Rotation)*
0 1 = Circle(Exposure, Diameter, Center X, Center Y, Rotation)*
21,1,$1-$3,$2,0.0,0.0,0.0*
1,1,$3,0.0-$4,0.0*
1,1,$3,$4,0.0*%
%AMVERTPILL*
0 Vertical pill (stadium) shape macro*
0 Parameters:*
0 $1 = Total width*
0 $2 = Total height*
0 $3 = Circle diameter (equal to width)*
0 $4 = Circle center offset
0 21 = Center Line(Exposure, Width, Height, Center X, Center Y, Rotation)*
21,1,$1,$2-$3,0.0,0.0,0.0*
1,1,$3,0.0,0.0-$4*
1,1,$3,0.0,$4*%
%AMROUNDRECT*
0 Rectangle with rounded corners*
0 $1 Corner radius*
0 $2 $3 $4 $5 $6 $7 $8 $9 X,Y Position of each corner*
0 Polygon box body*
4,1,4,$2,$3,$4,$5,$6,$7,$8,$9,$2,$3,0*
0 Circles for rounded corners*
1,1,$1+$1,$2,$3*
1,1,$1+$1,$4,$5*
1,1,$1+$1,$6,$7*
1,1,$1+$1,$8,$9*
0 Rectangles between the rounded corners*
20,1,$1+$1,$2,$3,$4,$5,0*
20,1,$1+$1,$4,$5,$6,$7,0*
20,1,$1+$1,$6,$7,$8,$9,0*
20,1,$1+$1,$8,$9,$2,$3,0*%
G04 APERTURE MACROS END*
G04 aperture START LIST*
%ADD10C,0.150000*%
%ADD11C,0.100000*%
%ADD12C,0.090000*%
%ADD13R,0.600000X0.600000*%
%ADD14R,0.420000X0.420000*%
%ADD15R,0.800000X0.250000*%
%ADD16R,0.560000X0.175000*%
%ADD17R,0.800000X0.600000*%
%ADD18R,0.560000X0.420000*%
%ADD19C,0.063000*%
%ADD20R,0.800000X0.950000*%
%ADD21R,0.560000X0.665000*%
%ADD22C,0.036000*%
%ADD23R,1.125000X1.750000*%
%ADD24R,0.787500X1.225000*%
%ADD25C,0.120000*%
%ADD26ROUNDRECT,0.081250X-0.418750X0.243750X0.418750X0.243750X0.418750X-0.243750X-0.418750X-0.243750*%
%ADD27R,0.700000X0.455000*%
%ADD28C,0.045000*%
%ADD29R,1.400048X0.999998*%
%ADD30R,0.980034X0.699999*%
%ADD31R,1.999996X1.799996*%
%ADD32R,1.399997X1.259997*%
%ADD33R,1.500000X2.300000*%
%ADD34R,1.050000X1.610000*%
%ADD35C,0.070500*%
%ADD36C,0.590000*%
%ADD37C,0.055762*%
%ADD38C,1.600000*%
%ADD39C,0.046800*%
%ADD40ROUNDRECT,0.075000X-0.525000X0.225000X0.525000X0.225000X0.525000X-0.225000X-0.525000X-0.225000*%
%ADD41R,0.840000X0.420000*%
%ADD42R,2.400000X3.300000*%
%ADD43R,1.680000X2.310000*%
%ADD44C,0.055837*%
%ADD45R,0.950000X0.800000*%
%ADD46R,0.665000X0.560000*%
%ADD47R,1.520000X1.680000*%
%ADD48R,1.064000X1.176000*%
%ADD49C,0.054000*%
%ADD50R,0.600000X1.524000*%
%ADD51R,0.420000X1.066800*%
%ADD52R,1.200000X0.700000*%
%ADD53R,0.840000X0.490000*%
%ADD54C,0.081000*%
%ADD55C,0.300000*%
%TD*%
G04 aperture END LIST*
D11*
X-02400000Y003275000D02*
X-02400000Y-02475000D01*
D11*
X-06140000Y003275000D02*
X-06140000Y-02475000D01*
D11*
X-03250000Y003725000D02*
X-03000000Y003475000D01*
X-02750000Y003725000D01*
D19*
X-01587788Y000636085D02*
X-01838275Y000635608D01*
X-01838275Y000635608D02*
X-01869622Y000640187D01*
X-01869622Y000640187D02*
X-01886587Y000648877D01*
X-01886587Y000648877D02*
X-01900077Y000661063D01*
X-01900077Y000661063D02*
X-01910410Y000675650D01*
X-01910410Y000675650D02*
X-01922858Y000707671D01*
X-01922858Y000707671D02*
X-01926448Y000736207D01*
X-01926448Y000736207D02*
X-01922283Y000774886D01*
X-01922283Y000774886D02*
X-01910853Y000803400D01*
X-01910853Y000803400D02*
X-01899780Y000817271D01*
X-01899780Y000817271D02*
X-01886353Y000827387D01*
X-01886353Y000827387D02*
X-01870921Y000834054D01*
X-01870921Y000834054D02*
X-01853834Y000837576D01*
X-01853834Y000837576D02*
X-01835442Y000838259D01*
X-01624086Y000360013D02*
X-01609660Y000341615D01*
X-01609660Y000341615D02*
X-01594205Y000312292D01*
X-01594205Y000312292D02*
X-01581328Y000274920D01*
X-01581328Y000274920D02*
X-01583900Y000228925D01*
X-01583900Y000228925D02*
X-01596781Y000188678D01*
X-01596781Y000188678D02*
X-01619964Y000159929D01*
X-01619964Y000159929D02*
X-01648301Y000142681D01*
X-01648301Y000142681D02*
X-01679213Y000148431D01*
X-01679213Y000148431D02*
X-01702397Y000171429D01*
X-01702397Y000171429D02*
X-01720429Y000211676D01*
X-01720429Y000211676D02*
X-01730733Y000257673D01*
X-01730733Y000257673D02*
X-01735885Y000297918D01*
X-01735885Y000297918D02*
X-01741037Y000257673D01*
X-01741037Y000257673D02*
X-01753917Y000211676D01*
X-01753917Y000211676D02*
X-01774525Y000171429D01*
X-01774525Y000171429D02*
X-01802862Y000145556D01*
X-01802862Y000145556D02*
X-01833773Y000139807D01*
X-01833773Y000139807D02*
X-01867262Y000151305D01*
X-01867262Y000151305D02*
X-01895598Y000177178D01*
X-01895598Y000177178D02*
X-01918782Y000217426D01*
X-01918782Y000217426D02*
X-01925995Y000247898D01*
X-01925995Y000247898D02*
X-01924964Y000297344D01*
X-01924964Y000297344D02*
X-01918782Y000337590D01*
X-01918782Y000337590D02*
X-01910539Y000365187D01*
D11*
X-09175000Y-05125000D02*
X-11425000Y-05125000D01*
X-11425000Y-06875000D01*
X-09175000Y-06875000D01*
D22*
X-10128686Y-04602557D02*
X-10137262Y-04581655D01*
X-10137262Y-04581655D02*
X-10152994Y-04566855D01*
X-10152994Y-04566855D02*
X-10182788Y-04557188D01*
X-10182788Y-04557188D02*
X-10204805Y-04560140D01*
X-10204805Y-04560140D02*
X-10224207Y-04570049D01*
X-10224207Y-04570049D02*
X-10243153Y-04592921D01*
X-10243153Y-04592921D02*
X-10256381Y-04652956D01*
X-10256381Y-04652956D02*
X-10246000Y-04713308D01*
X-10246000Y-04713308D02*
X-10230514Y-04737611D01*
X-10230514Y-04737611D02*
X-10214414Y-04748984D01*
X-10214414Y-04748984D02*
X-10183048Y-04754140D01*
X-10183048Y-04754140D02*
X-10155712Y-04747550D01*
X-10155712Y-04747550D02*
X-10135472Y-04728320D01*
X-10135472Y-04728320D02*
X-10128686Y-04701178D01*
X-09882822Y-04560879D02*
X-09986328Y-04687776D01*
X-09986328Y-04687776D02*
X-09845097Y-04687776D01*
X-09884029Y-04646887D02*
X-09884029Y-04750712D01*
D25*
X003272936Y-19590000D02*
X004727064Y-19590000D01*
D25*
X003272936Y-21410000D02*
X004727064Y-21410000D01*
D22*
X003732955Y-18849351D02*
X003732955Y-18665796D01*
X003732955Y-18665796D02*
X003786775Y-18660879D01*
X003786775Y-18660879D02*
X003824550Y-18662523D01*
X003824550Y-18662523D02*
X003847338Y-18667574D01*
X003847338Y-18667574D02*
X003856920Y-18671692D01*
X003856920Y-18671692D02*
X003864806Y-18677052D01*
X003864806Y-18677052D02*
X003870632Y-18683789D01*
X003870632Y-18683789D02*
X003875769Y-18702057D01*
X003875769Y-18702057D02*
X003875287Y-18718258D01*
X003875287Y-18718258D02*
X003870029Y-18729989D01*
X003870029Y-18729989D02*
X003860592Y-18738025D01*
X003860592Y-18738025D02*
X003847573Y-18743144D01*
X003847573Y-18743144D02*
X003822634Y-18747047D01*
X003822634Y-18747047D02*
X003736522Y-18750096D01*
X003808034Y-18757846D02*
X003881978Y-18850712D01*
X004119994Y-18657188D02*
X004095601Y-18664815D01*
X004095601Y-18664815D02*
X004073004Y-18672388D01*
X004073004Y-18672388D02*
X004053813Y-18685851D01*
X004053813Y-18685851D02*
X004038893Y-18700071D01*
X004038893Y-18700071D02*
X004027501Y-18725118D01*
X004027501Y-18725118D02*
X004019670Y-18748595D01*
X004019670Y-18748595D02*
X004018834Y-18772800D01*
X004018834Y-18772800D02*
X004018246Y-18796922D01*
X004018246Y-18796922D02*
X004024406Y-18814872D01*
X004024406Y-18814872D02*
X004030287Y-18826092D01*
X004030287Y-18826092D02*
X004044216Y-18840677D01*
X004044216Y-18840677D02*
X004059075Y-18850494D01*
X004059075Y-18850494D02*
X004081981Y-18854140D01*
X004081981Y-18854140D02*
X004107673Y-18852738D01*
X004107673Y-18852738D02*
X004127795Y-18843762D01*
X004127795Y-18843762D02*
X004142033Y-18831702D01*
X004142033Y-18831702D02*
X004149772Y-18815153D01*
X004149772Y-18815153D02*
X004150391Y-18801129D01*
X004150391Y-18801129D02*
X004146058Y-18786263D01*
X004146058Y-18786263D02*
X004139557Y-18773642D01*
X004139557Y-18773642D02*
X004129652Y-18763264D01*
X004129652Y-18763264D02*
X004116031Y-18756813D01*
X004116031Y-18756813D02*
X004097149Y-18752605D01*
X004097149Y-18752605D02*
X004079195Y-18751764D01*
X004079195Y-18751764D02*
X004060313Y-18754569D01*
X004060313Y-18754569D02*
X004040812Y-18764666D01*
X004040812Y-18764666D02*
X004030597Y-18775044D01*
X004030597Y-18775044D02*
X004018184Y-18787722D01*
D11*
X010700000Y-21950000D02*
X009000000Y-21950000D01*
X009000000Y-21125000D01*
D11*
X010700000Y-18650000D02*
X009000000Y-18650000D01*
X009000000Y-19475000D01*
D28*
X010247174Y-22607215D02*
X010277620Y-22618124D01*
X010277620Y-22618124D02*
X010305449Y-22651314D01*
X010305449Y-22651314D02*
X010326031Y-22763970D01*
X010326031Y-22763970D02*
X010306427Y-22848288D01*
X010306427Y-22848288D02*
X010282375Y-22872304D01*
X010282375Y-22872304D02*
X010240731Y-22884765D01*
X010240731Y-22884765D02*
X010201522Y-22869806D01*
X010201522Y-22869806D02*
X010178566Y-22842469D01*
X010178566Y-22842469D02*
X010158907Y-22739764D01*
X010158907Y-22739764D02*
X010168691Y-22674922D01*
X010168691Y-22674922D02*
X010186127Y-22637447D01*
X010186127Y-22637447D02*
X010217096Y-22611921D01*
X010217096Y-22611921D02*
X010247174Y-22607215D01*
X010226597Y-22689554D02*
X010155303Y-22600271D01*
X009922851Y-22832043D02*
X009866431Y-22880151D01*
X009866431Y-22880151D02*
X009866431Y-22642862D01*
D25*
X008762742Y-15977500D02*
X009237258Y-15977500D01*
D25*
X008762742Y-17022500D02*
X009237258Y-17022500D01*
D22*
X008732955Y-15249351D02*
X008732955Y-15065796D01*
X008732955Y-15065796D02*
X008786775Y-15060879D01*
X008786775Y-15060879D02*
X008824550Y-15062523D01*
X008824550Y-15062523D02*
X008847338Y-15067574D01*
X008847338Y-15067574D02*
X008856920Y-15071692D01*
X008856920Y-15071692D02*
X008864806Y-15077052D01*
X008864806Y-15077052D02*
X008870632Y-15083789D01*
X008870632Y-15083789D02*
X008875769Y-15102057D01*
X008875769Y-15102057D02*
X008875287Y-15118258D01*
X008875287Y-15118258D02*
X008870029Y-15129989D01*
X008870029Y-15129989D02*
X008860592Y-15138025D01*
X008860592Y-15138025D02*
X008847573Y-15143144D01*
X008847573Y-15143144D02*
X008822634Y-15147047D01*
X008822634Y-15147047D02*
X008736522Y-15150096D01*
X008808034Y-15157846D02*
X008881978Y-15250712D01*
X009020030Y-15060879D02*
X009148545Y-15060879D01*
X009148545Y-15060879D02*
X009138862Y-15066677D01*
X009138862Y-15066677D02*
X009133771Y-15070514D01*
X009133771Y-15070514D02*
X009121852Y-15081911D01*
X009121852Y-15081911D02*
X009115379Y-15089758D01*
X009115379Y-15089758D02*
X009108798Y-15099229D01*
X009108798Y-15099229D02*
X009102288Y-15110467D01*
X009102288Y-15110467D02*
X009096024Y-15123617D01*
X009096024Y-15123617D02*
X009090183Y-15138822D01*
X009090183Y-15138822D02*
X009084942Y-15156227D01*
X009084942Y-15156227D02*
X009080476Y-15175974D01*
X009080476Y-15175974D02*
X009075622Y-15210302D01*
X009075622Y-15210302D02*
X009073508Y-15250712D01*
D11*
X-33718690Y000718331D02*
X-33718690Y-00718510D01*
X-32281849Y-00718510D01*
X-32281849Y000718331D01*
X-33718690Y000718331D01*
D11*
X-37310792Y-01077721D02*
X-37222427Y-01166086D01*
D11*
X-34166266Y-04222247D02*
X-34077900Y-04310613D01*
D11*
X-34077900Y-04310613D02*
X-31922639Y-04310613D01*
D11*
X-31922639Y-04310613D02*
X-31176739Y-03564713D01*
D11*
X-29435647Y-01823621D02*
X-28689746Y-01077721D01*
D11*
X-28689746Y-01077721D02*
X-28689746Y001077541D01*
D11*
X-28689746Y001077541D02*
X-28777753Y001165547D01*
D11*
X-31834632Y004222427D02*
X-31922639Y004310433D01*
D11*
X-31922639Y004310433D02*
X-34077900Y004310433D01*
D11*
X-37310792Y001077541D02*
X-37310792Y-01077721D01*
D11*
X-37310792Y001077541D02*
X-36771887Y001616446D01*
X-36412497Y001616446D01*
D11*
X-34077900Y004310433D02*
X-34616446Y003771887D01*
X-34616446Y003412497D01*
D11*
X-30896231Y-01183939D02*
X-30785518Y-00961008D01*
X-30698348Y-00727862D01*
X-30635646Y-00486979D01*
X-30598080Y-00240921D01*
X-30586049Y000007697D01*
X-30599680Y000256232D01*
X-30638829Y000502043D01*
X-30703080Y000742517D01*
X-30791750Y000975097D01*
X-30903896Y001197311D01*
X-31038325Y001406797D01*
X-31193610Y001601328D01*
X-31368100Y001778837D01*
X-31559938Y001937436D01*
X-31767088Y002075439D01*
X-31987345Y002191380D01*
X-32218370Y002284026D01*
X-32457706Y002352392D01*
X-32702810Y002395752D01*
X-32951075Y002413645D01*
X-33199863Y002405880D01*
X-33446529Y002372540D01*
X-33688452Y002313979D01*
X-33923059Y002230821D01*
X-34147856Y002123948D01*
X-34360455Y001994497D01*
D11*
X-35072104Y001234462D02*
X-35189498Y001011794D01*
X-35283044Y000778103D01*
X-35351723Y000535934D01*
X-35394787Y000287926D01*
X-35411767Y000036781D01*
X-35402477Y-00214767D01*
X-35367019Y-00463976D01*
X-35305780Y-00708132D01*
X-35219425Y-00944575D01*
X-35108897Y-01170729D01*
X-34975399Y-01384132D01*
X-34820385Y-01582458D01*
X-34645544Y-01763546D01*
X-34452781Y-01925425D01*
X-34244195Y-02066330D01*
X-34022059Y-02184727D01*
X-33788792Y-02279326D01*
X-33546936Y-02349097D01*
X-33299124Y-02393279D01*
X-33048058Y-02411391D01*
X-32796471Y-02403235D01*
X-32547105Y-02368902D01*
X-32302675Y-02308764D01*
X-32065845Y-02223477D01*
X-31839194Y-02113970D01*
D11*
X-31602331Y-00609957D02*
X-31522524Y-00377528D01*
X-31481082Y-00135300D01*
X-31479082Y000110440D01*
X-31516574Y000353312D01*
X-31592586Y000587009D01*
X-31705144Y000805464D01*
X-31851326Y001003007D01*
X-32027337Y001174507D01*
X-32228607Y001315513D01*
X-32449910Y001422364D01*
X-32685501Y001492285D01*
X-32929263Y001523462D01*
X-33174869Y001515085D01*
X-33415940Y001467370D01*
X-33646219Y001381559D01*
D11*
X-34356881Y000691659D02*
X-34448397Y000470885D01*
X-34504244Y000238512D01*
X-34523047Y000000263D01*
X-34504343Y-00237994D01*
X-34448593Y-00470391D01*
X-34357169Y-00691203D01*
X-34232323Y-00894992D01*
X-34077131Y-01076738D01*
X-33895414Y-01231965D01*
X-33691649Y-01356850D01*
X-33470855Y-01448316D01*
X-33238469Y-01504111D01*
X-33000215Y-01522860D01*
X-32761962Y-01504103D01*
X-32529578Y-01448300D01*
D12*
X-37762788Y003790508D02*
X-37848063Y003801116D01*
X-37848063Y003801116D02*
X-37941339Y003717407D01*
X-37941339Y003717407D02*
X-37956414Y003633281D01*
X-37956414Y003633281D02*
X-37913320Y003549687D01*
X-37913320Y003549687D02*
X-37873656Y003526798D01*
X-37873656Y003526798D02*
X-37815260Y003531163D01*
X-37815260Y003531163D02*
X-37669125Y003633729D01*
X-37669125Y003633729D02*
X-37601542Y003649811D01*
X-37601542Y003649811D02*
X-37541480Y003620795D01*
X-37541480Y003620795D02*
X-37492269Y003530689D01*
X-37492269Y003530689D02*
X-37524452Y003437962D01*
X-37524452Y003437962D02*
X-37607007Y003359915D01*
X-37607007Y003359915D02*
X-37675485Y003340561D01*
X-37675485Y003340561D02*
X-37757908Y003373668D01*
X-37558724Y004086971D02*
X-37187899Y003795143D01*
X-37187899Y003795143D02*
X-37317629Y004128207D01*
X-37317629Y004128207D02*
X-36973056Y004001479D01*
X-36973056Y004001479D02*
X-37260724Y004384972D01*
X-37032271Y004613425D02*
X-36862146Y004443299D01*
X-36862146Y004443299D02*
X-36789135Y004561056D01*
X-36789135Y004561056D02*
X-36712615Y004620745D01*
X-36712615Y004620745D02*
X-36670324Y004632658D01*
X-36670324Y004632658D02*
X-36629949Y004629928D01*
X-36629949Y004629928D02*
X-36556820Y004585580D01*
X-36556820Y004585580D02*
X-36533112Y004548260D01*
X-36533112Y004548260D02*
X-36526954Y004506387D01*
X-36526954Y004506387D02*
X-36539741Y004448990D01*
X-36539741Y004448990D02*
X-36568561Y004396701D01*
X-36568561Y004396701D02*
X-36604815Y004356684D01*
X-36604815Y004356684D02*
X-36643054Y004330692D01*
X-36643054Y004330692D02*
X-36681022Y004316739D01*
X-36681022Y004316739D02*
X-36733004Y004314157D01*
X-37032271Y004613425D02*
X-36808468Y004837227D01*
D35*
X030025609Y007451704D02*
X029972500Y007410347D01*
X029972500Y007410347D02*
X029967201Y007312314D01*
X029967201Y007312314D02*
X030005448Y007257367D01*
X030005448Y007257367D02*
X030075621Y007234934D01*
X030075621Y007234934D02*
X030110269Y007244225D01*
X030110269Y007244225D02*
X030140197Y007278989D01*
X030140197Y007278989D02*
X030164329Y007416744D01*
X030164329Y007416744D02*
X030192856Y007463087D01*
X030192856Y007463087D02*
X030242196Y007480283D01*
X030242196Y007480283D02*
X030319363Y007457631D01*
X030319363Y007457631D02*
X030352899Y007388444D01*
X030352899Y007388444D02*
X030350402Y007299486D01*
X030350402Y007299486D02*
X030323193Y007250835D01*
X030323193Y007250835D02*
X030259200Y007223520D01*
X029974429Y007728946D02*
X030341473Y007772703D01*
X030341473Y007772703D02*
X030085131Y007885330D01*
X030085131Y007885330D02*
X030346185Y008005994D01*
X030346185Y008005994D02*
X029974429Y008059071D01*
X030049800Y008391921D02*
X029974429Y008480312D01*
X029974429Y008480312D02*
X030346183Y008480312D01*
D11*
X030500000Y006300100D02*
X030500000Y001800100D01*
X035000000Y001800100D01*
D11*
X030500000Y009699900D02*
X030500000Y014199900D01*
X035000000Y014199900D01*
D11*
X037500000Y006300100D02*
X037500000Y001800100D01*
X033000000Y001800100D01*
D11*
X037500000Y009699900D02*
X037500000Y014199900D01*
X033000000Y014199900D01*
D11*
X032750000Y001237600D02*
X031625000Y000112600D01*
X033875000Y000112600D01*
X032750000Y001237600D01*
D12*
X033666621Y014685721D02*
X033857099Y015160303D01*
X033857099Y015160303D02*
X034062764Y014685721D01*
X033762686Y014870835D02*
X033957458Y014870835D01*
D35*
X030025609Y-06548296D02*
X029972500Y-06589653D01*
X029972500Y-06589653D02*
X029967201Y-06687686D01*
X029967201Y-06687686D02*
X030005448Y-06742633D01*
X030005448Y-06742633D02*
X030075621Y-06765066D01*
X030075621Y-06765066D02*
X030110269Y-06755775D01*
X030110269Y-06755775D02*
X030140197Y-06721011D01*
X030140197Y-06721011D02*
X030164329Y-06583256D01*
X030164329Y-06583256D02*
X030192856Y-06536913D01*
X030192856Y-06536913D02*
X030242196Y-06519717D01*
X030242196Y-06519717D02*
X030319363Y-06542369D01*
X030319363Y-06542369D02*
X030352899Y-06611556D01*
X030352899Y-06611556D02*
X030350402Y-06700514D01*
X030350402Y-06700514D02*
X030323193Y-06749165D01*
X030323193Y-06749165D02*
X030259200Y-06776480D01*
X029974429Y-06271054D02*
X030341473Y-06227297D01*
X030341473Y-06227297D02*
X030085131Y-06114670D01*
X030085131Y-06114670D02*
X030346185Y-05994006D01*
X030346185Y-05994006D02*
X029974429Y-05940929D01*
X030040846Y-05668405D02*
X030013524Y-05660064D01*
X030013524Y-05660064D02*
X029988043Y-05635417D01*
X029988043Y-05635417D02*
X029970763Y-05595023D01*
X029970763Y-05595023D02*
X029967201Y-05569097D01*
X029967201Y-05569097D02*
X029970483Y-05524243D01*
X029970483Y-05524243D02*
X029985237Y-05490595D01*
X029985237Y-05490595D02*
X030007861Y-05472195D01*
X030007861Y-05472195D02*
X030034152Y-05465586D01*
X030034152Y-05465586D02*
X030051640Y-05466025D01*
X030051640Y-05466025D02*
X030080914Y-05473923D01*
X030080914Y-05473923D02*
X030137828Y-05508203D01*
X030137828Y-05508203D02*
X030246097Y-05594531D01*
X030246097Y-05594531D02*
X030345678Y-05685304D01*
X030345678Y-05685304D02*
X030345678Y-05442463D01*
D11*
X030500000Y-07699900D02*
X030500000Y-12199900D01*
X035000000Y-12199900D01*
D11*
X030500000Y-04300100D02*
X030500000Y000199900D01*
X035000000Y000199900D01*
D11*
X037500000Y-07699900D02*
X037500000Y-12199900D01*
X033000000Y-12199900D01*
D11*
X037500000Y-04300100D02*
X037500000Y000199900D01*
X033000000Y000199900D01*
D11*
X032750000Y-12762400D02*
X031625000Y-13887400D01*
X033875000Y-13887400D01*
X032750000Y-12762400D01*
D12*
X033698750Y000685721D02*
X033698750Y001154733D01*
X033698750Y001154733D02*
X033800523Y001160303D01*
X033800523Y001160303D02*
X033893714Y001143924D01*
X033893714Y001143924D02*
X033956499Y001088956D01*
X033956499Y001088956D02*
X033946731Y001008589D01*
X033946731Y001008589D02*
X033872854Y000965584D01*
X033872854Y000965584D02*
X033713284Y000947128D01*
X033713284Y000947128D02*
X033868438Y000937396D01*
X033868438Y000937396D02*
X033982188Y000896781D01*
X033982188Y000896781D02*
X034030635Y000834339D01*
X034030635Y000834339D02*
X034026654Y000753586D01*
X034026654Y000753586D02*
X034004847Y000717912D01*
X034004847Y000717912D02*
X033950459Y000688921D01*
X033950459Y000688921D02*
X033698750Y000685721D01*
D11*
X-30482500Y013400000D02*
X-35517500Y013400000D01*
X-35517500Y014466667D01*
X-35313402Y014507264D01*
X-35140376Y014622876D01*
X-35024764Y014795902D01*
X-34984167Y015000000D01*
X-35024764Y015204098D01*
X-35140376Y015377124D01*
X-35313402Y015492736D01*
X-35517500Y015533333D01*
X-35517500Y016600000D01*
X-30482500Y016600000D01*
X-30482500Y013400000D01*
D37*
X-36016821Y014602453D02*
X-35852932Y014602912D01*
X-35852932Y014602912D02*
X-35808349Y014606074D01*
X-35808349Y014606074D02*
X-35775325Y014614164D01*
X-35775325Y014614164D02*
X-35750206Y014629674D01*
X-35750206Y014629674D02*
X-35733598Y014649965D01*
X-35733598Y014649965D02*
X-35721603Y014680278D01*
X-35721603Y014680278D02*
X-35717066Y014718527D01*
X-35717066Y014718527D02*
X-35721608Y014745373D01*
X-35721608Y014745373D02*
X-35733570Y014767391D01*
X-35733570Y014767391D02*
X-35747586Y014780568D01*
X-35747586Y014780568D02*
X-35756798Y014786225D01*
X-35756798Y014786225D02*
X-35780288Y014794879D01*
X-35780288Y014794879D02*
X-35811404Y014798919D01*
X-35811404Y014798919D02*
X-36016378Y014801095D01*
X-35964288Y015047885D02*
X-35985899Y015054483D01*
X-35985899Y015054483D02*
X-36006053Y015073978D01*
X-36006053Y015073978D02*
X-36019721Y015105928D01*
X-36019721Y015105928D02*
X-36022539Y015126434D01*
X-36022539Y015126434D02*
X-36019942Y015161912D01*
X-36019942Y015161912D02*
X-36008273Y015188526D01*
X-36008273Y015188526D02*
X-35990378Y015203079D01*
X-35990378Y015203079D02*
X-35969583Y015208307D01*
X-35969583Y015208307D02*
X-35955750Y015207960D01*
X-35955750Y015207960D02*
X-35932597Y015201713D01*
X-35932597Y015201713D02*
X-35887579Y015174598D01*
X-35887579Y015174598D02*
X-35801944Y015106317D01*
X-35801944Y015106317D02*
X-35723179Y015034519D01*
X-35723179Y015034519D02*
X-35723179Y015226596D01*
D25*
X-27237258Y019522500D02*
X-26762742Y019522500D01*
D25*
X-27237258Y018477500D02*
X-26762742Y018477500D01*
D22*
X-27267045Y020250649D02*
X-27267045Y020434204D01*
X-27267045Y020434204D02*
X-27213225Y020439121D01*
X-27213225Y020439121D02*
X-27175450Y020437477D01*
X-27175450Y020437477D02*
X-27152662Y020432426D01*
X-27152662Y020432426D02*
X-27143080Y020428308D01*
X-27143080Y020428308D02*
X-27135194Y020422948D01*
X-27135194Y020422948D02*
X-27129368Y020416211D01*
X-27129368Y020416211D02*
X-27124231Y020397943D01*
X-27124231Y020397943D02*
X-27124713Y020381742D01*
X-27124713Y020381742D02*
X-27129971Y020370011D01*
X-27129971Y020370011D02*
X-27139408Y020361975D01*
X-27139408Y020361975D02*
X-27152427Y020356856D01*
X-27152427Y020356856D02*
X-27177366Y020352953D01*
X-27177366Y020352953D02*
X-27263478Y020349904D01*
X-27191966Y020342154D02*
X-27118022Y020249288D01*
X-26938281Y020400634D02*
X-26893145Y020439121D01*
X-26893145Y020439121D02*
X-26893145Y020249290D01*
D25*
X-27237258Y011522500D02*
X-26762742Y011522500D01*
D25*
X-27237258Y010477500D02*
X-26762742Y010477500D01*
D22*
X-27267045Y012250649D02*
X-27267045Y012434204D01*
X-27267045Y012434204D02*
X-27213225Y012439121D01*
X-27213225Y012439121D02*
X-27175450Y012437477D01*
X-27175450Y012437477D02*
X-27152662Y012432426D01*
X-27152662Y012432426D02*
X-27143080Y012428308D01*
X-27143080Y012428308D02*
X-27135194Y012422948D01*
X-27135194Y012422948D02*
X-27129368Y012416211D01*
X-27129368Y012416211D02*
X-27124231Y012397943D01*
X-27124231Y012397943D02*
X-27124713Y012381742D01*
X-27124713Y012381742D02*
X-27129971Y012370011D01*
X-27129971Y012370011D02*
X-27139408Y012361975D01*
X-27139408Y012361975D02*
X-27152427Y012356856D01*
X-27152427Y012356856D02*
X-27177366Y012352953D01*
X-27177366Y012352953D02*
X-27263478Y012349904D01*
X-27191966Y012342154D02*
X-27118022Y012249288D01*
X-26969085Y012405206D02*
X-26964826Y012419158D01*
X-26964826Y012419158D02*
X-26952240Y012432170D01*
X-26952240Y012432170D02*
X-26931614Y012440993D01*
X-26931614Y012440993D02*
X-26918375Y012442812D01*
X-26918375Y012442812D02*
X-26895471Y012441136D01*
X-26895471Y012441136D02*
X-26878289Y012433603D01*
X-26878289Y012433603D02*
X-26868893Y012422050D01*
X-26868893Y012422050D02*
X-26865518Y012408624D01*
X-26865518Y012408624D02*
X-26865742Y012399694D01*
X-26865742Y012399694D02*
X-26869775Y012384746D01*
X-26869775Y012384746D02*
X-26887280Y012355683D01*
X-26887280Y012355683D02*
X-26931362Y012300397D01*
X-26931362Y012300397D02*
X-26977715Y012249547D01*
X-26977715Y012249547D02*
X-26853711Y012249547D01*
D11*
X-26175000Y015875000D02*
X-28425000Y015875000D01*
X-28425000Y014125000D01*
X-26175000Y014125000D01*
D22*
X-27128686Y016397443D02*
X-27137262Y016418345D01*
X-27137262Y016418345D02*
X-27152994Y016433145D01*
X-27152994Y016433145D02*
X-27182788Y016442812D01*
X-27182788Y016442812D02*
X-27204805Y016439860D01*
X-27204805Y016439860D02*
X-27224207Y016429951D01*
X-27224207Y016429951D02*
X-27243153Y016407079D01*
X-27243153Y016407079D02*
X-27256381Y016347044D01*
X-27256381Y016347044D02*
X-27246000Y016286692D01*
X-27246000Y016286692D02*
X-27230514Y016262389D01*
X-27230514Y016262389D02*
X-27214414Y016251016D01*
X-27214414Y016251016D02*
X-27183048Y016245860D01*
X-27183048Y016245860D02*
X-27155712Y016252450D01*
X-27155712Y016252450D02*
X-27135472Y016271680D01*
X-27135472Y016271680D02*
X-27128686Y016298822D01*
X-26938281Y016400634D02*
X-26893145Y016439121D01*
X-26893145Y016439121D02*
X-26893145Y016249290D01*
D11*
X024825000Y-15125000D02*
X022575000Y-15125000D01*
X022575000Y-16875000D01*
X024825000Y-16875000D01*
D22*
X023871314Y-14602557D02*
X023862738Y-14581655D01*
X023862738Y-14581655D02*
X023847006Y-14566855D01*
X023847006Y-14566855D02*
X023817212Y-14557188D01*
X023817212Y-14557188D02*
X023795195Y-14560140D01*
X023795195Y-14560140D02*
X023775793Y-14570049D01*
X023775793Y-14570049D02*
X023756847Y-14592921D01*
X023756847Y-14592921D02*
X023743619Y-14652956D01*
X023743619Y-14652956D02*
X023754000Y-14713308D01*
X023754000Y-14713308D02*
X023769486Y-14737611D01*
X023769486Y-14737611D02*
X023785586Y-14748984D01*
X023785586Y-14748984D02*
X023816952Y-14754140D01*
X023816952Y-14754140D02*
X023844288Y-14747550D01*
X023844288Y-14747550D02*
X023864528Y-14728320D01*
X023864528Y-14728320D02*
X023871314Y-14701178D01*
X024030915Y-14594794D02*
X024035174Y-14580842D01*
X024035174Y-14580842D02*
X024047760Y-14567830D01*
X024047760Y-14567830D02*
X024068386Y-14559007D01*
X024068386Y-14559007D02*
X024081625Y-14557188D01*
X024081625Y-14557188D02*
X024104529Y-14558864D01*
X024104529Y-14558864D02*
X024121711Y-14566397D01*
X024121711Y-14566397D02*
X024131107Y-14577950D01*
X024131107Y-14577950D02*
X024134482Y-14591376D01*
X024134482Y-14591376D02*
X024134258Y-14600306D01*
X024134258Y-14600306D02*
X024130225Y-14615254D01*
X024130225Y-14615254D02*
X024112720Y-14644317D01*
X024112720Y-14644317D02*
X024068638Y-14699603D01*
X024068638Y-14699603D02*
X024022285Y-14750453D01*
X024022285Y-14750453D02*
X024146289Y-14750453D01*
D44*
X026978045Y-17898082D02*
X027142155Y-17897623D01*
X027142155Y-17897623D02*
X027186798Y-17894456D01*
X027186798Y-17894456D02*
X027219866Y-17886355D01*
X027219866Y-17886355D02*
X027245019Y-17870824D01*
X027245019Y-17870824D02*
X027261650Y-17850506D01*
X027261650Y-17850506D02*
X027273661Y-17820152D01*
X027273661Y-17820152D02*
X027278203Y-17781851D01*
X027278203Y-17781851D02*
X027273656Y-17754969D01*
X027273656Y-17754969D02*
X027261677Y-17732922D01*
X027261677Y-17732922D02*
X027247643Y-17719728D01*
X027247643Y-17719728D02*
X027238418Y-17714063D01*
X027238418Y-17714063D02*
X027214897Y-17705397D01*
X027214897Y-17705397D02*
X027183739Y-17701351D01*
X027183739Y-17701351D02*
X026978489Y-17699173D01*
X027010216Y-17464559D02*
X026997431Y-17448252D01*
X026997431Y-17448252D02*
X026983733Y-17422264D01*
X026983733Y-17422264D02*
X026972320Y-17389141D01*
X026972320Y-17389141D02*
X026974600Y-17348374D01*
X026974600Y-17348374D02*
X026986016Y-17312703D01*
X026986016Y-17312703D02*
X027006564Y-17287223D01*
X027006564Y-17287223D02*
X027031678Y-17271936D01*
X027031678Y-17271936D02*
X027059076Y-17277032D01*
X027059076Y-17277032D02*
X027079625Y-17297415D01*
X027079625Y-17297415D02*
X027095606Y-17333087D01*
X027095606Y-17333087D02*
X027104739Y-17373854D01*
X027104739Y-17373854D02*
X027109305Y-17409524D01*
X027109305Y-17409524D02*
X027113871Y-17373854D01*
X027113871Y-17373854D02*
X027125287Y-17333087D01*
X027125287Y-17333087D02*
X027143552Y-17297415D01*
X027143552Y-17297415D02*
X027168667Y-17274484D01*
X027168667Y-17274484D02*
X027196065Y-17269388D01*
X027196065Y-17269388D02*
X027225746Y-17279580D01*
X027225746Y-17279580D02*
X027250860Y-17302511D01*
X027250860Y-17302511D02*
X027271409Y-17338183D01*
X027271409Y-17338183D02*
X027277801Y-17365191D01*
X027277801Y-17365191D02*
X027276888Y-17409015D01*
X027276888Y-17409015D02*
X027271409Y-17444686D01*
X027271409Y-17444686D02*
X027264103Y-17469145D01*
D11*
X027477500Y-20057500D02*
X027477500Y-21327500D01*
X028747500Y-21327500D01*
D11*
X027477500Y-14942500D02*
X027477500Y-13672500D01*
X028747500Y-13672500D01*
D11*
X032522500Y-20057500D02*
X032522500Y-21327500D01*
X031252500Y-21327500D01*
D11*
X032522500Y-14942500D02*
X032522500Y-13672500D01*
X031252500Y-13672500D01*
D11*
X028112500Y-21486250D02*
X027795000Y-21803750D01*
X028430000Y-21803750D01*
X028112500Y-21486250D01*
D25*
X034977500Y-17737258D02*
X034977500Y-17262742D01*
D25*
X036022500Y-17737258D02*
X036022500Y-17262742D01*
D22*
X034249351Y-17767045D02*
X034065796Y-17767045D01*
X034065796Y-17767045D02*
X034060879Y-17713225D01*
X034060879Y-17713225D02*
X034062523Y-17675450D01*
X034062523Y-17675450D02*
X034067574Y-17652662D01*
X034067574Y-17652662D02*
X034071692Y-17643080D01*
X034071692Y-17643080D02*
X034077052Y-17635194D01*
X034077052Y-17635194D02*
X034083789Y-17629368D01*
X034083789Y-17629368D02*
X034102057Y-17624231D01*
X034102057Y-17624231D02*
X034118258Y-17624713D01*
X034118258Y-17624713D02*
X034129989Y-17629971D01*
X034129989Y-17629971D02*
X034138025Y-17639408D01*
X034138025Y-17639408D02*
X034143144Y-17652427D01*
X034143144Y-17652427D02*
X034147047Y-17677366D01*
X034147047Y-17677366D02*
X034150096Y-17763478D01*
X034157846Y-17691966D02*
X034250712Y-17618022D01*
X034081620Y-17477150D02*
X034073377Y-17466637D01*
X034073377Y-17466637D02*
X034064545Y-17449881D01*
X034064545Y-17449881D02*
X034057188Y-17428526D01*
X034057188Y-17428526D02*
X034058657Y-17402243D01*
X034058657Y-17402243D02*
X034066017Y-17379244D01*
X034066017Y-17379244D02*
X034079265Y-17362817D01*
X034079265Y-17362817D02*
X034095457Y-17352961D01*
X034095457Y-17352961D02*
X034113122Y-17356246D01*
X034113122Y-17356246D02*
X034126370Y-17369388D01*
X034126370Y-17369388D02*
X034136674Y-17392386D01*
X034136674Y-17392386D02*
X034142562Y-17418670D01*
X034142562Y-17418670D02*
X034145506Y-17441668D01*
X034145506Y-17441668D02*
X034148450Y-17418670D01*
X034148450Y-17418670D02*
X034155810Y-17392386D01*
X034155810Y-17392386D02*
X034167586Y-17369388D01*
X034167586Y-17369388D02*
X034183778Y-17354603D01*
X034183778Y-17354603D02*
X034201442Y-17351318D01*
X034201442Y-17351318D02*
X034220578Y-17357889D01*
X034220578Y-17357889D02*
X034236770Y-17372673D01*
X034236770Y-17372673D02*
X034250018Y-17395672D01*
X034250018Y-17395672D02*
X034254140Y-17413085D01*
X034254140Y-17413085D02*
X034253551Y-17441339D01*
X034253551Y-17441339D02*
X034250018Y-17464337D01*
X034250018Y-17464337D02*
X034245308Y-17480107D01*
D11*
X024825000Y-19625000D02*
X022575000Y-19625000D01*
X022575000Y-21375000D01*
X024825000Y-21375000D01*
D22*
X023871314Y-19102557D02*
X023862738Y-19081655D01*
X023862738Y-19081655D02*
X023847006Y-19066855D01*
X023847006Y-19066855D02*
X023817212Y-19057188D01*
X023817212Y-19057188D02*
X023795195Y-19060140D01*
X023795195Y-19060140D02*
X023775793Y-19070049D01*
X023775793Y-19070049D02*
X023756847Y-19092921D01*
X023756847Y-19092921D02*
X023743619Y-19152956D01*
X023743619Y-19152956D02*
X023754000Y-19213308D01*
X023754000Y-19213308D02*
X023769486Y-19237611D01*
X023769486Y-19237611D02*
X023785586Y-19248984D01*
X023785586Y-19248984D02*
X023816952Y-19254140D01*
X023816952Y-19254140D02*
X023844288Y-19247550D01*
X023844288Y-19247550D02*
X023864528Y-19228320D01*
X023864528Y-19228320D02*
X023871314Y-19201178D01*
X024022850Y-19081620D02*
X024033363Y-19073377D01*
X024033363Y-19073377D02*
X024050119Y-19064545D01*
X024050119Y-19064545D02*
X024071474Y-19057188D01*
X024071474Y-19057188D02*
X024097757Y-19058657D01*
X024097757Y-19058657D02*
X024120756Y-19066017D01*
X024120756Y-19066017D02*
X024137183Y-19079265D01*
X024137183Y-19079265D02*
X024147039Y-19095457D01*
X024147039Y-19095457D02*
X024143754Y-19113122D01*
X024143754Y-19113122D02*
X024130612Y-19126370D01*
X024130612Y-19126370D02*
X024107614Y-19136674D01*
X024107614Y-19136674D02*
X024081330Y-19142562D01*
X024081330Y-19142562D02*
X024058332Y-19145506D01*
X024058332Y-19145506D02*
X024081330Y-19148450D01*
X024081330Y-19148450D02*
X024107614Y-19155810D01*
X024107614Y-19155810D02*
X024130612Y-19167586D01*
X024130612Y-19167586D02*
X024145397Y-19183778D01*
X024145397Y-19183778D02*
X024148682Y-19201442D01*
X024148682Y-19201442D02*
X024142111Y-19220578D01*
X024142111Y-19220578D02*
X024127327Y-19236770D01*
X024127327Y-19236770D02*
X024104328Y-19250018D01*
X024104328Y-19250018D02*
X024086915Y-19254140D01*
X024086915Y-19254140D02*
X024058661Y-19253551D01*
X024058661Y-19253551D02*
X024035663Y-19250018D01*
X024035663Y-19250018D02*
X024019893Y-19245308D01*
D49*
X017611839Y-19048567D02*
X017614941Y-18769733D01*
X017614941Y-18769733D02*
X017656680Y-18763818D01*
X017656680Y-18763818D02*
X017688655Y-18764506D01*
X017688655Y-18764506D02*
X017740593Y-18778553D01*
X017740593Y-18778553D02*
X017779002Y-18808888D01*
X017779002Y-18808888D02*
X017800963Y-18849733D01*
X017800963Y-18849733D02*
X017809717Y-18892085D01*
X017809717Y-18892085D02*
X017810560Y-18923971D01*
X017810560Y-18923971D02*
X017806556Y-18951300D01*
X017806556Y-18951300D02*
X017798365Y-18974416D01*
X017798365Y-18974416D02*
X017772067Y-19009392D01*
X017772067Y-19009392D02*
X017736958Y-19031658D01*
X017736958Y-19031658D02*
X017679354Y-19047262D01*
X017679354Y-19047262D02*
X017611839Y-19048567D01*
X018092579Y-18821549D02*
X018160283Y-18763818D01*
X018160283Y-18763818D02*
X018160283Y-19048566D01*
D11*
X-32799950Y-18962000D02*
X-27200050Y-18962000D01*
D11*
X-32799950Y-20850100D02*
X-27200050Y-20850100D01*
D11*
X-32799950Y-20850100D02*
X-32799950Y-18962000D01*
D11*
X-27200050Y-20850100D02*
X-27200050Y-18962000D01*
D19*
X-30489966Y-16571523D02*
X-30526924Y-16524064D01*
X-30526924Y-16524064D02*
X-30614528Y-16519328D01*
X-30614528Y-16519328D02*
X-30663629Y-16553507D01*
X-30663629Y-16553507D02*
X-30683676Y-16616214D01*
X-30683676Y-16616214D02*
X-30675373Y-16647176D01*
X-30675373Y-16647176D02*
X-30644308Y-16673920D01*
X-30644308Y-16673920D02*
X-30521207Y-16695486D01*
X-30521207Y-16695486D02*
X-30479795Y-16720978D01*
X-30479795Y-16720978D02*
X-30464428Y-16765069D01*
X-30464428Y-16765069D02*
X-30484670Y-16834027D01*
X-30484670Y-16834027D02*
X-30546497Y-16863995D01*
X-30546497Y-16863995D02*
X-30625991Y-16861764D01*
X-30625991Y-16861764D02*
X-30669466Y-16837449D01*
X-30669466Y-16837449D02*
X-30693876Y-16780264D01*
X-30242218Y-16525788D02*
X-30203117Y-16853785D01*
X-30203117Y-16853785D02*
X-30102471Y-16624713D01*
X-30102471Y-16624713D02*
X-29994643Y-16857995D01*
X-29994643Y-16857995D02*
X-29947213Y-16525788D01*
X-29547793Y-16519328D02*
X-29590480Y-16532676D01*
X-29590480Y-16532676D02*
X-29630024Y-16545929D01*
X-29630024Y-16545929D02*
X-29663610Y-16569489D01*
X-29663610Y-16569489D02*
X-29689720Y-16594375D01*
X-29689720Y-16594375D02*
X-29709654Y-16638207D01*
X-29709654Y-16638207D02*
X-29723360Y-16679291D01*
X-29723360Y-16679291D02*
X-29724822Y-16721651D01*
X-29724822Y-16721651D02*
X-29725851Y-16763863D01*
X-29725851Y-16763863D02*
X-29715072Y-16795277D01*
X-29715072Y-16795277D02*
X-29704779Y-16814911D01*
X-29704779Y-16814911D02*
X-29680403Y-16840434D01*
X-29680403Y-16840434D02*
X-29654401Y-16857614D01*
X-29654401Y-16857614D02*
X-29614315Y-16863995D01*
X-29614315Y-16863995D02*
X-29569353Y-16861541D01*
X-29569353Y-16861541D02*
X-29534141Y-16845834D01*
X-29534141Y-16845834D02*
X-29509223Y-16824728D01*
X-29509223Y-16824728D02*
X-29495681Y-16795768D01*
X-29495681Y-16795768D02*
X-29494597Y-16771226D01*
X-29494597Y-16771226D02*
X-29502181Y-16745211D01*
X-29502181Y-16745211D02*
X-29513557Y-16723123D01*
X-29513557Y-16723123D02*
X-29530891Y-16704962D01*
X-29530891Y-16704962D02*
X-29554727Y-16693672D01*
X-29554727Y-16693672D02*
X-29587771Y-16686310D01*
X-29587771Y-16686310D02*
X-29619190Y-16684838D01*
X-29619190Y-16684838D02*
X-29652234Y-16689746D01*
X-29652234Y-16689746D02*
X-29686361Y-16707416D01*
X-29686361Y-16707416D02*
X-29704238Y-16725577D01*
X-29704238Y-16725577D02*
X-29725960Y-16747763D01*
D11*
X-20825000Y-20875000D02*
X-18575000Y-20875000D01*
X-18575000Y-19125000D01*
X-20825000Y-19125000D01*
D22*
X-19467482Y-21439121D02*
X-19467482Y-21249288D01*
X-19467482Y-21249288D02*
X-19593810Y-21249288D01*
X-19745601Y-21439121D02*
X-19745601Y-21249288D01*
X-19745601Y-21439121D02*
X-19869332Y-21439121D01*
X-19745601Y-21344205D02*
X-19832213Y-21344205D01*
X-19745601Y-21249288D02*
X-19869332Y-21249288D01*
X-20018047Y-21249288D02*
X-20020115Y-21435178D01*
X-20020115Y-21435178D02*
X-20047941Y-21439121D01*
X-20047941Y-21439121D02*
X-20069257Y-21438663D01*
X-20069257Y-21438663D02*
X-20103883Y-21429298D01*
X-20103883Y-21429298D02*
X-20129489Y-21409075D01*
X-20129489Y-21409075D02*
X-20144129Y-21381845D01*
X-20144129Y-21381845D02*
X-20149965Y-21353610D01*
X-20149965Y-21353610D02*
X-20150528Y-21332352D01*
X-20150528Y-21332352D02*
X-20147858Y-21314133D01*
X-20147858Y-21314133D02*
X-20142397Y-21298723D01*
X-20142397Y-21298723D02*
X-20124865Y-21275405D01*
X-20124865Y-21275405D02*
X-20101460Y-21260561D01*
X-20101460Y-21260561D02*
X-20063057Y-21250159D01*
X-20063057Y-21250159D02*
X-20018047Y-21249288D01*
X-20338540Y-21400634D02*
X-20383676Y-21439121D01*
X-20383676Y-21439121D02*
X-20383676Y-21249290D01*
D25*
X-16237258Y-19477500D02*
X-15762742Y-19477500D01*
D25*
X-16237258Y-20522500D02*
X-15762742Y-20522500D01*
D22*
X-16267045Y-18749351D02*
X-16267045Y-18565796D01*
X-16267045Y-18565796D02*
X-16213225Y-18560879D01*
X-16213225Y-18560879D02*
X-16175450Y-18562523D01*
X-16175450Y-18562523D02*
X-16152662Y-18567574D01*
X-16152662Y-18567574D02*
X-16143080Y-18571692D01*
X-16143080Y-18571692D02*
X-16135194Y-18577052D01*
X-16135194Y-18577052D02*
X-16129368Y-18583789D01*
X-16129368Y-18583789D02*
X-16124231Y-18602057D01*
X-16124231Y-18602057D02*
X-16124713Y-18618258D01*
X-16124713Y-18618258D02*
X-16129971Y-18629989D01*
X-16129971Y-18629989D02*
X-16139408Y-18638025D01*
X-16139408Y-18638025D02*
X-16152427Y-18643144D01*
X-16152427Y-18643144D02*
X-16177366Y-18647047D01*
X-16177366Y-18647047D02*
X-16263478Y-18650096D01*
X-16191966Y-18657846D02*
X-16118022Y-18750712D01*
X-15882822Y-18560879D02*
X-15986328Y-18687776D01*
X-15986328Y-18687776D02*
X-15845097Y-18687776D01*
X-15884029Y-18646887D02*
X-15884029Y-18750712D01*
D19*
X-20692082Y-21819995D02*
X-20692082Y-21494057D01*
X-20692082Y-21494057D02*
X-20625205Y-21487788D01*
X-20625205Y-21487788D02*
X-20565379Y-21491707D01*
X-20565379Y-21491707D02*
X-20526477Y-21502252D01*
X-20526477Y-21502252D02*
X-20509084Y-21510775D01*
X-20509084Y-21510775D02*
X-20481342Y-21535775D01*
X-20481342Y-21535775D02*
X-20469015Y-21562627D01*
X-20469015Y-21562627D02*
X-20466222Y-21601882D01*
X-20466222Y-21601882D02*
X-20477277Y-21626560D01*
X-20477277Y-21626560D02*
X-20494530Y-21640201D01*
X-20494530Y-21640201D02*
X-20522042Y-21651139D01*
X-20522042Y-21651139D02*
X-20561831Y-21658982D01*
X-20561831Y-21658982D02*
X-20615908Y-21663341D01*
X-20615908Y-21663341D02*
X-20686294Y-21663826D01*
X-20242218Y-21487788D02*
X-20203117Y-21815785D01*
X-20203117Y-21815785D02*
X-20102471Y-21586713D01*
X-20102471Y-21586713D02*
X-19994643Y-21819995D01*
X-19994643Y-21819995D02*
X-19947213Y-21487788D01*
X-19740675Y-21817615D02*
X-19740675Y-21496392D01*
X-19740675Y-21496392D02*
X-19646490Y-21487788D01*
X-19646490Y-21487788D02*
X-19580383Y-21490665D01*
X-19580383Y-21490665D02*
X-19540505Y-21499504D01*
X-19540505Y-21499504D02*
X-19523736Y-21506711D01*
X-19523736Y-21506711D02*
X-19509935Y-21516091D01*
X-19509935Y-21516091D02*
X-19499740Y-21527880D01*
X-19499740Y-21527880D02*
X-19490750Y-21559850D01*
X-19490750Y-21559850D02*
X-19491594Y-21588201D01*
X-19491594Y-21588201D02*
X-19500795Y-21608730D01*
X-19500795Y-21608730D02*
X-19517309Y-21622794D01*
X-19517309Y-21622794D02*
X-19540092Y-21631752D01*
X-19540092Y-21631752D02*
X-19583736Y-21638582D01*
X-19583736Y-21638582D02*
X-19734432Y-21643917D01*
X-19609285Y-21657480D02*
X-19479883Y-21819995D01*
D11*
X-08825000Y-20875000D02*
X-06575000Y-20875000D01*
X-06575000Y-19125000D01*
X-08825000Y-19125000D01*
D22*
X-07467482Y-21439121D02*
X-07467482Y-21249288D01*
X-07467482Y-21249288D02*
X-07593810Y-21249288D01*
X-07745601Y-21439121D02*
X-07745601Y-21249288D01*
X-07745601Y-21439121D02*
X-07869332Y-21439121D01*
X-07745601Y-21344205D02*
X-07832213Y-21344205D01*
X-07745601Y-21249288D02*
X-07869332Y-21249288D01*
X-08018047Y-21249288D02*
X-08020115Y-21435178D01*
X-08020115Y-21435178D02*
X-08047941Y-21439121D01*
X-08047941Y-21439121D02*
X-08069257Y-21438663D01*
X-08069257Y-21438663D02*
X-08103883Y-21429298D01*
X-08103883Y-21429298D02*
X-08129489Y-21409075D01*
X-08129489Y-21409075D02*
X-08144129Y-21381845D01*
X-08144129Y-21381845D02*
X-08149965Y-21353610D01*
X-08149965Y-21353610D02*
X-08150528Y-21332352D01*
X-08150528Y-21332352D02*
X-08147858Y-21314133D01*
X-08147858Y-21314133D02*
X-08142397Y-21298723D01*
X-08142397Y-21298723D02*
X-08124865Y-21275405D01*
X-08124865Y-21275405D02*
X-08101460Y-21260561D01*
X-08101460Y-21260561D02*
X-08063057Y-21250159D01*
X-08063057Y-21250159D02*
X-08018047Y-21249288D01*
X-08307735Y-21405206D02*
X-08311995Y-21419158D01*
X-08311995Y-21419158D02*
X-08324581Y-21432170D01*
X-08324581Y-21432170D02*
X-08345207Y-21440993D01*
X-08345207Y-21440993D02*
X-08358446Y-21442812D01*
X-08358446Y-21442812D02*
X-08381350Y-21441136D01*
X-08381350Y-21441136D02*
X-08398532Y-21433603D01*
X-08398532Y-21433603D02*
X-08407928Y-21422050D01*
X-08407928Y-21422050D02*
X-08411303Y-21408624D01*
X-08411303Y-21408624D02*
X-08411079Y-21399694D01*
X-08411079Y-21399694D02*
X-08407045Y-21384746D01*
X-08407045Y-21384746D02*
X-08389541Y-21355683D01*
X-08389541Y-21355683D02*
X-08345458Y-21300397D01*
X-08345458Y-21300397D02*
X-08299106Y-21249547D01*
X-08299106Y-21249547D02*
X-08423110Y-21249547D01*
D25*
X-04237258Y-19477500D02*
X-03762742Y-19477500D01*
D25*
X-04237258Y-20522500D02*
X-03762742Y-20522500D01*
D22*
X-04267045Y-18749351D02*
X-04267045Y-18565796D01*
X-04267045Y-18565796D02*
X-04213225Y-18560879D01*
X-04213225Y-18560879D02*
X-04175450Y-18562523D01*
X-04175450Y-18562523D02*
X-04152662Y-18567574D01*
X-04152662Y-18567574D02*
X-04143080Y-18571692D01*
X-04143080Y-18571692D02*
X-04135194Y-18577052D01*
X-04135194Y-18577052D02*
X-04129368Y-18583789D01*
X-04129368Y-18583789D02*
X-04124231Y-18602057D01*
X-04124231Y-18602057D02*
X-04124713Y-18618258D01*
X-04124713Y-18618258D02*
X-04129971Y-18629989D01*
X-04129971Y-18629989D02*
X-04139408Y-18638025D01*
X-04139408Y-18638025D02*
X-04152427Y-18643144D01*
X-04152427Y-18643144D02*
X-04177366Y-18647047D01*
X-04177366Y-18647047D02*
X-04263478Y-18650096D01*
X-04191966Y-18657846D02*
X-04118022Y-18750712D01*
X-03979014Y-18560879D02*
X-03979014Y-18657116D01*
X-03979014Y-18657116D02*
X-03925057Y-18644460D01*
X-03925057Y-18644460D02*
X-03886531Y-18649221D01*
X-03886531Y-18649221D02*
X-03871199Y-18657813D01*
X-03871199Y-18657813D02*
X-03860552Y-18670005D01*
X-03860552Y-18670005D02*
X-03852412Y-18703232D01*
X-03852412Y-18703232D02*
X-03856261Y-18720494D01*
X-03856261Y-18720494D02*
X-03866363Y-18734079D01*
X-03866363Y-18734079D02*
X-03886214Y-18746696D01*
X-03886214Y-18746696D02*
X-03909155Y-18753334D01*
X-03909155Y-18753334D02*
X-03930728Y-18754399D01*
X-03930728Y-18754399D02*
X-03948896Y-18750935D01*
X-03948896Y-18750935D02*
X-03963581Y-18744142D01*
X-03963581Y-18744142D02*
X-03979014Y-18730170D01*
X-03979014Y-18560879D02*
X-03852412Y-18560879D01*
D19*
X-08467418Y-21560725D02*
X-08482426Y-21524146D01*
X-08482426Y-21524146D02*
X-08509958Y-21498247D01*
X-08509958Y-21498247D02*
X-08562098Y-21481328D01*
X-08562098Y-21481328D02*
X-08600627Y-21486495D01*
X-08600627Y-21486495D02*
X-08634581Y-21503837D01*
X-08634581Y-21503837D02*
X-08667736Y-21543862D01*
X-08667736Y-21543862D02*
X-08690886Y-21648924D01*
X-08690886Y-21648924D02*
X-08672719Y-21754539D01*
X-08672719Y-21754539D02*
X-08645618Y-21797070D01*
X-08645618Y-21797070D02*
X-08617442Y-21816972D01*
X-08617442Y-21816972D02*
X-08562552Y-21825995D01*
X-08562552Y-21825995D02*
X-08514715Y-21814463D01*
X-08514715Y-21814463D02*
X-08479295Y-21780810D01*
X-08479295Y-21780810D02*
X-08467418Y-21733312D01*
X-08209440Y-21487788D02*
X-08209440Y-21819995D01*
X-08209440Y-21646872D02*
X-07982514Y-21646872D01*
X-07979991Y-21487788D02*
X-07979991Y-21819995D01*
X-07513745Y-21494622D02*
X-07574218Y-21481328D01*
X-07574218Y-21481328D02*
X-07638114Y-21486638D01*
X-07638114Y-21486638D02*
X-07679099Y-21507879D01*
X-07679099Y-21507879D02*
X-07711449Y-21550077D01*
X-07711449Y-21550077D02*
X-07730147Y-21641180D01*
X-07730147Y-21641180D02*
X-07720173Y-21739911D01*
X-07720173Y-21739911D02*
X-07698558Y-21775517D01*
X-07698558Y-21775517D02*
X-07665198Y-21804200D01*
X-07665198Y-21804200D02*
X-07624988Y-21822260D01*
X-07624988Y-21822260D02*
X-07582818Y-21825995D01*
X-07582818Y-21825995D02*
X-07543578Y-21811703D01*
X-07543578Y-21811703D02*
X-07512163Y-21775684D01*
X-07512163Y-21775684D02*
X-07490410Y-21672819D01*
X-07490410Y-21672819D02*
X-07596280Y-21672584D01*
D54*
X-34934325Y-08962163D02*
X-34934325Y-09412174D01*
X-34934325Y-09026185D02*
X-34887023Y-08983297D01*
X-34887023Y-08983297D02*
X-34840430Y-08962163D01*
X-34840430Y-08962163D02*
X-34769831Y-08962163D01*
X-34769831Y-08962163D02*
X-34722530Y-08983297D01*
X-34722530Y-08983297D02*
X-34675230Y-09026185D01*
X-34675230Y-09026185D02*
X-34651931Y-09090826D01*
X-34651931Y-09090826D02*
X-34651931Y-09133715D01*
X-34651931Y-09133715D02*
X-34675230Y-09197736D01*
X-34675230Y-09197736D02*
X-34722530Y-09240623D01*
X-34722530Y-09240623D02*
X-34769831Y-09262377D01*
X-34769831Y-09262377D02*
X-34840430Y-09262377D01*
X-34840430Y-09262377D02*
X-34887023Y-09240623D01*
X-34887023Y-09240623D02*
X-34934325Y-09197736D01*
X-34195481Y-08836347D02*
X-34145081Y-08836347D01*
X-34170311Y-08984936D02*
X-34170311Y-09281495D01*
X-33414236Y-09033908D02*
X-33458858Y-08985847D01*
X-33458858Y-08985847D02*
X-33502813Y-08962163D01*
X-33502813Y-08962163D02*
X-33569413Y-08962163D01*
X-33569413Y-08962163D02*
X-33614034Y-08985847D01*
X-33614034Y-08985847D02*
X-33658655Y-09033908D01*
X-33658655Y-09033908D02*
X-33680633Y-09106349D01*
X-33680633Y-09106349D02*
X-33680633Y-09154412D01*
X-33680633Y-09154412D02*
X-33658655Y-09226157D01*
X-33658655Y-09226157D02*
X-33614034Y-09274220D01*
X-33614034Y-09274220D02*
X-33569413Y-09298598D01*
X-33569413Y-09298598D02*
X-33502813Y-09298598D01*
X-33502813Y-09298598D02*
X-33458858Y-09274220D01*
X-33458858Y-09274220D02*
X-33414236Y-09226157D01*
X-32958514Y-08962163D02*
X-33003872Y-08985847D01*
X-33003872Y-08985847D02*
X-33049227Y-09033908D01*
X-33049227Y-09033908D02*
X-33072090Y-09106349D01*
X-33072090Y-09106349D02*
X-33072090Y-09154412D01*
X-33072090Y-09154412D02*
X-33049227Y-09226157D01*
X-33049227Y-09226157D02*
X-33003872Y-09274220D01*
X-33003872Y-09274220D02*
X-32958514Y-09298598D01*
X-32958514Y-09298598D02*
X-32890663Y-09298598D01*
X-32890663Y-09298598D02*
X-32845305Y-09274220D01*
X-32845305Y-09274220D02*
X-32799948Y-09226157D01*
X-32799948Y-09226157D02*
X-32777085Y-09154412D01*
X-32777085Y-09154412D02*
X-32777085Y-09106349D01*
X-32777085Y-09106349D02*
X-32799948Y-09033908D01*
X-32799948Y-09033908D02*
X-32845305Y-08985847D01*
X-32845305Y-08985847D02*
X-32890663Y-08962163D01*
X-32890663Y-08962163D02*
X-32958514Y-08962163D01*
X-32491387Y-08970469D02*
X-32396565Y-09290883D01*
X-32301742Y-08970469D02*
X-32396565Y-09290883D01*
X-32301742Y-08970469D02*
X-32206918Y-09290883D01*
X-32112094Y-08970469D02*
X-32206918Y-09290883D01*
X-31536467Y-08962163D02*
X-31536467Y-09298598D01*
X-31536467Y-09033909D02*
X-31584180Y-08985847D01*
X-31584180Y-08985847D02*
X-31631182Y-08962163D01*
X-31631182Y-08962163D02*
X-31702396Y-08962163D01*
X-31702396Y-08962163D02*
X-31750107Y-08985847D01*
X-31750107Y-08985847D02*
X-31797820Y-09033909D01*
X-31797820Y-09033909D02*
X-31821321Y-09106350D01*
X-31821321Y-09106350D02*
X-31821321Y-09154412D01*
X-31821321Y-09154412D02*
X-31797820Y-09226157D01*
X-31797820Y-09226157D02*
X-31750107Y-09274220D01*
X-31750107Y-09274220D02*
X-31702396Y-09298598D01*
X-31702396Y-09298598D02*
X-31631182Y-09298598D01*
X-31631182Y-09298598D02*
X-31584180Y-09274220D01*
X-31584180Y-09274220D02*
X-31536467Y-09226157D01*
X-31056047Y-08832964D02*
X-31056047Y-09281258D01*
X-30433200Y-08832964D02*
X-30433200Y-09281258D01*
X-29962470Y-09106349D02*
X-29658236Y-09106349D01*
X-29658236Y-09058288D02*
X-29683336Y-09010226D01*
X-29683336Y-09010226D02*
X-29709196Y-08985847D01*
X-29709196Y-08985847D02*
X-29759394Y-08962163D01*
X-29759394Y-08962163D02*
X-29835453Y-08962163D01*
X-29835453Y-08962163D02*
X-29886412Y-08985847D01*
X-29886412Y-08985847D02*
X-29937370Y-09033908D01*
X-29937370Y-09033908D02*
X-29962470Y-09106349D01*
X-29962470Y-09106349D02*
X-29962470Y-09154412D01*
X-29962470Y-09154412D02*
X-29937370Y-09226157D01*
X-29937370Y-09226157D02*
X-29886412Y-09274220D01*
X-29886412Y-09274220D02*
X-29835453Y-09298598D01*
X-29835453Y-09298598D02*
X-29759394Y-09298598D01*
X-29759394Y-09298598D02*
X-29709196Y-09274220D01*
X-29709196Y-09274220D02*
X-29658236Y-09226157D01*
X-29222153Y-08872647D02*
X-29222153Y-09205726D01*
X-29222153Y-09205726D02*
X-29187509Y-09264173D01*
X-29187509Y-09264173D02*
X-29118216Y-09284034D01*
X-29118216Y-09284034D02*
X-29048925Y-09284034D01*
X-29326089Y-09009953D02*
X-29083571Y-09009953D01*
X-28100698Y-08970469D02*
X-27941813Y-09290883D01*
X-27782928Y-08970469D02*
X-27941813Y-09290883D01*
X-27318967Y-08847422D02*
X-27378459Y-08863533D01*
X-27378459Y-08863533D02*
X-27431726Y-08912623D01*
X-27431726Y-08912623D02*
X-27460781Y-08983898D01*
X-27460781Y-08983898D02*
X-27467699Y-09089599D01*
X-27467699Y-09089599D02*
X-27451096Y-09178221D01*
X-27451096Y-09178221D02*
X-27408206Y-09251662D01*
X-27408206Y-09251662D02*
X-27346637Y-09290565D01*
X-27346637Y-09290565D02*
X-27291296Y-09290565D01*
X-27291296Y-09290565D02*
X-27229726Y-09251662D01*
X-27229726Y-09251662D02*
X-27186836Y-09178221D01*
X-27186836Y-09178221D02*
X-27170233Y-09089599D01*
X-27170233Y-09089599D02*
X-27177150Y-08983898D01*
X-27177150Y-08983898D02*
X-27206205Y-08912623D01*
X-27206205Y-08912623D02*
X-27259473Y-08863533D01*
X-27259473Y-08863533D02*
X-27318967Y-08847422D01*
X-26657360Y-09221177D02*
X-26734879Y-09221177D01*
X-26217853Y-08855727D02*
X-25928692Y-08855727D01*
X-25928692Y-08855727D02*
X-25950480Y-08868772D01*
X-25950480Y-08868772D02*
X-25961935Y-08877406D01*
X-25961935Y-08877406D02*
X-25988752Y-08903051D01*
X-25988752Y-08903051D02*
X-26003317Y-08920706D01*
X-26003317Y-08920706D02*
X-26018123Y-08942015D01*
X-26018123Y-08942015D02*
X-26032771Y-08967302D01*
X-26032771Y-08967302D02*
X-26046865Y-08996889D01*
X-26046865Y-08996889D02*
X-26060008Y-09031101D01*
X-26060008Y-09031101D02*
X-26071800Y-09070260D01*
X-26071800Y-09070260D02*
X-26081847Y-09114692D01*
X-26081847Y-09114692D02*
X-26092771Y-09191929D01*
X-26092771Y-09191929D02*
X-26097525Y-09282851D01*
X-25317228Y-09033908D02*
X-25361849Y-08985847D01*
X-25361849Y-08985847D02*
X-25405804Y-08962163D01*
X-25405804Y-08962163D02*
X-25472404Y-08962163D01*
X-25472404Y-08962163D02*
X-25517026Y-08985847D01*
X-25517026Y-08985847D02*
X-25561646Y-09033908D01*
X-25561646Y-09033908D02*
X-25583624Y-09106349D01*
X-25583624Y-09106349D02*
X-25583624Y-09154412D01*
X-25583624Y-09154412D02*
X-25561646Y-09226157D01*
X-25561646Y-09226157D02*
X-25517026Y-09274220D01*
X-25517026Y-09274220D02*
X-25472404Y-09298598D01*
X-25472404Y-09298598D02*
X-25405804Y-09298598D01*
X-25405804Y-09298598D02*
X-25361849Y-09274220D01*
X-25361849Y-09274220D02*
X-25317228Y-09226157D01*
M02*